<?xml version="1.0" standalone="no"?>
<!DOCTYPE svg PUBLIC "-//W3C//DTD SVG 1.1//EN" "http://www.w3.org/Graphics/SVG/1.1/DTD/svg11.dtd" >
<svg xmlns="http://www.w3.org/2000/svg">
<metadata></metadata>
<defs>
<font id="cocomatultralight" horiz-adv-x="1712" >
<font-face units-per-em="2048" ascent="1638" descent="-410" />
<missing-glyph horiz-adv-x="642" />
<glyph unicode="&#xfb01;" horiz-adv-x="1018" d="M49 975q0 30 30 30h148v216q0 87 24.5 144.5t66.5 92.5t97.5 50t115.5 15q18 0 27 -10t9 -24q0 -15 -11 -22t-22 -7q-55 1 -101 -13t-77.5 -44.5t-49 -77.5t-17.5 -112v-208h537q15 0 24 -11q6 -8 6 -19q0 -7 -1 -10v-935q0 -30 -29 -30q-32 0 -31 30v913h-506v-918 q0 -29 -32 -29q-30 0 -30 29v918h-148q-30 0 -30 32zM762 1303q0 -26 18 -44t43 -18q26 0 44 18t18 44t-18 43.5t-44 17.5t-43.5 -17.5t-17.5 -43.5z" />
<glyph unicode="&#xfb02;" horiz-adv-x="1024" d="M49 975q0 30 30 30h148v216q0 87 24.5 144.5t66.5 92.5t97.5 50t115.5 15q18 0 27 -10t9 -24q0 -15 -11 -22t-22 -7q-55 1 -101 -13t-77.5 -44.5t-49 -77.5t-17.5 -112v-208h216q13 0 22.5 -7.5t9.5 -22.5t-9.5 -23.5t-22.5 -8.5h-216v-918q0 -29 -32 -29q-30 0 -30 29 v918h-148q-30 0 -30 32zM794 30v1463q0 30 31 30q29 0 29 -30v-1463q0 -30 -29 -30q-32 0 -31 30z" />
<glyph unicode="&#xfb03;" horiz-adv-x="1649" d="M49 975q0 30 30 30h148v216q0 87 24.5 144.5t66.5 92.5t97.5 50t115.5 15q18 0 27 -10t9 -24q0 -15 -11 -22t-22 -7q-55 1 -101 -13t-77.5 -44.5t-49 -77.5t-17.5 -112v-208h569v216q0 87 24.5 144.5t66.5 92.5t97.5 50t115.5 15q18 0 27 -10t9 -24q0 -15 -11 -22t-23 -7 q-55 1 -100.5 -13t-77.5 -44.5t-49 -77.5t-17 -112v-208h534q12 0 21 -6.5t11 -19.5v-949q0 -30 -29 -30q-32 0 -32 30v913h-505v-918q0 -29 -32 -29q-30 0 -30 29v918h-569v-918q0 -29 -32 -29q-30 0 -30 29v918h-148q-30 0 -30 32zM1393 1303q0 -26 17.5 -44t43.5 -18 t44 18t18 44t-18 43.5t-44 17.5t-43.5 -17.5t-17.5 -43.5z" />
<glyph unicode="&#xfb04;" horiz-adv-x="1652" d="M49 975q0 30 30 30h148v216q0 87 24.5 144.5t66.5 92.5t97.5 50t115.5 15q18 0 27 -10t9 -24q0 -15 -11 -22t-22 -7q-55 1 -101 -13t-77.5 -44.5t-49 -77.5t-17.5 -112v-208h216q13 0 22.5 -7.5t9.5 -22.5t-9.5 -23.5t-22.5 -8.5h-216v-918q0 -29 -32 -29q-30 0 -30 29 v918h-148q-30 0 -30 32zM680 975q0 30 30 30h148v216q0 87 24.5 144.5t66.5 92.5t97.5 50t115.5 15q18 0 27 -10t9 -24q0 -15 -11 -22t-23 -7q-55 1 -100.5 -13t-77.5 -44.5t-49 -77.5t-17 -112v-208h216q13 0 22 -7.5t9 -22.5t-9 -23.5t-22 -8.5h-216v-918q0 -29 -32 -29 q-30 0 -30 29v918h-148q-30 0 -30 32zM1424 30v1463q0 30 32 30q29 0 29 -30v-1463q0 -30 -29 -30q-32 0 -32 30z" />
<glyph horiz-adv-x="0" />
<glyph horiz-adv-x="682" />
<glyph unicode=" "  horiz-adv-x="642" />
<glyph unicode="&#x09;" horiz-adv-x="642" />
<glyph unicode="&#xa0;" horiz-adv-x="642" />
<glyph unicode="!" horiz-adv-x="395" d="M137 51q0 -26 18 -43.5t44 -17.5t43.5 18t17.5 43q0 26 -18 44t-43 18q-26 0 -44 -18t-18 -44zM166 424v1070q0 30 30 30q29 0 28 -30v-1070q0 -30 -28 -30q-30 0 -30 30z" />
<glyph unicode="&#x22;" horiz-adv-x="595" d="M163 1182v308q0 30 30 30q29 0 28 -30v-308q0 -30 -28 -30q-30 0 -30 30zM361 1182v308q0 30 29 30q30 0 30 -30v-308q0 -30 -30 -30q-29 0 -29 30z" />
<glyph unicode="#" horiz-adv-x="1113" d="M43 514q0 29 30 29h169l67 463h-162q-30 0 -29 29q0 29 29 29h170l63 430q3 29 33 29q29 0 25 -29l-62 -430h378l62 430q3 29 33 29q29 0 25 -29l-62 -430h179q32 0 32 -29q0 -30 -32 -29h-187l-68 -463h180q32 0 32 -29q0 -30 -32 -30h-188l-65 -454q-4 -30 -33 -30 q-30 0 -26 30l66 454h-378l-66 -454q-4 -30 -32 -30q-30 0 -26 30l65 454h-160q-30 0 -30 30zM300 543h378l67 463h-377z" />
<glyph unicode="$" horiz-adv-x="1258" d="M68 240q0 31 29 30q12 0 16.5 -6t12.5 -16q77 -96 187 -151t266 -59h58q96 3 183.5 24t153.5 66t105.5 115.5t39.5 173.5q0 59 -22 104.5t-59.5 80t-86.5 59t-102 41.5t-108 29t-104 22l-58 11q-123 24 -213 57t-148.5 78.5t-87.5 105.5t-29 137q0 90 33.5 161 t95.5 121.5t150.5 78.5t198.5 33v132q0 30 29 30t29 -30v-129q71 -1 132.5 -10t118 -29t108.5 -53t101 -82q10 -13 10 -26q0 -24 -26 -23q-19 0 -39 20q-45 38 -86 65t-87 44t-101.5 25.5t-130.5 9.5l-58 -2q-100 -5 -178.5 -32t-132 -70.5t-81 -103.5t-27.5 -130 q0 -72 33.5 -124t91.5 -90t134 -63.5t160 -44.5l58 -11q58 -11 120.5 -24.5t122.5 -33.5t114.5 -47.5t94.5 -67.5t64.5 -94t24.5 -125q0 -112 -42.5 -192.5t-116 -133.5t-171.5 -79.5t-211 -29.5v-139q0 -29 -29 -28q-30 0 -29 28v137q-74 2 -143 14.5t-132 39.5 t-119.5 70.5t-103.5 107.5q-6 8 -9.5 13.5t-3.5 14.5z" />
<glyph unicode="%" horiz-adv-x="1678" d="M97 1169q0 82 31 154t84 125.5t125.5 84.5t154.5 31t153.5 -31t125 -84.5t84.5 -125.5t31 -154t-31 -154t-84.5 -125t-125.5 -84t-153 -31q-82 0 -154.5 31t-125.5 84t-84 125t-31 154zM154 1169q0 -71 26 -132.5t71.5 -107t107.5 -72t133 -26.5t131.5 26.5t106 72 t71 107.5t25.5 132q0 71 -25.5 132.5t-71 107t-106.5 71t-131 25.5q-71 0 -133 -25.5t-107.5 -71t-71.5 -107t-26 -132.5zM297 23q0 5 5 15l1005 1469q12 20 25 21q23 0 29.5 -15t-5.5 -32l-1003 -1468q-6 -16 -19 -16q-14 0 -25.5 8.5t-11.5 17.5zM802 372q0 82 30.5 153.5 t84.5 125.5t125.5 84.5t153.5 30.5t154 -30.5t125.5 -84.5t84 -125.5t30.5 -153.5t-30.5 -154t-84 -125.5t-125.5 -84.5t-154 -31t-153.5 31t-125.5 84.5t-84.5 125.5t-30.5 154zM858 372q0 -71 26 -133t71.5 -107.5t107.5 -71.5t133 -26t132.5 26t107 71.5t71 107.5 t25.5 133t-25.5 132t-71 106.5t-107 71.5t-132.5 26t-133 -26t-107.5 -71.5t-71.5 -106.5t-26 -132z" />
<glyph unicode="&#x26;" horiz-adv-x="1753" d="M119 472q0 84 24.5 156t67.5 127t102.5 90t128.5 44q-49 17 -86 48t-61 70t-36 85.5t-12 95.5q0 89 30.5 153t83.5 105.5t123.5 61.5t149.5 20t148.5 -24.5t121.5 -71.5t82.5 -114.5t30.5 -152.5q0 -17 -9.5 -25t-20.5 -8t-20 8t-9 25q0 71 -25 128t-68 95.5t-101.5 59.5 t-126.5 21q-72 0 -133 -17t-105 -52t-69 -88.5t-25 -123.5q0 -53 14.5 -95.5t40 -75t61.5 -55t78 -34.5l157 -40q25 -6 25 -26q0 -16 -8 -24.5t-19 -8.5q-8 0 -13 2l-41 11q-8 3 -21 4.5t-27 1.5q-89 0 -158.5 -28.5t-118 -79.5t-73.5 -120t-25 -150q0 -94 42 -173.5 t108 -136.5t146.5 -88.5t158.5 -31.5q90 0 171.5 33t143 91t97.5 136.5t36 169.5v7l-137 38q-1 0 -6 1.5t-7 3.5q-31 6 -60 6q-38 0 -74.5 -10t-75.5 -33q-5 -2 -11.5 -4t-12.5 -2q-10 0 -18 8t-8 22q0 17 22.5 31.5t53.5 25t64.5 16.5t54.5 6q40 0 82 -13h5l331 -90 q2 -2 4.5 -2h4.5q44 -13 90 -13t88.5 14.5t78 41.5t61 66.5t38.5 89.5q3 8 11 18t20 10t21 -9t9 -23q0 -4 -2 -12q-15 -55 -44.5 -102.5t-70.5 -82t-91.5 -54t-108.5 -19.5q-26 0 -52 3.5t-53 11.5l-2 2l-141 38q-3 -100 -45 -188t-112.5 -152.5t-161.5 -101.5t-191 -37 q-102 0 -195.5 38t-164.5 104.5t-113 156t-42 191.5z" />
<glyph unicode="'" horiz-adv-x="540" d="M175 1181v308q0 30 30 30q29 0 28 -30v-308q0 -30 -28 -30q-30 0 -30 30z" />
<glyph unicode="(" horiz-adv-x="617" d="M170 751q0 283 74.5 538.5t216.5 480.5q10 14 24 14q11 0 20 -9t9 -20q0 -7 -5 -15q-137 -217 -210 -466.5t-73 -522.5q0 -272 73 -521.5t210 -468.5q5 -8 5 -15q0 -11 -8.5 -20t-20.5 -9q-14 0 -24 14q-141 223 -216 480.5t-75 539.5z" />
<glyph unicode=")" horiz-adv-x="634" d="M92.5 -260.5q-2.5 11.5 4.5 21.5q136 216 209 466q74 249 74 524q0 274 -74 523q-36 125 -88.5 241t-120.5 225q-7 10 -4.5 21.5t12.5 17.5q7 5 16 5q14 0 24 -14q140 -223 216 -480q37 -129 56 -263.5t19 -275.5q0 -140 -19 -275t-56 -264q-38 -129 -91.5 -249.5 t-124.5 -231.5q-10 -13 -24 -14q-7 0 -16 5q-10 6 -12.5 17.5z" />
<glyph unicode="*" horiz-adv-x="1006" d="M154 660q0 10 6.5 17.5t16.5 8.5h285l-137 235q-1 0 -2 4.5t-1 8.5q0 11 7 18t18 7t20 -9l136 -236l136 236q7 9 19 9q11 0 18.5 -7t7.5 -18q0 -4 -1 -8.5t-2 -4.5l-137 -235h284q10 -1 17 -8t7 -18t-7 -18t-19 -7h-273l143 -254q6 -6 6 -16q0 -11 -7 -18.5t-18 -7.5 q-12 0 -19 8l-4 3q-15 27 -35 61.5t-40.5 70.5t-40.5 69.5t-35 57.5q-15 -25 -35.5 -58t-40.5 -69t-40 -70.5t-36 -61.5l-4 -3q-6 -8 -18 -8q-11 0 -18.5 7t-7.5 19q0 10 6 16l144 254h-274q-11 0 -18 7t-7 18z" />
<glyph unicode="+" horiz-adv-x="921" d="M103 656q0 30 30 30h299v299q0 30 30 30q29 0 28 -30v-299h303q32 0 31 -30q0 -30 -31 -29h-303v-301q0 -32 -28 -32q-30 0 -30 32v301h-299q-30 0 -30 29z" />
<glyph unicode="," horiz-adv-x="420" d="M160 51q0 26 18 44t43 18t42.5 -17.5t19.5 -41.5v-43q0 -32 -6.5 -56.5t-15.5 -41.5t-20 -26.5t-20 -9.5q-5 0 -10 5l-12 10q-3 4 -3 10t4.5 12t10 15t10 20t4.5 26v15h-4q-26 0 -43.5 17.5t-17.5 43.5z" />
<glyph unicode="-" horiz-adv-x="1040" d="M171 563q0 29 30 29h659q32 0 32 -29q0 -30 -32 -29h-659q-30 0 -30 29z" />
<glyph unicode="." horiz-adv-x="461" d="M158 51q0 26 18 44t43 18q26 0 44 -18t18 -44t-18 -43.5t-44 -17.5t-43.5 17.5t-17.5 43.5z" />
<glyph unicode="/" horiz-adv-x="743" d="M38 38l574 1469q5 15 14 19t23 -1q28 -9 18 -36l-577 -1476q-11 -25 -36 -11q-29 10 -16 36z" />
<glyph unicode="0" d="M140 712v6.5v4.5q3 9 3 14q2 3 3.5 5.5t4.5 6.5q2 2 3.5 5t3.5 5l3 -5q3 0 4 -1l1 -1q2 -3 2 -9v-3t-2 -3q-5 -5 -5 -11v-13t3 -18q2 -4 4.5 -7t5.5 -6q5 -5 14 -7q7 -4 18 -3q6 0 11 3q3 1 5 1.5t4 3.5q1 2 3.5 3t6.5 4q1 2 2.5 3.5t3.5 4.5q0 4 0.5 7t2.5 6q1 4 1 10 q-1 4 -2 7t-2 8q0 3 -5 10l-20 -1v-5v-5q0 -2 -2 -5q-1 -1 -2 -2.5t-2 -1.5q-2 -1 -6 -1h-6l-3 37l51 4q1 -2 3.5 -4t4.5 -5q2 -1 3.5 -4.5t1.5 -6.5q1 -6 3 -11q0 -4 1 -6.5t1 -4.5q0 -8 -1 -14.5t-3 -11.5q-1 -8 -4.5 -13t-6.5 -10q-7 -8 -20 -13q-11 -8 -23 -8h-18 q-4 3 -7.5 4t-7.5 4q-4 1 -6.5 3.5t-6.5 4.5q-2 3 -5 6t-5 7q-2 2 -4 5.5t-4 6.5l-2 10t-1 10zM140 786l8 77l20 -2l-7 -56l30 -5l6 48l20 -2l-5 -46l33 -3l5 58l20 -4l-9 -77zM151 877l22 92l18 -5l-10 -38l101 -24l-4 -18l-100 23l-10 -36zM191 1020l43 85l17 -8l-15 -33 l91 -46l-9 -19l-92 47l-16 -34zM220 440l46 -81l23 16l-26 46l85 -10h6q1 0 2 1t3 1l12 8l-46 79l-24 -15l27 -45l-85 10q-1 0 -5 -0.5t-8 -4.5zM245 1124l11 16l41 -30l36 48l-41 31l11 15l98 -71l-11 -17l-41 31l-36 -48l42 -31l-11 -15zM286 334l52 -60l19 19l-32 38 l17 11l24 -32l22 19l-28 30l15 13l32 -40l20 17l-49 62zM313 752q0 -105 40.5 -200.5t111 -168t167.5 -115.5t210 -43q36 0 71.5 6t69.5 16q79 24 149.5 69.5t123 111t82.5 147t30 177.5q0 103 -39.5 198.5t-109.5 169t-167 117.5t-210 44q-108 0 -203 -41t-167.5 -111.5 t-115.5 -167.5t-43 -209zM327 1230l54 54l14 -15l-40 -40l21 -22l34 32l12 -14l-32 -31l22 -24l41 39l14 -15l-55 -52zM359 752q0 96 36 183.5t100.5 154.5t153 106t193.5 39q69 0 127 -16q73 -19 137.5 -61.5t113.5 -103t77 -137t28 -165.5q0 -100 -38 -189t-104 -155 t-154 -104t-187 -38q-102 0 -190.5 39t-154 105.5t-102 155t-36.5 186.5zM384 230l20 -19l62 72l22 -22l19 21l-71 60l-20 -21l26 -23zM406 752q0 -85 28.5 -159.5t79.5 -133.5l568 569h-578q-46 -56 -72 -125t-26 -151zM427 190l15 -10h2h3q3 0 4 -0.5t2 0.5h5h5l10 10 l41 -22l-2 -15v-6q0 -3 1 -3q0 -1 1 -1v-4q0 -1 2 -1l3 -4l18 -10l17 128l-23 14zM442 1327l65 41l9 -15l-48 -31l18 -27l40 26l11 -17l-40 -25l24 -44l-14 -10zM499 206l17 15h2h1v2v1h2q1 1 2 1l-4 -2v-2v-3l-1 -22zM526 1380l19 9l30 -68q0 -7 6 -10q2 -4 10 -7 q2 -2 5 -2h5q5 0 10 2q8 3 11 7q5 5 7 10q1 1 1 10q0 6 -1 11l-28 69l17 8l29 -69q2 -5 2.5 -9.5t0.5 -9.5q0 -10 -3 -19q-2 -5 -4.5 -8.5t-7.5 -7.5q-3 -5 -6 -6.5t-8 -3.5t-10 -3.5t-10 -1.5q-8 0 -18 5q-5 2 -9 3.5t-7 6.5q-7 7 -10 16zM549 1076h579q-56 51 -129 82 t-157 31q-85 0 -159.5 -30t-133.5 -83zM550 426q59 -49 133 -80t159 -31q84 0 158.5 31t133.5 80h-584zM554 119l27 -11l15 42l39 -16l10 26l-39 15l7 19l50 -19l8 26l-75 25zM600 474h578q46 56 71.5 127t25.5 151q0 82 -27 153.5t-84 142.5zM647 1426l21 6l23 -100l50 10 l3 -20l-66 -15zM654 124l3 -15l6 -13l12 -11q3 -4 7 -5.5t6 -3.5q7 -4 15 -4q5 -1 9 -1h7q5 0 14 2q4 2 8.5 3t7.5 4q6 2 11 10l9 11q4 7 6 18v15q0 3 -0.5 6.5t-2.5 9.5l-3 7.5t-4 6.5l-8 11q-3 3 -7 5l-8 4q-4 1 -7 2t-8 3q-5 1 -9 1h-7q-10 0 -15 -5q-4 0 -7.5 -1 t-7.5 -4l-11 -10q-4 -8 -11 -11q-2 -5 -3.5 -9t-1.5 -7v-19zM685 124q-3 5 0 14q0 6 5 12l6 9l13 5h12l12 -5l9 -9q2 -3 4 -5.5t2 -6.5q2 -9 0 -14q0 -3 -2 -6.5t-4 -5.5q-3 -4 -4.5 -6.5t-4.5 -4.5q-4 -1 -6.5 -2t-5.5 -1q-7 -3 -12 0q-3 0 -7 1t-6 2l-8 11q-2 2 -2.5 5.5 t-0.5 6.5zM736 1445l21 2l10 -100l52 5v-21l-70 -9zM784 178l3 -122l28 1v81l52 -81h26v121h-31l4 -77q-1 0 -1 4q0 1 -1.5 1t-1.5 2q0 4 -1 4l-42 61q0 1 -3 2q-1 3 -8 3h-9h-15zM865 1331l13 121l45 -5q6 0 14 -4q9 -5 11 -10q4 -3 6 -14q4 -7 3 -15q-3 -3 -3 -6.5 t-2 -8.5l-9 -12q-4 -4 -14 -7q-3 -2 -14 -2l-25 4l-5 -45zM891 1391l25 -2h8q3 0 7 5q3 0 3 5q2 2 4 8q0 5 -1 7l-2 4l-1 1q-2 3 -3.5 4t-2.5 1q-2 2 -3.5 2t-2.5 1l-26 3zM903 179l4 -26l35 6l16 -91l27 5l-16 91l31 6l-5 26zM954 1321l31 116l45 -13q6 0 11 -5t11 -10 q4 -5 4 -13q1 -5 0.5 -9t-0.5 -7q-2 -5 -5 -10q-4 -5 -7 -7q-8 -5 -10 -5q-3 -2 -5.5 -2.5t-3.5 -2.5l22 -58l-16 1q-1 2 -3 4t-3 2q-4 2 -5 9l-20 47l-15 4l-11 -46zM990 1380l26 -7h3h2q3 0 4 1t4 1q2 0 2 1v2q5 5 5 7v8v3t-1 3q-1 2 -2.5 2.5t-1.5 2.5q-3 3 -6 3l-25 5z M1011 176q0 -3 3 -7q2 -9 10 -14q1 0 3.5 -1.5t3.5 -3.5q4 0 7 -1.5t6 -1.5h13h10h2q2 0 3 -3q4 0 4 -1h3v-5q0 -2 -1 -3t-1 -2v-1q-1 0 -2 -2.5t-3 -2.5q-1 -3 -5 -3h-3h-2h-3.5h-2.5h-6h-9l-5 -1v-2t-1 -2l-5 -7q1 -4 3 -6.5t3 -4.5q4 -1 7.5 -2t7.5 -1q8 -3 11 -2 q4 0 8 1t7 1l7 3.5l9 4.5q4 4 5.5 6t4.5 7q0 5 2.5 7.5t2.5 7.5t-0.5 8.5t-4.5 7.5q0 8 -5 10q-1 7 -8 9l-13 5h-15h-6h-9h-3v1q-3 3 -3 4l-2 1q2 0 2 4v1h3h6v4h1h5h3q3 0 3 1h9q0 3 1 4v2l5 10l-6 4q-9 4 -12 4q-2 0 -4.5 1t-4.5 1q-4 0 -6.5 -1t-4.5 -1l-13 -8 q-2 -1 -4 -3.5t-3 -6.5q-8 -6 -8 -16v-4zM1056 1319v12q0 12 6 22q0 5 2.5 8.5t6.5 6.5q1 3 4.5 5.5t6.5 4.5q3 3 7 4t9 3q4 3 14 4h15q9 -1 17 -7q8 -4 15 -9q3 -3 5.5 -6.5t4.5 -4.5q2 -4 4 -7t4 -7q1 -5 2 -8.5t1 -7.5v-8t-2 -8q-1 -4 -2 -7.5t-4 -8.5q-3 -4 -4 -7t-4 -7 q-3 -3 -6.5 -5t-4.5 -6q-4 -2 -7 -4t-7 -5q-6 0 -17 -1q-12 0 -17 1q-5 0 -15 5q-12 5 -19 15q-9 9 -14 21q-1 7 -1 12zM1074 1324q0 -2 1 -5t2 -5q0 -7 4 -10q1 -2 3 -5t3 -3q4 -5 11 -6q7 -4 10 -4h12h13q4 5 8 5q3 2 5 3.5t3 3.5q3 3 4 6t3 5q2 3 2.5 7.5t0.5 9.5v7.5 v7.5q-2 4 -4.5 8t-5.5 6q-6 7 -13 10q-2 2 -5.5 2.5t-7.5 0.5h-10q-6 0 -10 -1q-3 -2 -5 -3t-5 -1q-1 -2 -3.5 -4t-3.5 -4l-7 -8q-2 -4 -2.5 -7t-2.5 -6v-10zM1122 143q0 -4 1 -4v-1q0 -6 4 -6q1 -5 7 -5h7q5 0 7 2q1 2 3 2.5t2 2.5v2q0 2 1 2l4 3v2q0 6 -5 7l-4 5 q-1 4 -3 4t-3.5 0.5t-3.5 0.5q-1 -1 -6 -1l-8 -4q-2 -1 -2 -3v-2q-1 -2 -1 -6v-1zM1134 221q0 -5 2 -7.5t2 -7.5l6 -16q3 -3 6 -5t4 -5l15 -10l13 -2q5 -3 16 -3q4 0 7 1.5t7 2.5q5 1 9 3.5t7 5.5l5 2.5t5 4.5q3 0 5 4t5 7l3 14q5 4 5 13l-12 2h-6l-7 -4q-2 0 -3.5 -2.5 t-1.5 -4.5l-5 -9l-9 -6q-4 -3 -6 -4t-6 -1q-6 -3 -12 0q-3 2 -5.5 2t-5.5 3q-7 4 -8 11q-5 1 -5 11q-5 3 0 15v3.5t2 7.5q2 2 4 3.5t5 3.5q8 3 10 3q3 2 10 2q2 0 10 3q2 4 5 5l2 7v9q-3 5 -12 5h-13l-15 -5l-11 -5q-2 -2 -5.5 -5t-6.5 -7q-2 -2 -4 -5.5t-4 -8.5l-7 -15v-16 zM1210 1194l41 127l11 -9q0 -1 1.5 -3t3.5 -3q0 -5 -2 -10l-29 -87l85 39q1 1 7 1q5 0 7 -4l11 -7l-120 -55zM1221 292q0 -4 3 -9l4 -14l10 -12l13 -10q5 -1 8 -3.5t8 -2.5t8.5 -2t6.5 -2t6.5 2t8.5 2q3 0 7 2.5t8 3.5q6 3 13 10l10 12q1 2 3 5.5t2 8.5q1 5 1 15v15l-6 14 q-2 4 -3 7l-5 7l-14 13l-16 3q-3 2 -15 2h-6.5t-8.5 -2l-13 -3q-4 -3 -8.5 -6.5t-6.5 -6.5q-3 -3 -4.5 -6t-3.5 -6q-3 -3 -4 -7t-3 -9q0 -3 -1.5 -6.5t-1.5 -8.5v-6zM1251 288v10v12q4 8 9 13l11 8q3 0 6 0.5t5 0.5q5 0 13 -3q2 -1 5 -3t6 -5q2 -2 4 -5t3 -6q3 -3 3 -12 q0 -2 -1 -4l-2 -7q-3 -9 -7 -11q-8 -7 -11 -9q-3 -1 -6.5 -1h-6.5t-6.5 0.5t-4.5 0.5l-11 9q-4 4 -9 12zM1262 1147l92 78l50 -58l-14 -14l-38 45l-24 -19l30 -37l-17 -12l-28 36l-24 -21l36 -43l-15 -12zM1282 380l99 -67l17 24l-47 33l61 -13l11 21l-33 51l48 -31l15 25 l-100 64l-13 -16q-2 -2 -3 -4t-1 -6q0 -2 1 -4t3 -5l41 -59l-70 10h-11l-9 -6zM1316 1080l103 63l24 -38q2 -3 2.5 -6t2.5 -8q2 -7 -2 -13q-2 -9 -5 -13l-4.5 -4.5t-6.5 -5.5l-6 -1.5t-5 -2.5q-4 0 -5.5 -0.5t-4.5 0.5q-4 0 -10 3q-4 1 -5.5 1.5t-3.5 3.5l-24 -61l-9 14 q-4 2 -4 7q0 6 3 9l20 48l-8 14l-43 -26zM1369 984q0 4 3 14q0 3 2 6l3 4q0 4 2 4q4 2 3 2l4 -2q3 -5 6 -7q0 -1 0.5 -2.5t0.5 -3.5q0 -3 -3 -6v-1v-8q0 -5 2 -8q0 -2 1 -3t2 -4q2 0 3.5 -1.5l3.5 -3.5h2t4 -2h4.5t4.5 2q2 0 5 3q2 4 2 5q1 2 1 7v8v4v13q0 8 2 13 q1 2 2.5 4.5t4.5 5.5q2 2 4.5 3.5t6.5 3.5q8 3 14 1q6 0 12 -3q3 -2 7 -3.5t6 -5.5q3 -3 6 -11q2 -7 2 -11q0 -7 -1 -10q0 -4 -4 -10v-4.5t-2 -3.5l-6 4q-3 1 -4 2.5t-4 3.5q-1 3 -1 5v4q1 1 1 7q0 4 -1 6q-2 3 -2 7q-3 0 -5 3q-2 2 -5 2q-3 1 -5 0l-2.5 -2.5l-1.5 -1.5 l-2 -2l-2 -2v-8v-10v-3v-2v-10q0 -2 -0.5 -4.5t-0.5 -4.5q-4 -14 -20 -22q-4 -2 -7.5 -3t-8.5 1q-6 0 -14 2q-4 3 -7.5 5t-5.5 6q-3 2 -5 6t-4 7q-3 10 -3 15zM1384 1099l14 -20q2 -5 4 -6q1 0 6 -3h6q1 0 5 3q1 0 6 3q0 3 1 4t1 3q1 1 1 7q-1 1 -1 2.5t-2 3.5l-11 19z M1392 921l115 34l5 -19l-115 -34zM1409 833q-1 13 1 23q5 13 10 21q7 10 19 17q5 3 11 5.5t11 2.5h20q6 0 14 -5q4 0 7.5 -2.5t4.5 -4.5q4 -3 7.5 -5.5t6.5 -5.5q4 -8 7 -13q3 -8 5 -18v-15q-2 -10 -5 -16q-1 -5 -3 -8.5t-4 -6.5l-11 -10q-4 -4 -7.5 -6t-6.5 -3 q-7 -4 -15 -4q-10 -1 -20 0q-8 0 -15 4q-2 1 -6 2.5t-7 4.5t-6 6.5t-5 5.5q-7 5 -8 15q-2 3 -3.5 6.5t-1.5 9.5zM1410 660l2 17l98 61l-93 5l1 21l120 -10v-12q0 -5 -1 -9q-4 -2 -4 -5l-83 -51l83 -6l-1 -20zM1428 836q2 -8 5 -12q0 -6 5 -9q1 -3 3 -5t3 -5q2 0 4.5 -1.5 t5.5 -3.5q2 -1 4.5 -1h5.5q5 -4 12 0q11 0 16 5q5 1 13 11q6 8 6 15q3 7 1 16q0 7 -2 10q-3 4 -3.5 6t-1.5 4q-3 2 -4.5 3.5l-3.5 3.5l-10 6q-3 3 -11 3q-5 3 -12 0q-8 0 -10 -3q-5 -2 -10 -6q-4 -2 -6 -7q-5 -5 -5 -10q-2 -1 -2.5 -4t-2.5 -6v-10z" />
<glyph unicode="1" d="M140 712v6.5v4.5q3 9 3 14q2 3 3.5 5.5t4.5 6.5q2 2 3.5 5t3.5 5l3 -5q3 0 4 -1l1 -1q2 -3 2 -9v-3t-2 -3q-5 -5 -5 -11v-13t3 -18q2 -4 4.5 -7t5.5 -6q5 -5 14 -7q7 -4 18 -3q6 0 11 3q3 1 5 1.5t4 3.5q1 2 3.5 3t6.5 4q1 2 2.5 3.5t3.5 4.5q0 4 0.5 7t2.5 6q1 4 1 10 q-1 4 -2 7t-2 8q0 3 -5 10l-20 -1v-5v-5q0 -2 -2 -5q-1 -1 -2 -2.5t-2 -1.5q-2 -1 -6 -1h-6l-3 37l51 4q1 -2 3.5 -4t4.5 -5q2 -1 3.5 -4.5t1.5 -6.5q1 -6 3 -11q0 -4 1 -6.5t1 -4.5q0 -8 -1 -14.5t-3 -11.5q-1 -8 -4.5 -13t-6.5 -10q-7 -8 -20 -13q-11 -8 -23 -8h-18 q-4 3 -7.5 4t-7.5 4q-4 1 -6.5 3.5t-6.5 4.5q-2 3 -5 6t-5 7q-2 2 -4 5.5t-4 6.5l-2 10t-1 10zM140 786l8 77l20 -2l-7 -56l30 -5l6 48l20 -2l-5 -46l33 -3l5 58l20 -4l-9 -77zM151 877l22 92l18 -5l-10 -38l101 -24l-4 -18l-100 23l-10 -36zM191 1020l43 85l17 -8l-15 -33 l91 -46l-9 -19l-92 47l-16 -34zM220 440l46 -81l23 16l-26 46l85 -10h6q1 0 2 1t3 1l12 8l-46 79l-24 -15l27 -45l-85 10q-1 0 -5 -0.5t-8 -4.5zM245 1124l11 16l41 -30l36 48l-41 31l11 15l98 -71l-11 -17l-41 31l-36 -48l42 -31l-11 -15zM286 334l52 -60l19 19l-32 38 l17 11l24 -32l22 19l-28 30l15 13l32 -40l20 17l-49 62zM313 752q0 -105 40.5 -200.5t111 -168t167.5 -115.5t210 -43q36 0 71.5 6t69.5 16q79 24 149.5 69.5t123 111t82.5 147t30 177.5q0 103 -39.5 198.5t-109.5 169t-167 117.5t-210 44q-108 0 -203 -41t-167.5 -111.5 t-115.5 -167.5t-43 -209zM327 1230l54 54l14 -15l-40 -40l21 -22l34 32l12 -14l-32 -31l22 -24l41 39l14 -15l-55 -52zM359 752q0 96 36 183.5t100.5 154.5t153 106t193.5 39q69 0 127 -16q73 -19 137.5 -61.5t113.5 -103t77 -137t28 -165.5q0 -100 -38 -189t-104 -155 t-154 -104t-187 -38q-102 0 -190.5 39t-154 105.5t-102 155t-36.5 186.5zM384 230l20 -19l62 72l22 -22l19 21l-71 60l-20 -21l26 -23zM406 752q0 -85 28.5 -159.5t79.5 -133.5l568 569h-578q-46 -56 -72 -125t-26 -151zM427 190l15 -10h2h3q3 0 4 -0.5t2 0.5h5h5l10 10 l41 -22l-2 -15v-6q0 -3 1 -3q0 -1 1 -1v-4q0 -1 2 -1l3 -4l18 -10l17 128l-23 14zM442 1327l65 41l9 -15l-48 -31l18 -27l40 26l11 -17l-40 -25l24 -44l-14 -10zM499 206l17 15h2h1v2v1h2q1 1 2 1l-4 -2v-2v-3l-1 -22zM526 1380l19 9l30 -68q0 -7 6 -10q2 -4 10 -7 q2 -2 5 -2h5q5 0 10 2q8 3 11 7q5 5 7 10q1 1 1 10q0 6 -1 11l-28 69l17 8l29 -69q2 -5 2.5 -9.5t0.5 -9.5q0 -10 -3 -19q-2 -5 -4.5 -8.5t-7.5 -7.5q-3 -5 -6 -6.5t-8 -3.5t-10 -3.5t-10 -1.5q-8 0 -18 5q-5 2 -9 3.5t-7 6.5q-7 7 -10 16zM549 1076h579q-56 51 -129 82 t-157 31q-85 0 -159.5 -30t-133.5 -83zM550 426q59 -49 133 -80t159 -31q84 0 158.5 31t133.5 80h-584zM554 119l27 -11l15 42l39 -16l10 26l-39 15l7 19l50 -19l8 26l-75 25zM600 474h578q46 56 71.5 127t25.5 151q0 82 -27 153.5t-84 142.5zM647 1426l21 6l23 -100l50 10 l3 -20l-66 -15zM654 124l3 -15l6 -13l12 -11q3 -4 7 -5.5t6 -3.5q7 -4 15 -4q5 -1 9 -1h7q5 0 14 2q4 2 8.5 3t7.5 4q6 2 11 10l9 11q4 7 6 18v15q0 3 -0.5 6.5t-2.5 9.5l-3 7.5t-4 6.5l-8 11q-3 3 -7 5l-8 4q-4 1 -7 2t-8 3q-5 1 -9 1h-7q-10 0 -15 -5q-4 0 -7.5 -1 t-7.5 -4l-11 -10q-4 -8 -11 -11q-2 -5 -3.5 -9t-1.5 -7v-19zM685 124q-3 5 0 14q0 6 5 12l6 9l13 5h12l12 -5l9 -9q2 -3 4 -5.5t2 -6.5q2 -9 0 -14q0 -3 -2 -6.5t-4 -5.5q-3 -4 -4.5 -6.5t-4.5 -4.5q-4 -1 -6.5 -2t-5.5 -1q-7 -3 -12 0q-3 0 -7 1t-6 2l-8 11q-2 2 -2.5 5.5 t-0.5 6.5zM736 1445l21 2l10 -100l52 5v-21l-70 -9zM784 178l3 -122l28 1v81l52 -81h26v121h-31l4 -77q-1 0 -1 4q0 1 -1.5 1t-1.5 2q0 4 -1 4l-42 61q0 1 -3 2q-1 3 -8 3h-9h-15zM865 1331l13 121l45 -5q6 0 14 -4q9 -5 11 -10q4 -3 6 -14q4 -7 3 -15q-3 -3 -3 -6.5 t-2 -8.5l-9 -12q-4 -4 -14 -7q-3 -2 -14 -2l-25 4l-5 -45zM891 1391l25 -2h8q3 0 7 5q3 0 3 5q2 2 4 8q0 5 -1 7l-2 4l-1 1q-2 3 -3.5 4t-2.5 1q-2 2 -3.5 2t-2.5 1l-26 3zM903 179l4 -26l35 6l16 -91l27 5l-16 91l31 6l-5 26zM954 1321l31 116l45 -13q6 0 11 -5t11 -10 q4 -5 4 -13q1 -5 0.5 -9t-0.5 -7q-2 -5 -5 -10q-4 -5 -7 -7q-8 -5 -10 -5q-3 -2 -5.5 -2.5t-3.5 -2.5l22 -58l-16 1q-1 2 -3 4t-3 2q-4 2 -5 9l-20 47l-15 4l-11 -46zM990 1380l26 -7h3h2q3 0 4 1t4 1q2 0 2 1v2q5 5 5 7v8v3t-1 3q-1 2 -2.5 2.5t-1.5 2.5q-3 3 -6 3l-25 5z M1011 176q0 -3 3 -7q2 -9 10 -14q1 0 3.5 -1.5t3.5 -3.5q4 0 7 -1.5t6 -1.5h13h10h2q2 0 3 -3q4 0 4 -1h3v-5q0 -2 -1 -3t-1 -2v-1q-1 0 -2 -2.5t-3 -2.5q-1 -3 -5 -3h-3h-2h-3.5h-2.5h-6h-9l-5 -1v-2t-1 -2l-5 -7q1 -4 3 -6.5t3 -4.5q4 -1 7.5 -2t7.5 -1q8 -3 11 -2 q4 0 8 1t7 1l7 3.5l9 4.5q4 4 5.5 6t4.5 7q0 5 2.5 7.5t2.5 7.5t-0.5 8.5t-4.5 7.5q0 8 -5 10q-1 7 -8 9l-13 5h-15h-6h-9h-3v1q-3 3 -3 4l-2 1q2 0 2 4v1h3h6v4h1h5h3q3 0 3 1h9q0 3 1 4v2l5 10l-6 4q-9 4 -12 4q-2 0 -4.5 1t-4.5 1q-4 0 -6.5 -1t-4.5 -1l-13 -8 q-2 -1 -4 -3.5t-3 -6.5q-8 -6 -8 -16v-4zM1056 1319v12q0 12 6 22q0 5 2.5 8.5t6.5 6.5q1 3 4.5 5.5t6.5 4.5q3 3 7 4t9 3q4 3 14 4h15q9 -1 17 -7q8 -4 15 -9q3 -3 5.5 -6.5t4.5 -4.5q2 -4 4 -7t4 -7q1 -5 2 -8.5t1 -7.5v-8t-2 -8q-1 -4 -2 -7.5t-4 -8.5q-3 -4 -4 -7t-4 -7 q-3 -3 -6.5 -5t-4.5 -6q-4 -2 -7 -4t-7 -5q-6 0 -17 -1q-12 0 -17 1q-5 0 -15 5q-12 5 -19 15q-9 9 -14 21q-1 7 -1 12zM1074 1324q0 -2 1 -5t2 -5q0 -7 4 -10q1 -2 3 -5t3 -3q4 -5 11 -6q7 -4 10 -4h12h13q4 5 8 5q3 2 5 3.5t3 3.5q3 3 4 6t3 5q2 3 2.5 7.5t0.5 9.5v7.5 v7.5q-2 4 -4.5 8t-5.5 6q-6 7 -13 10q-2 2 -5.5 2.5t-7.5 0.5h-10q-6 0 -10 -1q-3 -2 -5 -3t-5 -1q-1 -2 -3.5 -4t-3.5 -4l-7 -8q-2 -4 -2.5 -7t-2.5 -6v-10zM1122 143q0 -4 1 -4v-1q0 -6 4 -6q1 -5 7 -5h7q5 0 7 2q1 2 3 2.5t2 2.5v2q0 2 1 2l4 3v2q0 6 -5 7l-4 5 q-1 4 -3 4t-3.5 0.5t-3.5 0.5q-1 -1 -6 -1l-8 -4q-2 -1 -2 -3v-2q-1 -2 -1 -6v-1zM1134 221q0 -5 2 -7.5t2 -7.5l6 -16q3 -3 6 -5t4 -5l15 -10l13 -2q5 -3 16 -3q4 0 7 1.5t7 2.5q5 1 9 3.5t7 5.5l5 2.5t5 4.5q3 0 5 4t5 7l3 14q5 4 5 13l-12 2h-6l-7 -4q-2 0 -3.5 -2.5 t-1.5 -4.5l-5 -9l-9 -6q-4 -3 -6 -4t-6 -1q-6 -3 -12 0q-3 2 -5.5 2t-5.5 3q-7 4 -8 11q-5 1 -5 11q-5 3 0 15v3.5t2 7.5q2 2 4 3.5t5 3.5q8 3 10 3q3 2 10 2q2 0 10 3q2 4 5 5l2 7v9q-3 5 -12 5h-13l-15 -5l-11 -5q-2 -2 -5.5 -5t-6.5 -7q-2 -2 -4 -5.5t-4 -8.5l-7 -15v-16 zM1210 1194l41 127l11 -9q0 -1 1.5 -3t3.5 -3q0 -5 -2 -10l-29 -87l85 39q1 1 7 1q5 0 7 -4l11 -7l-120 -55zM1221 292q0 -4 3 -9l4 -14l10 -12l13 -10q5 -1 8 -3.5t8 -2.5t8.5 -2t6.5 -2t6.5 2t8.5 2q3 0 7 2.5t8 3.5q6 3 13 10l10 12q1 2 3 5.5t2 8.5q1 5 1 15v15l-6 14 q-2 4 -3 7l-5 7l-14 13l-16 3q-3 2 -15 2h-6.5t-8.5 -2l-13 -3q-4 -3 -8.5 -6.5t-6.5 -6.5q-3 -3 -4.5 -6t-3.5 -6q-3 -3 -4 -7t-3 -9q0 -3 -1.5 -6.5t-1.5 -8.5v-6zM1251 288v10v12q4 8 9 13l11 8q3 0 6 0.5t5 0.5q5 0 13 -3q2 -1 5 -3t6 -5q2 -2 4 -5t3 -6q3 -3 3 -12 q0 -2 -1 -4l-2 -7q-3 -9 -7 -11q-8 -7 -11 -9q-3 -1 -6.5 -1h-6.5t-6.5 0.5t-4.5 0.5l-11 9q-4 4 -9 12zM1262 1147l92 78l50 -58l-14 -14l-38 45l-24 -19l30 -37l-17 -12l-28 36l-24 -21l36 -43l-15 -12zM1282 380l99 -67l17 24l-47 33l61 -13l11 21l-33 51l48 -31l15 25 l-100 64l-13 -16q-2 -2 -3 -4t-1 -6q0 -2 1 -4t3 -5l41 -59l-70 10h-11l-9 -6zM1316 1080l103 63l24 -38q2 -3 2.5 -6t2.5 -8q2 -7 -2 -13q-2 -9 -5 -13l-4.5 -4.5t-6.5 -5.5l-6 -1.5t-5 -2.5q-4 0 -5.5 -0.5t-4.5 0.5q-4 0 -10 3q-4 1 -5.5 1.5t-3.5 3.5l-24 -61l-9 14 q-4 2 -4 7q0 6 3 9l20 48l-8 14l-43 -26zM1369 984q0 4 3 14q0 3 2 6l3 4q0 4 2 4q4 2 3 2l4 -2q3 -5 6 -7q0 -1 0.5 -2.5t0.5 -3.5q0 -3 -3 -6v-1v-8q0 -5 2 -8q0 -2 1 -3t2 -4q2 0 3.5 -1.5l3.5 -3.5h2t4 -2h4.5t4.5 2q2 0 5 3q2 4 2 5q1 2 1 7v8v4v13q0 8 2 13 q1 2 2.5 4.5t4.5 5.5q2 2 4.5 3.5t6.5 3.5q8 3 14 1q6 0 12 -3q3 -2 7 -3.5t6 -5.5q3 -3 6 -11q2 -7 2 -11q0 -7 -1 -10q0 -4 -4 -10v-4.5t-2 -3.5l-6 4q-3 1 -4 2.5t-4 3.5q-1 3 -1 5v4q1 1 1 7q0 4 -1 6q-2 3 -2 7q-3 0 -5 3q-2 2 -5 2q-3 1 -5 0l-2.5 -2.5l-1.5 -1.5 l-2 -2l-2 -2v-8v-10v-3v-2v-10q0 -2 -0.5 -4.5t-0.5 -4.5q-4 -14 -20 -22q-4 -2 -7.5 -3t-8.5 1q-6 0 -14 2q-4 3 -7.5 5t-5.5 6q-3 2 -5 6t-4 7q-3 10 -3 15zM1384 1099l14 -20q2 -5 4 -6q1 0 6 -3h6q1 0 5 3q1 0 6 3q0 3 1 4t1 3q1 1 1 7q-1 1 -1 2.5t-2 3.5l-11 19z M1392 921l115 34l5 -19l-115 -34zM1409 833q-1 13 1 23q5 13 10 21q7 10 19 17q5 3 11 5.5t11 2.5h20q6 0 14 -5q4 0 7.5 -2.5t4.5 -4.5q4 -3 7.5 -5.5t6.5 -5.5q4 -8 7 -13q3 -8 5 -18v-15q-2 -10 -5 -16q-1 -5 -3 -8.5t-4 -6.5l-11 -10q-4 -4 -7.5 -6t-6.5 -3 q-7 -4 -15 -4q-10 -1 -20 0q-8 0 -15 4q-2 1 -6 2.5t-7 4.5t-6 6.5t-5 5.5q-7 5 -8 15q-2 3 -3.5 6.5t-1.5 9.5zM1410 660l2 17l98 61l-93 5l1 21l120 -10v-12q0 -5 -1 -9q-4 -2 -4 -5l-83 -51l83 -6l-1 -20zM1428 836q2 -8 5 -12q0 -6 5 -9q1 -3 3 -5t3 -5q2 0 4.5 -1.5 t5.5 -3.5q2 -1 4.5 -1h5.5q5 -4 12 0q11 0 16 5q5 1 13 11q6 8 6 15q3 7 1 16q0 7 -2 10q-3 4 -3.5 6t-1.5 4q-3 2 -4.5 3.5l-3.5 3.5l-10 6q-3 3 -11 3q-5 3 -12 0q-8 0 -10 -3q-5 -2 -10 -6q-4 -2 -6 -7q-5 -5 -5 -10q-2 -1 -2.5 -4t-2.5 -6v-10z" />
<glyph unicode="2" d="M140 712v6.5v4.5q3 9 3 14q2 3 3.5 5.5t4.5 6.5q2 2 3.5 5t3.5 5l3 -5q3 0 4 -1l1 -1q2 -3 2 -9v-3t-2 -3q-5 -5 -5 -11v-13t3 -18q2 -4 4.5 -7t5.5 -6q5 -5 14 -7q7 -4 18 -3q6 0 11 3q3 1 5 1.5t4 3.5q1 2 3.5 3t6.5 4q1 2 2.5 3.5t3.5 4.5q0 4 0.5 7t2.5 6q1 4 1 10 q-1 4 -2 7t-2 8q0 3 -5 10l-20 -1v-5v-5q0 -2 -2 -5q-1 -1 -2 -2.5t-2 -1.5q-2 -1 -6 -1h-6l-3 37l51 4q1 -2 3.5 -4t4.5 -5q2 -1 3.5 -4.5t1.5 -6.5q1 -6 3 -11q0 -4 1 -6.5t1 -4.5q0 -8 -1 -14.5t-3 -11.5q-1 -8 -4.5 -13t-6.5 -10q-7 -8 -20 -13q-11 -8 -23 -8h-18 q-4 3 -7.5 4t-7.5 4q-4 1 -6.5 3.5t-6.5 4.5q-2 3 -5 6t-5 7q-2 2 -4 5.5t-4 6.5l-2 10t-1 10zM140 786l8 77l20 -2l-7 -56l30 -5l6 48l20 -2l-5 -46l33 -3l5 58l20 -4l-9 -77zM151 877l22 92l18 -5l-10 -38l101 -24l-4 -18l-100 23l-10 -36zM191 1020l43 85l17 -8l-15 -33 l91 -46l-9 -19l-92 47l-16 -34zM220 440l46 -81l23 16l-26 46l85 -10h6q1 0 2 1t3 1l12 8l-46 79l-24 -15l27 -45l-85 10q-1 0 -5 -0.5t-8 -4.5zM245 1124l11 16l41 -30l36 48l-41 31l11 15l98 -71l-11 -17l-41 31l-36 -48l42 -31l-11 -15zM286 334l52 -60l19 19l-32 38 l17 11l24 -32l22 19l-28 30l15 13l32 -40l20 17l-49 62zM313 752q0 -105 40.5 -200.5t111 -168t167.5 -115.5t210 -43q36 0 71.5 6t69.5 16q79 24 149.5 69.5t123 111t82.5 147t30 177.5q0 103 -39.5 198.5t-109.5 169t-167 117.5t-210 44q-108 0 -203 -41t-167.5 -111.5 t-115.5 -167.5t-43 -209zM327 1230l54 54l14 -15l-40 -40l21 -22l34 32l12 -14l-32 -31l22 -24l41 39l14 -15l-55 -52zM359 752q0 96 36 183.5t100.5 154.5t153 106t193.5 39q69 0 127 -16q73 -19 137.5 -61.5t113.5 -103t77 -137t28 -165.5q0 -100 -38 -189t-104 -155 t-154 -104t-187 -38q-102 0 -190.5 39t-154 105.5t-102 155t-36.5 186.5zM384 230l20 -19l62 72l22 -22l19 21l-71 60l-20 -21l26 -23zM406 752q0 -85 28.5 -159.5t79.5 -133.5l568 569h-578q-46 -56 -72 -125t-26 -151zM427 190l15 -10h2h3q3 0 4 -0.5t2 0.5h5h5l10 10 l41 -22l-2 -15v-6q0 -3 1 -3q0 -1 1 -1v-4q0 -1 2 -1l3 -4l18 -10l17 128l-23 14zM442 1327l65 41l9 -15l-48 -31l18 -27l40 26l11 -17l-40 -25l24 -44l-14 -10zM499 206l17 15h2h1v2v1h2q1 1 2 1l-4 -2v-2v-3l-1 -22zM526 1380l19 9l30 -68q0 -7 6 -10q2 -4 10 -7 q2 -2 5 -2h5q5 0 10 2q8 3 11 7q5 5 7 10q1 1 1 10q0 6 -1 11l-28 69l17 8l29 -69q2 -5 2.5 -9.5t0.5 -9.5q0 -10 -3 -19q-2 -5 -4.5 -8.5t-7.5 -7.5q-3 -5 -6 -6.5t-8 -3.5t-10 -3.5t-10 -1.5q-8 0 -18 5q-5 2 -9 3.5t-7 6.5q-7 7 -10 16zM549 1076h579q-56 51 -129 82 t-157 31q-85 0 -159.5 -30t-133.5 -83zM550 426q59 -49 133 -80t159 -31q84 0 158.5 31t133.5 80h-584zM554 119l27 -11l15 42l39 -16l10 26l-39 15l7 19l50 -19l8 26l-75 25zM600 474h578q46 56 71.5 127t25.5 151q0 82 -27 153.5t-84 142.5zM647 1426l21 6l23 -100l50 10 l3 -20l-66 -15zM654 124l3 -15l6 -13l12 -11q3 -4 7 -5.5t6 -3.5q7 -4 15 -4q5 -1 9 -1h7q5 0 14 2q4 2 8.5 3t7.5 4q6 2 11 10l9 11q4 7 6 18v15q0 3 -0.5 6.5t-2.5 9.5l-3 7.5t-4 6.5l-8 11q-3 3 -7 5l-8 4q-4 1 -7 2t-8 3q-5 1 -9 1h-7q-10 0 -15 -5q-4 0 -7.5 -1 t-7.5 -4l-11 -10q-4 -8 -11 -11q-2 -5 -3.5 -9t-1.5 -7v-19zM685 124q-3 5 0 14q0 6 5 12l6 9l13 5h12l12 -5l9 -9q2 -3 4 -5.5t2 -6.5q2 -9 0 -14q0 -3 -2 -6.5t-4 -5.5q-3 -4 -4.5 -6.5t-4.5 -4.5q-4 -1 -6.5 -2t-5.5 -1q-7 -3 -12 0q-3 0 -7 1t-6 2l-8 11q-2 2 -2.5 5.5 t-0.5 6.5zM736 1445l21 2l10 -100l52 5v-21l-70 -9zM784 178l3 -122l28 1v81l52 -81h26v121h-31l4 -77q-1 0 -1 4q0 1 -1.5 1t-1.5 2q0 4 -1 4l-42 61q0 1 -3 2q-1 3 -8 3h-9h-15zM865 1331l13 121l45 -5q6 0 14 -4q9 -5 11 -10q4 -3 6 -14q4 -7 3 -15q-3 -3 -3 -6.5 t-2 -8.5l-9 -12q-4 -4 -14 -7q-3 -2 -14 -2l-25 4l-5 -45zM891 1391l25 -2h8q3 0 7 5q3 0 3 5q2 2 4 8q0 5 -1 7l-2 4l-1 1q-2 3 -3.5 4t-2.5 1q-2 2 -3.5 2t-2.5 1l-26 3zM903 179l4 -26l35 6l16 -91l27 5l-16 91l31 6l-5 26zM954 1321l31 116l45 -13q6 0 11 -5t11 -10 q4 -5 4 -13q1 -5 0.5 -9t-0.5 -7q-2 -5 -5 -10q-4 -5 -7 -7q-8 -5 -10 -5q-3 -2 -5.5 -2.5t-3.5 -2.5l22 -58l-16 1q-1 2 -3 4t-3 2q-4 2 -5 9l-20 47l-15 4l-11 -46zM990 1380l26 -7h3h2q3 0 4 1t4 1q2 0 2 1v2q5 5 5 7v8v3t-1 3q-1 2 -2.5 2.5t-1.5 2.5q-3 3 -6 3l-25 5z M1011 176q0 -3 3 -7q2 -9 10 -14q1 0 3.5 -1.5t3.5 -3.5q4 0 7 -1.5t6 -1.5h13h10h2q2 0 3 -3q4 0 4 -1h3v-5q0 -2 -1 -3t-1 -2v-1q-1 0 -2 -2.5t-3 -2.5q-1 -3 -5 -3h-3h-2h-3.5h-2.5h-6h-9l-5 -1v-2t-1 -2l-5 -7q1 -4 3 -6.5t3 -4.5q4 -1 7.5 -2t7.5 -1q8 -3 11 -2 q4 0 8 1t7 1l7 3.5l9 4.5q4 4 5.5 6t4.5 7q0 5 2.5 7.5t2.5 7.5t-0.5 8.5t-4.5 7.5q0 8 -5 10q-1 7 -8 9l-13 5h-15h-6h-9h-3v1q-3 3 -3 4l-2 1q2 0 2 4v1h3h6v4h1h5h3q3 0 3 1h9q0 3 1 4v2l5 10l-6 4q-9 4 -12 4q-2 0 -4.5 1t-4.5 1q-4 0 -6.5 -1t-4.5 -1l-13 -8 q-2 -1 -4 -3.5t-3 -6.5q-8 -6 -8 -16v-4zM1056 1319v12q0 12 6 22q0 5 2.5 8.5t6.5 6.5q1 3 4.5 5.5t6.5 4.5q3 3 7 4t9 3q4 3 14 4h15q9 -1 17 -7q8 -4 15 -9q3 -3 5.5 -6.5t4.5 -4.5q2 -4 4 -7t4 -7q1 -5 2 -8.5t1 -7.5v-8t-2 -8q-1 -4 -2 -7.5t-4 -8.5q-3 -4 -4 -7t-4 -7 q-3 -3 -6.5 -5t-4.5 -6q-4 -2 -7 -4t-7 -5q-6 0 -17 -1q-12 0 -17 1q-5 0 -15 5q-12 5 -19 15q-9 9 -14 21q-1 7 -1 12zM1074 1324q0 -2 1 -5t2 -5q0 -7 4 -10q1 -2 3 -5t3 -3q4 -5 11 -6q7 -4 10 -4h12h13q4 5 8 5q3 2 5 3.5t3 3.5q3 3 4 6t3 5q2 3 2.5 7.5t0.5 9.5v7.5 v7.5q-2 4 -4.5 8t-5.5 6q-6 7 -13 10q-2 2 -5.5 2.5t-7.5 0.5h-10q-6 0 -10 -1q-3 -2 -5 -3t-5 -1q-1 -2 -3.5 -4t-3.5 -4l-7 -8q-2 -4 -2.5 -7t-2.5 -6v-10zM1122 143q0 -4 1 -4v-1q0 -6 4 -6q1 -5 7 -5h7q5 0 7 2q1 2 3 2.5t2 2.5v2q0 2 1 2l4 3v2q0 6 -5 7l-4 5 q-1 4 -3 4t-3.5 0.5t-3.5 0.5q-1 -1 -6 -1l-8 -4q-2 -1 -2 -3v-2q-1 -2 -1 -6v-1zM1134 221q0 -5 2 -7.5t2 -7.5l6 -16q3 -3 6 -5t4 -5l15 -10l13 -2q5 -3 16 -3q4 0 7 1.5t7 2.5q5 1 9 3.5t7 5.5l5 2.5t5 4.5q3 0 5 4t5 7l3 14q5 4 5 13l-12 2h-6l-7 -4q-2 0 -3.5 -2.5 t-1.5 -4.5l-5 -9l-9 -6q-4 -3 -6 -4t-6 -1q-6 -3 -12 0q-3 2 -5.5 2t-5.5 3q-7 4 -8 11q-5 1 -5 11q-5 3 0 15v3.5t2 7.5q2 2 4 3.5t5 3.5q8 3 10 3q3 2 10 2q2 0 10 3q2 4 5 5l2 7v9q-3 5 -12 5h-13l-15 -5l-11 -5q-2 -2 -5.5 -5t-6.5 -7q-2 -2 -4 -5.5t-4 -8.5l-7 -15v-16 zM1210 1194l41 127l11 -9q0 -1 1.5 -3t3.5 -3q0 -5 -2 -10l-29 -87l85 39q1 1 7 1q5 0 7 -4l11 -7l-120 -55zM1221 292q0 -4 3 -9l4 -14l10 -12l13 -10q5 -1 8 -3.5t8 -2.5t8.5 -2t6.5 -2t6.5 2t8.5 2q3 0 7 2.5t8 3.5q6 3 13 10l10 12q1 2 3 5.5t2 8.5q1 5 1 15v15l-6 14 q-2 4 -3 7l-5 7l-14 13l-16 3q-3 2 -15 2h-6.5t-8.5 -2l-13 -3q-4 -3 -8.5 -6.5t-6.5 -6.5q-3 -3 -4.5 -6t-3.5 -6q-3 -3 -4 -7t-3 -9q0 -3 -1.5 -6.5t-1.5 -8.5v-6zM1251 288v10v12q4 8 9 13l11 8q3 0 6 0.5t5 0.5q5 0 13 -3q2 -1 5 -3t6 -5q2 -2 4 -5t3 -6q3 -3 3 -12 q0 -2 -1 -4l-2 -7q-3 -9 -7 -11q-8 -7 -11 -9q-3 -1 -6.5 -1h-6.5t-6.5 0.5t-4.5 0.5l-11 9q-4 4 -9 12zM1262 1147l92 78l50 -58l-14 -14l-38 45l-24 -19l30 -37l-17 -12l-28 36l-24 -21l36 -43l-15 -12zM1282 380l99 -67l17 24l-47 33l61 -13l11 21l-33 51l48 -31l15 25 l-100 64l-13 -16q-2 -2 -3 -4t-1 -6q0 -2 1 -4t3 -5l41 -59l-70 10h-11l-9 -6zM1316 1080l103 63l24 -38q2 -3 2.5 -6t2.5 -8q2 -7 -2 -13q-2 -9 -5 -13l-4.5 -4.5t-6.5 -5.5l-6 -1.5t-5 -2.5q-4 0 -5.5 -0.5t-4.5 0.5q-4 0 -10 3q-4 1 -5.5 1.5t-3.5 3.5l-24 -61l-9 14 q-4 2 -4 7q0 6 3 9l20 48l-8 14l-43 -26zM1369 984q0 4 3 14q0 3 2 6l3 4q0 4 2 4q4 2 3 2l4 -2q3 -5 6 -7q0 -1 0.5 -2.5t0.5 -3.5q0 -3 -3 -6v-1v-8q0 -5 2 -8q0 -2 1 -3t2 -4q2 0 3.5 -1.5l3.5 -3.5h2t4 -2h4.5t4.5 2q2 0 5 3q2 4 2 5q1 2 1 7v8v4v13q0 8 2 13 q1 2 2.5 4.5t4.5 5.5q2 2 4.5 3.5t6.5 3.5q8 3 14 1q6 0 12 -3q3 -2 7 -3.5t6 -5.5q3 -3 6 -11q2 -7 2 -11q0 -7 -1 -10q0 -4 -4 -10v-4.5t-2 -3.5l-6 4q-3 1 -4 2.5t-4 3.5q-1 3 -1 5v4q1 1 1 7q0 4 -1 6q-2 3 -2 7q-3 0 -5 3q-2 2 -5 2q-3 1 -5 0l-2.5 -2.5l-1.5 -1.5 l-2 -2l-2 -2v-8v-10v-3v-2v-10q0 -2 -0.5 -4.5t-0.5 -4.5q-4 -14 -20 -22q-4 -2 -7.5 -3t-8.5 1q-6 0 -14 2q-4 3 -7.5 5t-5.5 6q-3 2 -5 6t-4 7q-3 10 -3 15zM1384 1099l14 -20q2 -5 4 -6q1 0 6 -3h6q1 0 5 3q1 0 6 3q0 3 1 4t1 3q1 1 1 7q-1 1 -1 2.5t-2 3.5l-11 19z M1392 921l115 34l5 -19l-115 -34zM1409 833q-1 13 1 23q5 13 10 21q7 10 19 17q5 3 11 5.5t11 2.5h20q6 0 14 -5q4 0 7.5 -2.5t4.5 -4.5q4 -3 7.5 -5.5t6.5 -5.5q4 -8 7 -13q3 -8 5 -18v-15q-2 -10 -5 -16q-1 -5 -3 -8.5t-4 -6.5l-11 -10q-4 -4 -7.5 -6t-6.5 -3 q-7 -4 -15 -4q-10 -1 -20 0q-8 0 -15 4q-2 1 -6 2.5t-7 4.5t-6 6.5t-5 5.5q-7 5 -8 15q-2 3 -3.5 6.5t-1.5 9.5zM1410 660l2 17l98 61l-93 5l1 21l120 -10v-12q0 -5 -1 -9q-4 -2 -4 -5l-83 -51l83 -6l-1 -20zM1428 836q2 -8 5 -12q0 -6 5 -9q1 -3 3 -5t3 -5q2 0 4.5 -1.5 t5.5 -3.5q2 -1 4.5 -1h5.5q5 -4 12 0q11 0 16 5q5 1 13 11q6 8 6 15q3 7 1 16q0 7 -2 10q-3 4 -3.5 6t-1.5 4q-3 2 -4.5 3.5l-3.5 3.5l-10 6q-3 3 -11 3q-5 3 -12 0q-8 0 -10 -3q-5 -2 -10 -6q-4 -2 -6 -7q-5 -5 -5 -10q-2 -1 -2.5 -4t-2.5 -6v-10z" />
<glyph unicode="3" d="M140 712v6.5v4.5q3 9 3 14q2 3 3.5 5.5t4.5 6.5q2 2 3.5 5t3.5 5l3 -5q3 0 4 -1l1 -1q2 -3 2 -9v-3t-2 -3q-5 -5 -5 -11v-13t3 -18q2 -4 4.5 -7t5.5 -6q5 -5 14 -7q7 -4 18 -3q6 0 11 3q3 1 5 1.5t4 3.5q1 2 3.5 3t6.5 4q1 2 2.5 3.5t3.5 4.5q0 4 0.5 7t2.5 6q1 4 1 10 q-1 4 -2 7t-2 8q0 3 -5 10l-20 -1v-5v-5q0 -2 -2 -5q-1 -1 -2 -2.5t-2 -1.5q-2 -1 -6 -1h-6l-3 37l51 4q1 -2 3.5 -4t4.5 -5q2 -1 3.5 -4.5t1.5 -6.5q1 -6 3 -11q0 -4 1 -6.5t1 -4.5q0 -8 -1 -14.5t-3 -11.5q-1 -8 -4.5 -13t-6.5 -10q-7 -8 -20 -13q-11 -8 -23 -8h-18 q-4 3 -7.5 4t-7.5 4q-4 1 -6.5 3.5t-6.5 4.5q-2 3 -5 6t-5 7q-2 2 -4 5.5t-4 6.5l-2 10t-1 10zM140 786l8 77l20 -2l-7 -56l30 -5l6 48l20 -2l-5 -46l33 -3l5 58l20 -4l-9 -77zM151 877l22 92l18 -5l-10 -38l101 -24l-4 -18l-100 23l-10 -36zM191 1020l43 85l17 -8l-15 -33 l91 -46l-9 -19l-92 47l-16 -34zM220 440l46 -81l23 16l-26 46l85 -10h6q1 0 2 1t3 1l12 8l-46 79l-24 -15l27 -45l-85 10q-1 0 -5 -0.5t-8 -4.5zM245 1124l11 16l41 -30l36 48l-41 31l11 15l98 -71l-11 -17l-41 31l-36 -48l42 -31l-11 -15zM286 334l52 -60l19 19l-32 38 l17 11l24 -32l22 19l-28 30l15 13l32 -40l20 17l-49 62zM313 752q0 -105 40.5 -200.5t111 -168t167.5 -115.5t210 -43q36 0 71.5 6t69.5 16q79 24 149.5 69.5t123 111t82.5 147t30 177.5q0 103 -39.5 198.5t-109.5 169t-167 117.5t-210 44q-108 0 -203 -41t-167.5 -111.5 t-115.5 -167.5t-43 -209zM327 1230l54 54l14 -15l-40 -40l21 -22l34 32l12 -14l-32 -31l22 -24l41 39l14 -15l-55 -52zM359 752q0 96 36 183.5t100.5 154.5t153 106t193.5 39q69 0 127 -16q73 -19 137.5 -61.5t113.5 -103t77 -137t28 -165.5q0 -100 -38 -189t-104 -155 t-154 -104t-187 -38q-102 0 -190.5 39t-154 105.5t-102 155t-36.5 186.5zM384 230l20 -19l62 72l22 -22l19 21l-71 60l-20 -21l26 -23zM406 752q0 -85 28.5 -159.5t79.5 -133.5l568 569h-578q-46 -56 -72 -125t-26 -151zM427 190l15 -10h2h3q3 0 4 -0.5t2 0.5h5h5l10 10 l41 -22l-2 -15v-6q0 -3 1 -3q0 -1 1 -1v-4q0 -1 2 -1l3 -4l18 -10l17 128l-23 14zM442 1327l65 41l9 -15l-48 -31l18 -27l40 26l11 -17l-40 -25l24 -44l-14 -10zM499 206l17 15h2h1v2v1h2q1 1 2 1l-4 -2v-2v-3l-1 -22zM526 1380l19 9l30 -68q0 -7 6 -10q2 -4 10 -7 q2 -2 5 -2h5q5 0 10 2q8 3 11 7q5 5 7 10q1 1 1 10q0 6 -1 11l-28 69l17 8l29 -69q2 -5 2.5 -9.5t0.5 -9.5q0 -10 -3 -19q-2 -5 -4.5 -8.5t-7.5 -7.5q-3 -5 -6 -6.5t-8 -3.5t-10 -3.5t-10 -1.5q-8 0 -18 5q-5 2 -9 3.5t-7 6.5q-7 7 -10 16zM549 1076h579q-56 51 -129 82 t-157 31q-85 0 -159.5 -30t-133.5 -83zM550 426q59 -49 133 -80t159 -31q84 0 158.5 31t133.5 80h-584zM554 119l27 -11l15 42l39 -16l10 26l-39 15l7 19l50 -19l8 26l-75 25zM600 474h578q46 56 71.5 127t25.5 151q0 82 -27 153.5t-84 142.5zM647 1426l21 6l23 -100l50 10 l3 -20l-66 -15zM654 124l3 -15l6 -13l12 -11q3 -4 7 -5.5t6 -3.5q7 -4 15 -4q5 -1 9 -1h7q5 0 14 2q4 2 8.5 3t7.5 4q6 2 11 10l9 11q4 7 6 18v15q0 3 -0.5 6.5t-2.5 9.5l-3 7.5t-4 6.5l-8 11q-3 3 -7 5l-8 4q-4 1 -7 2t-8 3q-5 1 -9 1h-7q-10 0 -15 -5q-4 0 -7.5 -1 t-7.5 -4l-11 -10q-4 -8 -11 -11q-2 -5 -3.5 -9t-1.5 -7v-19zM685 124q-3 5 0 14q0 6 5 12l6 9l13 5h12l12 -5l9 -9q2 -3 4 -5.5t2 -6.5q2 -9 0 -14q0 -3 -2 -6.5t-4 -5.5q-3 -4 -4.5 -6.5t-4.5 -4.5q-4 -1 -6.5 -2t-5.5 -1q-7 -3 -12 0q-3 0 -7 1t-6 2l-8 11q-2 2 -2.5 5.5 t-0.5 6.5zM736 1445l21 2l10 -100l52 5v-21l-70 -9zM784 178l3 -122l28 1v81l52 -81h26v121h-31l4 -77q-1 0 -1 4q0 1 -1.5 1t-1.5 2q0 4 -1 4l-42 61q0 1 -3 2q-1 3 -8 3h-9h-15zM865 1331l13 121l45 -5q6 0 14 -4q9 -5 11 -10q4 -3 6 -14q4 -7 3 -15q-3 -3 -3 -6.5 t-2 -8.5l-9 -12q-4 -4 -14 -7q-3 -2 -14 -2l-25 4l-5 -45zM891 1391l25 -2h8q3 0 7 5q3 0 3 5q2 2 4 8q0 5 -1 7l-2 4l-1 1q-2 3 -3.5 4t-2.5 1q-2 2 -3.5 2t-2.5 1l-26 3zM903 179l4 -26l35 6l16 -91l27 5l-16 91l31 6l-5 26zM954 1321l31 116l45 -13q6 0 11 -5t11 -10 q4 -5 4 -13q1 -5 0.5 -9t-0.5 -7q-2 -5 -5 -10q-4 -5 -7 -7q-8 -5 -10 -5q-3 -2 -5.5 -2.5t-3.5 -2.5l22 -58l-16 1q-1 2 -3 4t-3 2q-4 2 -5 9l-20 47l-15 4l-11 -46zM990 1380l26 -7h3h2q3 0 4 1t4 1q2 0 2 1v2q5 5 5 7v8v3t-1 3q-1 2 -2.5 2.5t-1.5 2.5q-3 3 -6 3l-25 5z M1011 176q0 -3 3 -7q2 -9 10 -14q1 0 3.5 -1.5t3.5 -3.5q4 0 7 -1.5t6 -1.5h13h10h2q2 0 3 -3q4 0 4 -1h3v-5q0 -2 -1 -3t-1 -2v-1q-1 0 -2 -2.5t-3 -2.5q-1 -3 -5 -3h-3h-2h-3.5h-2.5h-6h-9l-5 -1v-2t-1 -2l-5 -7q1 -4 3 -6.5t3 -4.5q4 -1 7.5 -2t7.5 -1q8 -3 11 -2 q4 0 8 1t7 1l7 3.5l9 4.5q4 4 5.5 6t4.5 7q0 5 2.5 7.5t2.5 7.5t-0.5 8.5t-4.5 7.5q0 8 -5 10q-1 7 -8 9l-13 5h-15h-6h-9h-3v1q-3 3 -3 4l-2 1q2 0 2 4v1h3h6v4h1h5h3q3 0 3 1h9q0 3 1 4v2l5 10l-6 4q-9 4 -12 4q-2 0 -4.5 1t-4.5 1q-4 0 -6.5 -1t-4.5 -1l-13 -8 q-2 -1 -4 -3.5t-3 -6.5q-8 -6 -8 -16v-4zM1056 1319v12q0 12 6 22q0 5 2.5 8.5t6.5 6.5q1 3 4.5 5.5t6.5 4.5q3 3 7 4t9 3q4 3 14 4h15q9 -1 17 -7q8 -4 15 -9q3 -3 5.5 -6.5t4.5 -4.5q2 -4 4 -7t4 -7q1 -5 2 -8.5t1 -7.5v-8t-2 -8q-1 -4 -2 -7.5t-4 -8.5q-3 -4 -4 -7t-4 -7 q-3 -3 -6.5 -5t-4.5 -6q-4 -2 -7 -4t-7 -5q-6 0 -17 -1q-12 0 -17 1q-5 0 -15 5q-12 5 -19 15q-9 9 -14 21q-1 7 -1 12zM1074 1324q0 -2 1 -5t2 -5q0 -7 4 -10q1 -2 3 -5t3 -3q4 -5 11 -6q7 -4 10 -4h12h13q4 5 8 5q3 2 5 3.5t3 3.5q3 3 4 6t3 5q2 3 2.5 7.5t0.5 9.5v7.5 v7.5q-2 4 -4.5 8t-5.5 6q-6 7 -13 10q-2 2 -5.5 2.5t-7.5 0.5h-10q-6 0 -10 -1q-3 -2 -5 -3t-5 -1q-1 -2 -3.5 -4t-3.5 -4l-7 -8q-2 -4 -2.5 -7t-2.5 -6v-10zM1122 143q0 -4 1 -4v-1q0 -6 4 -6q1 -5 7 -5h7q5 0 7 2q1 2 3 2.5t2 2.5v2q0 2 1 2l4 3v2q0 6 -5 7l-4 5 q-1 4 -3 4t-3.5 0.5t-3.5 0.5q-1 -1 -6 -1l-8 -4q-2 -1 -2 -3v-2q-1 -2 -1 -6v-1zM1134 221q0 -5 2 -7.5t2 -7.5l6 -16q3 -3 6 -5t4 -5l15 -10l13 -2q5 -3 16 -3q4 0 7 1.5t7 2.5q5 1 9 3.5t7 5.5l5 2.5t5 4.5q3 0 5 4t5 7l3 14q5 4 5 13l-12 2h-6l-7 -4q-2 0 -3.5 -2.5 t-1.5 -4.5l-5 -9l-9 -6q-4 -3 -6 -4t-6 -1q-6 -3 -12 0q-3 2 -5.5 2t-5.5 3q-7 4 -8 11q-5 1 -5 11q-5 3 0 15v3.5t2 7.5q2 2 4 3.5t5 3.5q8 3 10 3q3 2 10 2q2 0 10 3q2 4 5 5l2 7v9q-3 5 -12 5h-13l-15 -5l-11 -5q-2 -2 -5.5 -5t-6.5 -7q-2 -2 -4 -5.5t-4 -8.5l-7 -15v-16 zM1210 1194l41 127l11 -9q0 -1 1.5 -3t3.5 -3q0 -5 -2 -10l-29 -87l85 39q1 1 7 1q5 0 7 -4l11 -7l-120 -55zM1221 292q0 -4 3 -9l4 -14l10 -12l13 -10q5 -1 8 -3.5t8 -2.5t8.5 -2t6.5 -2t6.5 2t8.5 2q3 0 7 2.5t8 3.5q6 3 13 10l10 12q1 2 3 5.5t2 8.5q1 5 1 15v15l-6 14 q-2 4 -3 7l-5 7l-14 13l-16 3q-3 2 -15 2h-6.5t-8.5 -2l-13 -3q-4 -3 -8.5 -6.5t-6.5 -6.5q-3 -3 -4.5 -6t-3.5 -6q-3 -3 -4 -7t-3 -9q0 -3 -1.5 -6.5t-1.5 -8.5v-6zM1251 288v10v12q4 8 9 13l11 8q3 0 6 0.5t5 0.5q5 0 13 -3q2 -1 5 -3t6 -5q2 -2 4 -5t3 -6q3 -3 3 -12 q0 -2 -1 -4l-2 -7q-3 -9 -7 -11q-8 -7 -11 -9q-3 -1 -6.5 -1h-6.5t-6.5 0.5t-4.5 0.5l-11 9q-4 4 -9 12zM1262 1147l92 78l50 -58l-14 -14l-38 45l-24 -19l30 -37l-17 -12l-28 36l-24 -21l36 -43l-15 -12zM1282 380l99 -67l17 24l-47 33l61 -13l11 21l-33 51l48 -31l15 25 l-100 64l-13 -16q-2 -2 -3 -4t-1 -6q0 -2 1 -4t3 -5l41 -59l-70 10h-11l-9 -6zM1316 1080l103 63l24 -38q2 -3 2.5 -6t2.5 -8q2 -7 -2 -13q-2 -9 -5 -13l-4.5 -4.5t-6.5 -5.5l-6 -1.5t-5 -2.5q-4 0 -5.5 -0.5t-4.5 0.5q-4 0 -10 3q-4 1 -5.5 1.5t-3.5 3.5l-24 -61l-9 14 q-4 2 -4 7q0 6 3 9l20 48l-8 14l-43 -26zM1369 984q0 4 3 14q0 3 2 6l3 4q0 4 2 4q4 2 3 2l4 -2q3 -5 6 -7q0 -1 0.5 -2.5t0.5 -3.5q0 -3 -3 -6v-1v-8q0 -5 2 -8q0 -2 1 -3t2 -4q2 0 3.5 -1.5l3.5 -3.5h2t4 -2h4.5t4.5 2q2 0 5 3q2 4 2 5q1 2 1 7v8v4v13q0 8 2 13 q1 2 2.5 4.5t4.5 5.5q2 2 4.5 3.5t6.5 3.5q8 3 14 1q6 0 12 -3q3 -2 7 -3.5t6 -5.5q3 -3 6 -11q2 -7 2 -11q0 -7 -1 -10q0 -4 -4 -10v-4.5t-2 -3.5l-6 4q-3 1 -4 2.5t-4 3.5q-1 3 -1 5v4q1 1 1 7q0 4 -1 6q-2 3 -2 7q-3 0 -5 3q-2 2 -5 2q-3 1 -5 0l-2.5 -2.5l-1.5 -1.5 l-2 -2l-2 -2v-8v-10v-3v-2v-10q0 -2 -0.5 -4.5t-0.5 -4.5q-4 -14 -20 -22q-4 -2 -7.5 -3t-8.5 1q-6 0 -14 2q-4 3 -7.5 5t-5.5 6q-3 2 -5 6t-4 7q-3 10 -3 15zM1384 1099l14 -20q2 -5 4 -6q1 0 6 -3h6q1 0 5 3q1 0 6 3q0 3 1 4t1 3q1 1 1 7q-1 1 -1 2.5t-2 3.5l-11 19z M1392 921l115 34l5 -19l-115 -34zM1409 833q-1 13 1 23q5 13 10 21q7 10 19 17q5 3 11 5.5t11 2.5h20q6 0 14 -5q4 0 7.5 -2.5t4.5 -4.5q4 -3 7.5 -5.5t6.5 -5.5q4 -8 7 -13q3 -8 5 -18v-15q-2 -10 -5 -16q-1 -5 -3 -8.5t-4 -6.5l-11 -10q-4 -4 -7.5 -6t-6.5 -3 q-7 -4 -15 -4q-10 -1 -20 0q-8 0 -15 4q-2 1 -6 2.5t-7 4.5t-6 6.5t-5 5.5q-7 5 -8 15q-2 3 -3.5 6.5t-1.5 9.5zM1410 660l2 17l98 61l-93 5l1 21l120 -10v-12q0 -5 -1 -9q-4 -2 -4 -5l-83 -51l83 -6l-1 -20zM1428 836q2 -8 5 -12q0 -6 5 -9q1 -3 3 -5t3 -5q2 0 4.5 -1.5 t5.5 -3.5q2 -1 4.5 -1h5.5q5 -4 12 0q11 0 16 5q5 1 13 11q6 8 6 15q3 7 1 16q0 7 -2 10q-3 4 -3.5 6t-1.5 4q-3 2 -4.5 3.5l-3.5 3.5l-10 6q-3 3 -11 3q-5 3 -12 0q-8 0 -10 -3q-5 -2 -10 -6q-4 -2 -6 -7q-5 -5 -5 -10q-2 -1 -2.5 -4t-2.5 -6v-10z" />
<glyph unicode="4" d="M140 712v6.5v4.5q3 9 3 14q2 3 3.5 5.5t4.5 6.5q2 2 3.5 5t3.5 5l3 -5q3 0 4 -1l1 -1q2 -3 2 -9v-3t-2 -3q-5 -5 -5 -11v-13t3 -18q2 -4 4.5 -7t5.5 -6q5 -5 14 -7q7 -4 18 -3q6 0 11 3q3 1 5 1.5t4 3.5q1 2 3.5 3t6.5 4q1 2 2.5 3.5t3.5 4.5q0 4 0.5 7t2.5 6q1 4 1 10 q-1 4 -2 7t-2 8q0 3 -5 10l-20 -1v-5v-5q0 -2 -2 -5q-1 -1 -2 -2.5t-2 -1.5q-2 -1 -6 -1h-6l-3 37l51 4q1 -2 3.5 -4t4.5 -5q2 -1 3.5 -4.5t1.5 -6.5q1 -6 3 -11q0 -4 1 -6.5t1 -4.5q0 -8 -1 -14.5t-3 -11.5q-1 -8 -4.5 -13t-6.5 -10q-7 -8 -20 -13q-11 -8 -23 -8h-18 q-4 3 -7.5 4t-7.5 4q-4 1 -6.5 3.5t-6.5 4.5q-2 3 -5 6t-5 7q-2 2 -4 5.5t-4 6.5l-2 10t-1 10zM140 786l8 77l20 -2l-7 -56l30 -5l6 48l20 -2l-5 -46l33 -3l5 58l20 -4l-9 -77zM151 877l22 92l18 -5l-10 -38l101 -24l-4 -18l-100 23l-10 -36zM191 1020l43 85l17 -8l-15 -33 l91 -46l-9 -19l-92 47l-16 -34zM220 440l46 -81l23 16l-26 46l85 -10h6q1 0 2 1t3 1l12 8l-46 79l-24 -15l27 -45l-85 10q-1 0 -5 -0.5t-8 -4.5zM245 1124l11 16l41 -30l36 48l-41 31l11 15l98 -71l-11 -17l-41 31l-36 -48l42 -31l-11 -15zM286 334l52 -60l19 19l-32 38 l17 11l24 -32l22 19l-28 30l15 13l32 -40l20 17l-49 62zM313 752q0 -105 40.5 -200.5t111 -168t167.5 -115.5t210 -43q36 0 71.5 6t69.5 16q79 24 149.5 69.5t123 111t82.5 147t30 177.5q0 103 -39.5 198.5t-109.5 169t-167 117.5t-210 44q-108 0 -203 -41t-167.5 -111.5 t-115.5 -167.5t-43 -209zM327 1230l54 54l14 -15l-40 -40l21 -22l34 32l12 -14l-32 -31l22 -24l41 39l14 -15l-55 -52zM359 752q0 96 36 183.5t100.5 154.5t153 106t193.5 39q69 0 127 -16q73 -19 137.5 -61.5t113.5 -103t77 -137t28 -165.5q0 -100 -38 -189t-104 -155 t-154 -104t-187 -38q-102 0 -190.5 39t-154 105.5t-102 155t-36.5 186.5zM384 230l20 -19l62 72l22 -22l19 21l-71 60l-20 -21l26 -23zM406 752q0 -85 28.5 -159.5t79.5 -133.5l568 569h-578q-46 -56 -72 -125t-26 -151zM427 190l15 -10h2h3q3 0 4 -0.5t2 0.5h5h5l10 10 l41 -22l-2 -15v-6q0 -3 1 -3q0 -1 1 -1v-4q0 -1 2 -1l3 -4l18 -10l17 128l-23 14zM442 1327l65 41l9 -15l-48 -31l18 -27l40 26l11 -17l-40 -25l24 -44l-14 -10zM499 206l17 15h2h1v2v1h2q1 1 2 1l-4 -2v-2v-3l-1 -22zM526 1380l19 9l30 -68q0 -7 6 -10q2 -4 10 -7 q2 -2 5 -2h5q5 0 10 2q8 3 11 7q5 5 7 10q1 1 1 10q0 6 -1 11l-28 69l17 8l29 -69q2 -5 2.5 -9.5t0.5 -9.5q0 -10 -3 -19q-2 -5 -4.5 -8.5t-7.5 -7.5q-3 -5 -6 -6.5t-8 -3.5t-10 -3.5t-10 -1.5q-8 0 -18 5q-5 2 -9 3.5t-7 6.5q-7 7 -10 16zM549 1076h579q-56 51 -129 82 t-157 31q-85 0 -159.5 -30t-133.5 -83zM550 426q59 -49 133 -80t159 -31q84 0 158.5 31t133.5 80h-584zM554 119l27 -11l15 42l39 -16l10 26l-39 15l7 19l50 -19l8 26l-75 25zM600 474h578q46 56 71.5 127t25.5 151q0 82 -27 153.5t-84 142.5zM647 1426l21 6l23 -100l50 10 l3 -20l-66 -15zM654 124l3 -15l6 -13l12 -11q3 -4 7 -5.5t6 -3.5q7 -4 15 -4q5 -1 9 -1h7q5 0 14 2q4 2 8.5 3t7.5 4q6 2 11 10l9 11q4 7 6 18v15q0 3 -0.5 6.5t-2.5 9.5l-3 7.5t-4 6.5l-8 11q-3 3 -7 5l-8 4q-4 1 -7 2t-8 3q-5 1 -9 1h-7q-10 0 -15 -5q-4 0 -7.5 -1 t-7.5 -4l-11 -10q-4 -8 -11 -11q-2 -5 -3.5 -9t-1.5 -7v-19zM685 124q-3 5 0 14q0 6 5 12l6 9l13 5h12l12 -5l9 -9q2 -3 4 -5.5t2 -6.5q2 -9 0 -14q0 -3 -2 -6.5t-4 -5.5q-3 -4 -4.5 -6.5t-4.5 -4.5q-4 -1 -6.5 -2t-5.5 -1q-7 -3 -12 0q-3 0 -7 1t-6 2l-8 11q-2 2 -2.5 5.5 t-0.5 6.5zM736 1445l21 2l10 -100l52 5v-21l-70 -9zM784 178l3 -122l28 1v81l52 -81h26v121h-31l4 -77q-1 0 -1 4q0 1 -1.5 1t-1.5 2q0 4 -1 4l-42 61q0 1 -3 2q-1 3 -8 3h-9h-15zM865 1331l13 121l45 -5q6 0 14 -4q9 -5 11 -10q4 -3 6 -14q4 -7 3 -15q-3 -3 -3 -6.5 t-2 -8.5l-9 -12q-4 -4 -14 -7q-3 -2 -14 -2l-25 4l-5 -45zM891 1391l25 -2h8q3 0 7 5q3 0 3 5q2 2 4 8q0 5 -1 7l-2 4l-1 1q-2 3 -3.5 4t-2.5 1q-2 2 -3.5 2t-2.5 1l-26 3zM903 179l4 -26l35 6l16 -91l27 5l-16 91l31 6l-5 26zM954 1321l31 116l45 -13q6 0 11 -5t11 -10 q4 -5 4 -13q1 -5 0.5 -9t-0.5 -7q-2 -5 -5 -10q-4 -5 -7 -7q-8 -5 -10 -5q-3 -2 -5.5 -2.5t-3.5 -2.5l22 -58l-16 1q-1 2 -3 4t-3 2q-4 2 -5 9l-20 47l-15 4l-11 -46zM990 1380l26 -7h3h2q3 0 4 1t4 1q2 0 2 1v2q5 5 5 7v8v3t-1 3q-1 2 -2.5 2.5t-1.5 2.5q-3 3 -6 3l-25 5z M1011 176q0 -3 3 -7q2 -9 10 -14q1 0 3.5 -1.5t3.5 -3.5q4 0 7 -1.5t6 -1.5h13h10h2q2 0 3 -3q4 0 4 -1h3v-5q0 -2 -1 -3t-1 -2v-1q-1 0 -2 -2.5t-3 -2.5q-1 -3 -5 -3h-3h-2h-3.5h-2.5h-6h-9l-5 -1v-2t-1 -2l-5 -7q1 -4 3 -6.5t3 -4.5q4 -1 7.5 -2t7.5 -1q8 -3 11 -2 q4 0 8 1t7 1l7 3.5l9 4.5q4 4 5.5 6t4.5 7q0 5 2.5 7.5t2.5 7.5t-0.5 8.5t-4.5 7.5q0 8 -5 10q-1 7 -8 9l-13 5h-15h-6h-9h-3v1q-3 3 -3 4l-2 1q2 0 2 4v1h3h6v4h1h5h3q3 0 3 1h9q0 3 1 4v2l5 10l-6 4q-9 4 -12 4q-2 0 -4.5 1t-4.5 1q-4 0 -6.5 -1t-4.5 -1l-13 -8 q-2 -1 -4 -3.5t-3 -6.5q-8 -6 -8 -16v-4zM1056 1319v12q0 12 6 22q0 5 2.5 8.5t6.5 6.5q1 3 4.5 5.5t6.5 4.5q3 3 7 4t9 3q4 3 14 4h15q9 -1 17 -7q8 -4 15 -9q3 -3 5.5 -6.5t4.5 -4.5q2 -4 4 -7t4 -7q1 -5 2 -8.5t1 -7.5v-8t-2 -8q-1 -4 -2 -7.5t-4 -8.5q-3 -4 -4 -7t-4 -7 q-3 -3 -6.5 -5t-4.5 -6q-4 -2 -7 -4t-7 -5q-6 0 -17 -1q-12 0 -17 1q-5 0 -15 5q-12 5 -19 15q-9 9 -14 21q-1 7 -1 12zM1074 1324q0 -2 1 -5t2 -5q0 -7 4 -10q1 -2 3 -5t3 -3q4 -5 11 -6q7 -4 10 -4h12h13q4 5 8 5q3 2 5 3.5t3 3.5q3 3 4 6t3 5q2 3 2.5 7.5t0.5 9.5v7.5 v7.5q-2 4 -4.5 8t-5.5 6q-6 7 -13 10q-2 2 -5.5 2.5t-7.5 0.5h-10q-6 0 -10 -1q-3 -2 -5 -3t-5 -1q-1 -2 -3.5 -4t-3.5 -4l-7 -8q-2 -4 -2.5 -7t-2.5 -6v-10zM1122 143q0 -4 1 -4v-1q0 -6 4 -6q1 -5 7 -5h7q5 0 7 2q1 2 3 2.5t2 2.5v2q0 2 1 2l4 3v2q0 6 -5 7l-4 5 q-1 4 -3 4t-3.5 0.5t-3.5 0.5q-1 -1 -6 -1l-8 -4q-2 -1 -2 -3v-2q-1 -2 -1 -6v-1zM1134 221q0 -5 2 -7.5t2 -7.5l6 -16q3 -3 6 -5t4 -5l15 -10l13 -2q5 -3 16 -3q4 0 7 1.5t7 2.5q5 1 9 3.5t7 5.5l5 2.5t5 4.5q3 0 5 4t5 7l3 14q5 4 5 13l-12 2h-6l-7 -4q-2 0 -3.5 -2.5 t-1.5 -4.5l-5 -9l-9 -6q-4 -3 -6 -4t-6 -1q-6 -3 -12 0q-3 2 -5.5 2t-5.5 3q-7 4 -8 11q-5 1 -5 11q-5 3 0 15v3.5t2 7.5q2 2 4 3.5t5 3.5q8 3 10 3q3 2 10 2q2 0 10 3q2 4 5 5l2 7v9q-3 5 -12 5h-13l-15 -5l-11 -5q-2 -2 -5.5 -5t-6.5 -7q-2 -2 -4 -5.5t-4 -8.5l-7 -15v-16 zM1210 1194l41 127l11 -9q0 -1 1.5 -3t3.5 -3q0 -5 -2 -10l-29 -87l85 39q1 1 7 1q5 0 7 -4l11 -7l-120 -55zM1221 292q0 -4 3 -9l4 -14l10 -12l13 -10q5 -1 8 -3.5t8 -2.5t8.5 -2t6.5 -2t6.5 2t8.5 2q3 0 7 2.5t8 3.5q6 3 13 10l10 12q1 2 3 5.5t2 8.5q1 5 1 15v15l-6 14 q-2 4 -3 7l-5 7l-14 13l-16 3q-3 2 -15 2h-6.5t-8.5 -2l-13 -3q-4 -3 -8.5 -6.5t-6.5 -6.5q-3 -3 -4.5 -6t-3.5 -6q-3 -3 -4 -7t-3 -9q0 -3 -1.5 -6.5t-1.5 -8.5v-6zM1251 288v10v12q4 8 9 13l11 8q3 0 6 0.5t5 0.5q5 0 13 -3q2 -1 5 -3t6 -5q2 -2 4 -5t3 -6q3 -3 3 -12 q0 -2 -1 -4l-2 -7q-3 -9 -7 -11q-8 -7 -11 -9q-3 -1 -6.5 -1h-6.5t-6.5 0.5t-4.5 0.5l-11 9q-4 4 -9 12zM1262 1147l92 78l50 -58l-14 -14l-38 45l-24 -19l30 -37l-17 -12l-28 36l-24 -21l36 -43l-15 -12zM1282 380l99 -67l17 24l-47 33l61 -13l11 21l-33 51l48 -31l15 25 l-100 64l-13 -16q-2 -2 -3 -4t-1 -6q0 -2 1 -4t3 -5l41 -59l-70 10h-11l-9 -6zM1316 1080l103 63l24 -38q2 -3 2.5 -6t2.5 -8q2 -7 -2 -13q-2 -9 -5 -13l-4.5 -4.5t-6.5 -5.5l-6 -1.5t-5 -2.5q-4 0 -5.5 -0.5t-4.5 0.5q-4 0 -10 3q-4 1 -5.5 1.5t-3.5 3.5l-24 -61l-9 14 q-4 2 -4 7q0 6 3 9l20 48l-8 14l-43 -26zM1369 984q0 4 3 14q0 3 2 6l3 4q0 4 2 4q4 2 3 2l4 -2q3 -5 6 -7q0 -1 0.5 -2.5t0.5 -3.5q0 -3 -3 -6v-1v-8q0 -5 2 -8q0 -2 1 -3t2 -4q2 0 3.5 -1.5l3.5 -3.5h2t4 -2h4.5t4.5 2q2 0 5 3q2 4 2 5q1 2 1 7v8v4v13q0 8 2 13 q1 2 2.5 4.5t4.5 5.5q2 2 4.5 3.5t6.5 3.5q8 3 14 1q6 0 12 -3q3 -2 7 -3.5t6 -5.5q3 -3 6 -11q2 -7 2 -11q0 -7 -1 -10q0 -4 -4 -10v-4.5t-2 -3.5l-6 4q-3 1 -4 2.5t-4 3.5q-1 3 -1 5v4q1 1 1 7q0 4 -1 6q-2 3 -2 7q-3 0 -5 3q-2 2 -5 2q-3 1 -5 0l-2.5 -2.5l-1.5 -1.5 l-2 -2l-2 -2v-8v-10v-3v-2v-10q0 -2 -0.5 -4.5t-0.5 -4.5q-4 -14 -20 -22q-4 -2 -7.5 -3t-8.5 1q-6 0 -14 2q-4 3 -7.5 5t-5.5 6q-3 2 -5 6t-4 7q-3 10 -3 15zM1384 1099l14 -20q2 -5 4 -6q1 0 6 -3h6q1 0 5 3q1 0 6 3q0 3 1 4t1 3q1 1 1 7q-1 1 -1 2.5t-2 3.5l-11 19z M1392 921l115 34l5 -19l-115 -34zM1409 833q-1 13 1 23q5 13 10 21q7 10 19 17q5 3 11 5.5t11 2.5h20q6 0 14 -5q4 0 7.5 -2.5t4.5 -4.5q4 -3 7.5 -5.5t6.5 -5.5q4 -8 7 -13q3 -8 5 -18v-15q-2 -10 -5 -16q-1 -5 -3 -8.5t-4 -6.5l-11 -10q-4 -4 -7.5 -6t-6.5 -3 q-7 -4 -15 -4q-10 -1 -20 0q-8 0 -15 4q-2 1 -6 2.5t-7 4.5t-6 6.5t-5 5.5q-7 5 -8 15q-2 3 -3.5 6.5t-1.5 9.5zM1410 660l2 17l98 61l-93 5l1 21l120 -10v-12q0 -5 -1 -9q-4 -2 -4 -5l-83 -51l83 -6l-1 -20zM1428 836q2 -8 5 -12q0 -6 5 -9q1 -3 3 -5t3 -5q2 0 4.5 -1.5 t5.5 -3.5q2 -1 4.5 -1h5.5q5 -4 12 0q11 0 16 5q5 1 13 11q6 8 6 15q3 7 1 16q0 7 -2 10q-3 4 -3.5 6t-1.5 4q-3 2 -4.5 3.5l-3.5 3.5l-10 6q-3 3 -11 3q-5 3 -12 0q-8 0 -10 -3q-5 -2 -10 -6q-4 -2 -6 -7q-5 -5 -5 -10q-2 -1 -2.5 -4t-2.5 -6v-10z" />
<glyph unicode="5" d="M140 712v6.5v4.5q3 9 3 14q2 3 3.5 5.5t4.5 6.5q2 2 3.5 5t3.5 5l3 -5q3 0 4 -1l1 -1q2 -3 2 -9v-3t-2 -3q-5 -5 -5 -11v-13t3 -18q2 -4 4.5 -7t5.5 -6q5 -5 14 -7q7 -4 18 -3q6 0 11 3q3 1 5 1.5t4 3.5q1 2 3.5 3t6.5 4q1 2 2.5 3.5t3.5 4.5q0 4 0.5 7t2.5 6q1 4 1 10 q-1 4 -2 7t-2 8q0 3 -5 10l-20 -1v-5v-5q0 -2 -2 -5q-1 -1 -2 -2.5t-2 -1.5q-2 -1 -6 -1h-6l-3 37l51 4q1 -2 3.5 -4t4.5 -5q2 -1 3.5 -4.5t1.5 -6.5q1 -6 3 -11q0 -4 1 -6.5t1 -4.5q0 -8 -1 -14.5t-3 -11.5q-1 -8 -4.5 -13t-6.5 -10q-7 -8 -20 -13q-11 -8 -23 -8h-18 q-4 3 -7.5 4t-7.5 4q-4 1 -6.5 3.5t-6.5 4.5q-2 3 -5 6t-5 7q-2 2 -4 5.5t-4 6.5l-2 10t-1 10zM140 786l8 77l20 -2l-7 -56l30 -5l6 48l20 -2l-5 -46l33 -3l5 58l20 -4l-9 -77zM151 877l22 92l18 -5l-10 -38l101 -24l-4 -18l-100 23l-10 -36zM191 1020l43 85l17 -8l-15 -33 l91 -46l-9 -19l-92 47l-16 -34zM220 440l46 -81l23 16l-26 46l85 -10h6q1 0 2 1t3 1l12 8l-46 79l-24 -15l27 -45l-85 10q-1 0 -5 -0.5t-8 -4.5zM245 1124l11 16l41 -30l36 48l-41 31l11 15l98 -71l-11 -17l-41 31l-36 -48l42 -31l-11 -15zM286 334l52 -60l19 19l-32 38 l17 11l24 -32l22 19l-28 30l15 13l32 -40l20 17l-49 62zM313 752q0 -105 40.5 -200.5t111 -168t167.5 -115.5t210 -43q36 0 71.5 6t69.5 16q79 24 149.5 69.5t123 111t82.5 147t30 177.5q0 103 -39.5 198.5t-109.5 169t-167 117.5t-210 44q-108 0 -203 -41t-167.5 -111.5 t-115.5 -167.5t-43 -209zM327 1230l54 54l14 -15l-40 -40l21 -22l34 32l12 -14l-32 -31l22 -24l41 39l14 -15l-55 -52zM359 752q0 96 36 183.5t100.5 154.5t153 106t193.5 39q69 0 127 -16q73 -19 137.5 -61.5t113.5 -103t77 -137t28 -165.5q0 -100 -38 -189t-104 -155 t-154 -104t-187 -38q-102 0 -190.5 39t-154 105.5t-102 155t-36.5 186.5zM384 230l20 -19l62 72l22 -22l19 21l-71 60l-20 -21l26 -23zM406 752q0 -85 28.5 -159.5t79.5 -133.5l568 569h-578q-46 -56 -72 -125t-26 -151zM427 190l15 -10h2h3q3 0 4 -0.5t2 0.5h5h5l10 10 l41 -22l-2 -15v-6q0 -3 1 -3q0 -1 1 -1v-4q0 -1 2 -1l3 -4l18 -10l17 128l-23 14zM442 1327l65 41l9 -15l-48 -31l18 -27l40 26l11 -17l-40 -25l24 -44l-14 -10zM499 206l17 15h2h1v2v1h2q1 1 2 1l-4 -2v-2v-3l-1 -22zM526 1380l19 9l30 -68q0 -7 6 -10q2 -4 10 -7 q2 -2 5 -2h5q5 0 10 2q8 3 11 7q5 5 7 10q1 1 1 10q0 6 -1 11l-28 69l17 8l29 -69q2 -5 2.5 -9.5t0.5 -9.5q0 -10 -3 -19q-2 -5 -4.5 -8.5t-7.5 -7.5q-3 -5 -6 -6.5t-8 -3.5t-10 -3.5t-10 -1.5q-8 0 -18 5q-5 2 -9 3.5t-7 6.5q-7 7 -10 16zM549 1076h579q-56 51 -129 82 t-157 31q-85 0 -159.5 -30t-133.5 -83zM550 426q59 -49 133 -80t159 -31q84 0 158.5 31t133.5 80h-584zM554 119l27 -11l15 42l39 -16l10 26l-39 15l7 19l50 -19l8 26l-75 25zM600 474h578q46 56 71.5 127t25.5 151q0 82 -27 153.5t-84 142.5zM647 1426l21 6l23 -100l50 10 l3 -20l-66 -15zM654 124l3 -15l6 -13l12 -11q3 -4 7 -5.5t6 -3.5q7 -4 15 -4q5 -1 9 -1h7q5 0 14 2q4 2 8.5 3t7.5 4q6 2 11 10l9 11q4 7 6 18v15q0 3 -0.5 6.5t-2.5 9.5l-3 7.5t-4 6.5l-8 11q-3 3 -7 5l-8 4q-4 1 -7 2t-8 3q-5 1 -9 1h-7q-10 0 -15 -5q-4 0 -7.5 -1 t-7.5 -4l-11 -10q-4 -8 -11 -11q-2 -5 -3.5 -9t-1.5 -7v-19zM685 124q-3 5 0 14q0 6 5 12l6 9l13 5h12l12 -5l9 -9q2 -3 4 -5.5t2 -6.5q2 -9 0 -14q0 -3 -2 -6.5t-4 -5.5q-3 -4 -4.5 -6.5t-4.5 -4.5q-4 -1 -6.5 -2t-5.5 -1q-7 -3 -12 0q-3 0 -7 1t-6 2l-8 11q-2 2 -2.5 5.5 t-0.5 6.5zM736 1445l21 2l10 -100l52 5v-21l-70 -9zM784 178l3 -122l28 1v81l52 -81h26v121h-31l4 -77q-1 0 -1 4q0 1 -1.5 1t-1.5 2q0 4 -1 4l-42 61q0 1 -3 2q-1 3 -8 3h-9h-15zM865 1331l13 121l45 -5q6 0 14 -4q9 -5 11 -10q4 -3 6 -14q4 -7 3 -15q-3 -3 -3 -6.5 t-2 -8.5l-9 -12q-4 -4 -14 -7q-3 -2 -14 -2l-25 4l-5 -45zM891 1391l25 -2h8q3 0 7 5q3 0 3 5q2 2 4 8q0 5 -1 7l-2 4l-1 1q-2 3 -3.5 4t-2.5 1q-2 2 -3.5 2t-2.5 1l-26 3zM903 179l4 -26l35 6l16 -91l27 5l-16 91l31 6l-5 26zM954 1321l31 116l45 -13q6 0 11 -5t11 -10 q4 -5 4 -13q1 -5 0.5 -9t-0.5 -7q-2 -5 -5 -10q-4 -5 -7 -7q-8 -5 -10 -5q-3 -2 -5.5 -2.5t-3.5 -2.5l22 -58l-16 1q-1 2 -3 4t-3 2q-4 2 -5 9l-20 47l-15 4l-11 -46zM990 1380l26 -7h3h2q3 0 4 1t4 1q2 0 2 1v2q5 5 5 7v8v3t-1 3q-1 2 -2.5 2.5t-1.5 2.5q-3 3 -6 3l-25 5z M1011 176q0 -3 3 -7q2 -9 10 -14q1 0 3.5 -1.5t3.5 -3.5q4 0 7 -1.5t6 -1.5h13h10h2q2 0 3 -3q4 0 4 -1h3v-5q0 -2 -1 -3t-1 -2v-1q-1 0 -2 -2.5t-3 -2.5q-1 -3 -5 -3h-3h-2h-3.5h-2.5h-6h-9l-5 -1v-2t-1 -2l-5 -7q1 -4 3 -6.5t3 -4.5q4 -1 7.5 -2t7.5 -1q8 -3 11 -2 q4 0 8 1t7 1l7 3.5l9 4.5q4 4 5.5 6t4.5 7q0 5 2.5 7.5t2.5 7.5t-0.5 8.5t-4.5 7.5q0 8 -5 10q-1 7 -8 9l-13 5h-15h-6h-9h-3v1q-3 3 -3 4l-2 1q2 0 2 4v1h3h6v4h1h5h3q3 0 3 1h9q0 3 1 4v2l5 10l-6 4q-9 4 -12 4q-2 0 -4.5 1t-4.5 1q-4 0 -6.5 -1t-4.5 -1l-13 -8 q-2 -1 -4 -3.5t-3 -6.5q-8 -6 -8 -16v-4zM1056 1319v12q0 12 6 22q0 5 2.5 8.5t6.5 6.5q1 3 4.5 5.5t6.5 4.5q3 3 7 4t9 3q4 3 14 4h15q9 -1 17 -7q8 -4 15 -9q3 -3 5.5 -6.5t4.5 -4.5q2 -4 4 -7t4 -7q1 -5 2 -8.5t1 -7.5v-8t-2 -8q-1 -4 -2 -7.5t-4 -8.5q-3 -4 -4 -7t-4 -7 q-3 -3 -6.5 -5t-4.5 -6q-4 -2 -7 -4t-7 -5q-6 0 -17 -1q-12 0 -17 1q-5 0 -15 5q-12 5 -19 15q-9 9 -14 21q-1 7 -1 12zM1074 1324q0 -2 1 -5t2 -5q0 -7 4 -10q1 -2 3 -5t3 -3q4 -5 11 -6q7 -4 10 -4h12h13q4 5 8 5q3 2 5 3.5t3 3.5q3 3 4 6t3 5q2 3 2.5 7.5t0.5 9.5v7.5 v7.5q-2 4 -4.5 8t-5.5 6q-6 7 -13 10q-2 2 -5.5 2.5t-7.5 0.5h-10q-6 0 -10 -1q-3 -2 -5 -3t-5 -1q-1 -2 -3.5 -4t-3.5 -4l-7 -8q-2 -4 -2.5 -7t-2.5 -6v-10zM1122 143q0 -4 1 -4v-1q0 -6 4 -6q1 -5 7 -5h7q5 0 7 2q1 2 3 2.5t2 2.5v2q0 2 1 2l4 3v2q0 6 -5 7l-4 5 q-1 4 -3 4t-3.5 0.5t-3.5 0.5q-1 -1 -6 -1l-8 -4q-2 -1 -2 -3v-2q-1 -2 -1 -6v-1zM1134 221q0 -5 2 -7.5t2 -7.5l6 -16q3 -3 6 -5t4 -5l15 -10l13 -2q5 -3 16 -3q4 0 7 1.5t7 2.5q5 1 9 3.5t7 5.5l5 2.5t5 4.5q3 0 5 4t5 7l3 14q5 4 5 13l-12 2h-6l-7 -4q-2 0 -3.5 -2.5 t-1.5 -4.5l-5 -9l-9 -6q-4 -3 -6 -4t-6 -1q-6 -3 -12 0q-3 2 -5.5 2t-5.5 3q-7 4 -8 11q-5 1 -5 11q-5 3 0 15v3.5t2 7.5q2 2 4 3.5t5 3.5q8 3 10 3q3 2 10 2q2 0 10 3q2 4 5 5l2 7v9q-3 5 -12 5h-13l-15 -5l-11 -5q-2 -2 -5.5 -5t-6.5 -7q-2 -2 -4 -5.5t-4 -8.5l-7 -15v-16 zM1210 1194l41 127l11 -9q0 -1 1.5 -3t3.5 -3q0 -5 -2 -10l-29 -87l85 39q1 1 7 1q5 0 7 -4l11 -7l-120 -55zM1221 292q0 -4 3 -9l4 -14l10 -12l13 -10q5 -1 8 -3.5t8 -2.5t8.5 -2t6.5 -2t6.5 2t8.5 2q3 0 7 2.5t8 3.5q6 3 13 10l10 12q1 2 3 5.5t2 8.5q1 5 1 15v15l-6 14 q-2 4 -3 7l-5 7l-14 13l-16 3q-3 2 -15 2h-6.5t-8.5 -2l-13 -3q-4 -3 -8.5 -6.5t-6.5 -6.5q-3 -3 -4.5 -6t-3.5 -6q-3 -3 -4 -7t-3 -9q0 -3 -1.5 -6.5t-1.5 -8.5v-6zM1251 288v10v12q4 8 9 13l11 8q3 0 6 0.5t5 0.5q5 0 13 -3q2 -1 5 -3t6 -5q2 -2 4 -5t3 -6q3 -3 3 -12 q0 -2 -1 -4l-2 -7q-3 -9 -7 -11q-8 -7 -11 -9q-3 -1 -6.5 -1h-6.5t-6.5 0.5t-4.5 0.5l-11 9q-4 4 -9 12zM1262 1147l92 78l50 -58l-14 -14l-38 45l-24 -19l30 -37l-17 -12l-28 36l-24 -21l36 -43l-15 -12zM1282 380l99 -67l17 24l-47 33l61 -13l11 21l-33 51l48 -31l15 25 l-100 64l-13 -16q-2 -2 -3 -4t-1 -6q0 -2 1 -4t3 -5l41 -59l-70 10h-11l-9 -6zM1316 1080l103 63l24 -38q2 -3 2.5 -6t2.5 -8q2 -7 -2 -13q-2 -9 -5 -13l-4.5 -4.5t-6.5 -5.5l-6 -1.5t-5 -2.5q-4 0 -5.5 -0.5t-4.5 0.5q-4 0 -10 3q-4 1 -5.5 1.5t-3.5 3.5l-24 -61l-9 14 q-4 2 -4 7q0 6 3 9l20 48l-8 14l-43 -26zM1369 984q0 4 3 14q0 3 2 6l3 4q0 4 2 4q4 2 3 2l4 -2q3 -5 6 -7q0 -1 0.5 -2.5t0.5 -3.5q0 -3 -3 -6v-1v-8q0 -5 2 -8q0 -2 1 -3t2 -4q2 0 3.5 -1.5l3.5 -3.5h2t4 -2h4.5t4.5 2q2 0 5 3q2 4 2 5q1 2 1 7v8v4v13q0 8 2 13 q1 2 2.5 4.5t4.5 5.5q2 2 4.5 3.5t6.5 3.5q8 3 14 1q6 0 12 -3q3 -2 7 -3.5t6 -5.5q3 -3 6 -11q2 -7 2 -11q0 -7 -1 -10q0 -4 -4 -10v-4.5t-2 -3.5l-6 4q-3 1 -4 2.5t-4 3.5q-1 3 -1 5v4q1 1 1 7q0 4 -1 6q-2 3 -2 7q-3 0 -5 3q-2 2 -5 2q-3 1 -5 0l-2.5 -2.5l-1.5 -1.5 l-2 -2l-2 -2v-8v-10v-3v-2v-10q0 -2 -0.5 -4.5t-0.5 -4.5q-4 -14 -20 -22q-4 -2 -7.5 -3t-8.5 1q-6 0 -14 2q-4 3 -7.5 5t-5.5 6q-3 2 -5 6t-4 7q-3 10 -3 15zM1384 1099l14 -20q2 -5 4 -6q1 0 6 -3h6q1 0 5 3q1 0 6 3q0 3 1 4t1 3q1 1 1 7q-1 1 -1 2.5t-2 3.5l-11 19z M1392 921l115 34l5 -19l-115 -34zM1409 833q-1 13 1 23q5 13 10 21q7 10 19 17q5 3 11 5.5t11 2.5h20q6 0 14 -5q4 0 7.5 -2.5t4.5 -4.5q4 -3 7.5 -5.5t6.5 -5.5q4 -8 7 -13q3 -8 5 -18v-15q-2 -10 -5 -16q-1 -5 -3 -8.5t-4 -6.5l-11 -10q-4 -4 -7.5 -6t-6.5 -3 q-7 -4 -15 -4q-10 -1 -20 0q-8 0 -15 4q-2 1 -6 2.5t-7 4.5t-6 6.5t-5 5.5q-7 5 -8 15q-2 3 -3.5 6.5t-1.5 9.5zM1410 660l2 17l98 61l-93 5l1 21l120 -10v-12q0 -5 -1 -9q-4 -2 -4 -5l-83 -51l83 -6l-1 -20zM1428 836q2 -8 5 -12q0 -6 5 -9q1 -3 3 -5t3 -5q2 0 4.5 -1.5 t5.5 -3.5q2 -1 4.5 -1h5.5q5 -4 12 0q11 0 16 5q5 1 13 11q6 8 6 15q3 7 1 16q0 7 -2 10q-3 4 -3.5 6t-1.5 4q-3 2 -4.5 3.5l-3.5 3.5l-10 6q-3 3 -11 3q-5 3 -12 0q-8 0 -10 -3q-5 -2 -10 -6q-4 -2 -6 -7q-5 -5 -5 -10q-2 -1 -2.5 -4t-2.5 -6v-10z" />
<glyph unicode="6" d="M140 712v6.5v4.5q3 9 3 14q2 3 3.5 5.5t4.5 6.5q2 2 3.5 5t3.5 5l3 -5q3 0 4 -1l1 -1q2 -3 2 -9v-3t-2 -3q-5 -5 -5 -11v-13t3 -18q2 -4 4.5 -7t5.5 -6q5 -5 14 -7q7 -4 18 -3q6 0 11 3q3 1 5 1.5t4 3.5q1 2 3.5 3t6.5 4q1 2 2.5 3.5t3.5 4.5q0 4 0.5 7t2.5 6q1 4 1 10 q-1 4 -2 7t-2 8q0 3 -5 10l-20 -1v-5v-5q0 -2 -2 -5q-1 -1 -2 -2.5t-2 -1.5q-2 -1 -6 -1h-6l-3 37l51 4q1 -2 3.5 -4t4.5 -5q2 -1 3.5 -4.5t1.5 -6.5q1 -6 3 -11q0 -4 1 -6.5t1 -4.5q0 -8 -1 -14.5t-3 -11.5q-1 -8 -4.5 -13t-6.5 -10q-7 -8 -20 -13q-11 -8 -23 -8h-18 q-4 3 -7.5 4t-7.5 4q-4 1 -6.5 3.5t-6.5 4.5q-2 3 -5 6t-5 7q-2 2 -4 5.5t-4 6.5l-2 10t-1 10zM140 786l8 77l20 -2l-7 -56l30 -5l6 48l20 -2l-5 -46l33 -3l5 58l20 -4l-9 -77zM151 877l22 92l18 -5l-10 -38l101 -24l-4 -18l-100 23l-10 -36zM191 1020l43 85l17 -8l-15 -33 l91 -46l-9 -19l-92 47l-16 -34zM220 440l46 -81l23 16l-26 46l85 -10h6q1 0 2 1t3 1l12 8l-46 79l-24 -15l27 -45l-85 10q-1 0 -5 -0.5t-8 -4.5zM245 1124l11 16l41 -30l36 48l-41 31l11 15l98 -71l-11 -17l-41 31l-36 -48l42 -31l-11 -15zM286 334l52 -60l19 19l-32 38 l17 11l24 -32l22 19l-28 30l15 13l32 -40l20 17l-49 62zM313 752q0 -105 40.5 -200.5t111 -168t167.5 -115.5t210 -43q36 0 71.5 6t69.5 16q79 24 149.5 69.5t123 111t82.5 147t30 177.5q0 103 -39.5 198.5t-109.5 169t-167 117.5t-210 44q-108 0 -203 -41t-167.5 -111.5 t-115.5 -167.5t-43 -209zM327 1230l54 54l14 -15l-40 -40l21 -22l34 32l12 -14l-32 -31l22 -24l41 39l14 -15l-55 -52zM359 752q0 96 36 183.5t100.5 154.5t153 106t193.5 39q69 0 127 -16q73 -19 137.5 -61.5t113.5 -103t77 -137t28 -165.5q0 -100 -38 -189t-104 -155 t-154 -104t-187 -38q-102 0 -190.5 39t-154 105.5t-102 155t-36.5 186.5zM384 230l20 -19l62 72l22 -22l19 21l-71 60l-20 -21l26 -23zM406 752q0 -85 28.5 -159.5t79.5 -133.5l568 569h-578q-46 -56 -72 -125t-26 -151zM427 190l15 -10h2h3q3 0 4 -0.5t2 0.5h5h5l10 10 l41 -22l-2 -15v-6q0 -3 1 -3q0 -1 1 -1v-4q0 -1 2 -1l3 -4l18 -10l17 128l-23 14zM442 1327l65 41l9 -15l-48 -31l18 -27l40 26l11 -17l-40 -25l24 -44l-14 -10zM499 206l17 15h2h1v2v1h2q1 1 2 1l-4 -2v-2v-3l-1 -22zM526 1380l19 9l30 -68q0 -7 6 -10q2 -4 10 -7 q2 -2 5 -2h5q5 0 10 2q8 3 11 7q5 5 7 10q1 1 1 10q0 6 -1 11l-28 69l17 8l29 -69q2 -5 2.5 -9.5t0.5 -9.5q0 -10 -3 -19q-2 -5 -4.5 -8.5t-7.5 -7.5q-3 -5 -6 -6.5t-8 -3.5t-10 -3.5t-10 -1.5q-8 0 -18 5q-5 2 -9 3.5t-7 6.5q-7 7 -10 16zM549 1076h579q-56 51 -129 82 t-157 31q-85 0 -159.5 -30t-133.5 -83zM550 426q59 -49 133 -80t159 -31q84 0 158.5 31t133.5 80h-584zM554 119l27 -11l15 42l39 -16l10 26l-39 15l7 19l50 -19l8 26l-75 25zM600 474h578q46 56 71.5 127t25.5 151q0 82 -27 153.5t-84 142.5zM647 1426l21 6l23 -100l50 10 l3 -20l-66 -15zM654 124l3 -15l6 -13l12 -11q3 -4 7 -5.5t6 -3.5q7 -4 15 -4q5 -1 9 -1h7q5 0 14 2q4 2 8.5 3t7.5 4q6 2 11 10l9 11q4 7 6 18v15q0 3 -0.5 6.5t-2.5 9.5l-3 7.5t-4 6.5l-8 11q-3 3 -7 5l-8 4q-4 1 -7 2t-8 3q-5 1 -9 1h-7q-10 0 -15 -5q-4 0 -7.5 -1 t-7.5 -4l-11 -10q-4 -8 -11 -11q-2 -5 -3.5 -9t-1.5 -7v-19zM685 124q-3 5 0 14q0 6 5 12l6 9l13 5h12l12 -5l9 -9q2 -3 4 -5.5t2 -6.5q2 -9 0 -14q0 -3 -2 -6.5t-4 -5.5q-3 -4 -4.5 -6.5t-4.5 -4.5q-4 -1 -6.5 -2t-5.5 -1q-7 -3 -12 0q-3 0 -7 1t-6 2l-8 11q-2 2 -2.5 5.5 t-0.5 6.5zM736 1445l21 2l10 -100l52 5v-21l-70 -9zM784 178l3 -122l28 1v81l52 -81h26v121h-31l4 -77q-1 0 -1 4q0 1 -1.5 1t-1.5 2q0 4 -1 4l-42 61q0 1 -3 2q-1 3 -8 3h-9h-15zM865 1331l13 121l45 -5q6 0 14 -4q9 -5 11 -10q4 -3 6 -14q4 -7 3 -15q-3 -3 -3 -6.5 t-2 -8.5l-9 -12q-4 -4 -14 -7q-3 -2 -14 -2l-25 4l-5 -45zM891 1391l25 -2h8q3 0 7 5q3 0 3 5q2 2 4 8q0 5 -1 7l-2 4l-1 1q-2 3 -3.5 4t-2.5 1q-2 2 -3.5 2t-2.5 1l-26 3zM903 179l4 -26l35 6l16 -91l27 5l-16 91l31 6l-5 26zM954 1321l31 116l45 -13q6 0 11 -5t11 -10 q4 -5 4 -13q1 -5 0.5 -9t-0.5 -7q-2 -5 -5 -10q-4 -5 -7 -7q-8 -5 -10 -5q-3 -2 -5.5 -2.5t-3.5 -2.5l22 -58l-16 1q-1 2 -3 4t-3 2q-4 2 -5 9l-20 47l-15 4l-11 -46zM990 1380l26 -7h3h2q3 0 4 1t4 1q2 0 2 1v2q5 5 5 7v8v3t-1 3q-1 2 -2.5 2.5t-1.5 2.5q-3 3 -6 3l-25 5z M1011 176q0 -3 3 -7q2 -9 10 -14q1 0 3.5 -1.5t3.5 -3.5q4 0 7 -1.5t6 -1.5h13h10h2q2 0 3 -3q4 0 4 -1h3v-5q0 -2 -1 -3t-1 -2v-1q-1 0 -2 -2.5t-3 -2.5q-1 -3 -5 -3h-3h-2h-3.5h-2.5h-6h-9l-5 -1v-2t-1 -2l-5 -7q1 -4 3 -6.5t3 -4.5q4 -1 7.5 -2t7.5 -1q8 -3 11 -2 q4 0 8 1t7 1l7 3.5l9 4.5q4 4 5.5 6t4.5 7q0 5 2.5 7.5t2.5 7.5t-0.5 8.5t-4.5 7.5q0 8 -5 10q-1 7 -8 9l-13 5h-15h-6h-9h-3v1q-3 3 -3 4l-2 1q2 0 2 4v1h3h6v4h1h5h3q3 0 3 1h9q0 3 1 4v2l5 10l-6 4q-9 4 -12 4q-2 0 -4.5 1t-4.5 1q-4 0 -6.5 -1t-4.5 -1l-13 -8 q-2 -1 -4 -3.5t-3 -6.5q-8 -6 -8 -16v-4zM1056 1319v12q0 12 6 22q0 5 2.5 8.5t6.5 6.5q1 3 4.5 5.5t6.5 4.5q3 3 7 4t9 3q4 3 14 4h15q9 -1 17 -7q8 -4 15 -9q3 -3 5.5 -6.5t4.5 -4.5q2 -4 4 -7t4 -7q1 -5 2 -8.5t1 -7.5v-8t-2 -8q-1 -4 -2 -7.5t-4 -8.5q-3 -4 -4 -7t-4 -7 q-3 -3 -6.5 -5t-4.5 -6q-4 -2 -7 -4t-7 -5q-6 0 -17 -1q-12 0 -17 1q-5 0 -15 5q-12 5 -19 15q-9 9 -14 21q-1 7 -1 12zM1074 1324q0 -2 1 -5t2 -5q0 -7 4 -10q1 -2 3 -5t3 -3q4 -5 11 -6q7 -4 10 -4h12h13q4 5 8 5q3 2 5 3.5t3 3.5q3 3 4 6t3 5q2 3 2.5 7.5t0.5 9.5v7.5 v7.5q-2 4 -4.5 8t-5.5 6q-6 7 -13 10q-2 2 -5.5 2.5t-7.5 0.5h-10q-6 0 -10 -1q-3 -2 -5 -3t-5 -1q-1 -2 -3.5 -4t-3.5 -4l-7 -8q-2 -4 -2.5 -7t-2.5 -6v-10zM1122 143q0 -4 1 -4v-1q0 -6 4 -6q1 -5 7 -5h7q5 0 7 2q1 2 3 2.5t2 2.5v2q0 2 1 2l4 3v2q0 6 -5 7l-4 5 q-1 4 -3 4t-3.5 0.5t-3.5 0.5q-1 -1 -6 -1l-8 -4q-2 -1 -2 -3v-2q-1 -2 -1 -6v-1zM1134 221q0 -5 2 -7.5t2 -7.5l6 -16q3 -3 6 -5t4 -5l15 -10l13 -2q5 -3 16 -3q4 0 7 1.5t7 2.5q5 1 9 3.5t7 5.5l5 2.5t5 4.5q3 0 5 4t5 7l3 14q5 4 5 13l-12 2h-6l-7 -4q-2 0 -3.5 -2.5 t-1.5 -4.5l-5 -9l-9 -6q-4 -3 -6 -4t-6 -1q-6 -3 -12 0q-3 2 -5.5 2t-5.5 3q-7 4 -8 11q-5 1 -5 11q-5 3 0 15v3.5t2 7.5q2 2 4 3.5t5 3.5q8 3 10 3q3 2 10 2q2 0 10 3q2 4 5 5l2 7v9q-3 5 -12 5h-13l-15 -5l-11 -5q-2 -2 -5.5 -5t-6.5 -7q-2 -2 -4 -5.5t-4 -8.5l-7 -15v-16 zM1210 1194l41 127l11 -9q0 -1 1.5 -3t3.5 -3q0 -5 -2 -10l-29 -87l85 39q1 1 7 1q5 0 7 -4l11 -7l-120 -55zM1221 292q0 -4 3 -9l4 -14l10 -12l13 -10q5 -1 8 -3.5t8 -2.5t8.5 -2t6.5 -2t6.5 2t8.5 2q3 0 7 2.5t8 3.5q6 3 13 10l10 12q1 2 3 5.5t2 8.5q1 5 1 15v15l-6 14 q-2 4 -3 7l-5 7l-14 13l-16 3q-3 2 -15 2h-6.5t-8.5 -2l-13 -3q-4 -3 -8.5 -6.5t-6.5 -6.5q-3 -3 -4.5 -6t-3.5 -6q-3 -3 -4 -7t-3 -9q0 -3 -1.5 -6.5t-1.5 -8.5v-6zM1251 288v10v12q4 8 9 13l11 8q3 0 6 0.5t5 0.5q5 0 13 -3q2 -1 5 -3t6 -5q2 -2 4 -5t3 -6q3 -3 3 -12 q0 -2 -1 -4l-2 -7q-3 -9 -7 -11q-8 -7 -11 -9q-3 -1 -6.5 -1h-6.5t-6.5 0.5t-4.5 0.5l-11 9q-4 4 -9 12zM1262 1147l92 78l50 -58l-14 -14l-38 45l-24 -19l30 -37l-17 -12l-28 36l-24 -21l36 -43l-15 -12zM1282 380l99 -67l17 24l-47 33l61 -13l11 21l-33 51l48 -31l15 25 l-100 64l-13 -16q-2 -2 -3 -4t-1 -6q0 -2 1 -4t3 -5l41 -59l-70 10h-11l-9 -6zM1316 1080l103 63l24 -38q2 -3 2.5 -6t2.5 -8q2 -7 -2 -13q-2 -9 -5 -13l-4.5 -4.5t-6.5 -5.5l-6 -1.5t-5 -2.5q-4 0 -5.5 -0.5t-4.5 0.5q-4 0 -10 3q-4 1 -5.5 1.5t-3.5 3.5l-24 -61l-9 14 q-4 2 -4 7q0 6 3 9l20 48l-8 14l-43 -26zM1369 984q0 4 3 14q0 3 2 6l3 4q0 4 2 4q4 2 3 2l4 -2q3 -5 6 -7q0 -1 0.5 -2.5t0.5 -3.5q0 -3 -3 -6v-1v-8q0 -5 2 -8q0 -2 1 -3t2 -4q2 0 3.5 -1.5l3.5 -3.5h2t4 -2h4.5t4.5 2q2 0 5 3q2 4 2 5q1 2 1 7v8v4v13q0 8 2 13 q1 2 2.5 4.5t4.5 5.5q2 2 4.5 3.5t6.5 3.5q8 3 14 1q6 0 12 -3q3 -2 7 -3.5t6 -5.5q3 -3 6 -11q2 -7 2 -11q0 -7 -1 -10q0 -4 -4 -10v-4.5t-2 -3.5l-6 4q-3 1 -4 2.5t-4 3.5q-1 3 -1 5v4q1 1 1 7q0 4 -1 6q-2 3 -2 7q-3 0 -5 3q-2 2 -5 2q-3 1 -5 0l-2.5 -2.5l-1.5 -1.5 l-2 -2l-2 -2v-8v-10v-3v-2v-10q0 -2 -0.5 -4.5t-0.5 -4.5q-4 -14 -20 -22q-4 -2 -7.5 -3t-8.5 1q-6 0 -14 2q-4 3 -7.5 5t-5.5 6q-3 2 -5 6t-4 7q-3 10 -3 15zM1384 1099l14 -20q2 -5 4 -6q1 0 6 -3h6q1 0 5 3q1 0 6 3q0 3 1 4t1 3q1 1 1 7q-1 1 -1 2.5t-2 3.5l-11 19z M1392 921l115 34l5 -19l-115 -34zM1409 833q-1 13 1 23q5 13 10 21q7 10 19 17q5 3 11 5.5t11 2.5h20q6 0 14 -5q4 0 7.5 -2.5t4.5 -4.5q4 -3 7.5 -5.5t6.5 -5.5q4 -8 7 -13q3 -8 5 -18v-15q-2 -10 -5 -16q-1 -5 -3 -8.5t-4 -6.5l-11 -10q-4 -4 -7.5 -6t-6.5 -3 q-7 -4 -15 -4q-10 -1 -20 0q-8 0 -15 4q-2 1 -6 2.5t-7 4.5t-6 6.5t-5 5.5q-7 5 -8 15q-2 3 -3.5 6.5t-1.5 9.5zM1410 660l2 17l98 61l-93 5l1 21l120 -10v-12q0 -5 -1 -9q-4 -2 -4 -5l-83 -51l83 -6l-1 -20zM1428 836q2 -8 5 -12q0 -6 5 -9q1 -3 3 -5t3 -5q2 0 4.5 -1.5 t5.5 -3.5q2 -1 4.5 -1h5.5q5 -4 12 0q11 0 16 5q5 1 13 11q6 8 6 15q3 7 1 16q0 7 -2 10q-3 4 -3.5 6t-1.5 4q-3 2 -4.5 3.5l-3.5 3.5l-10 6q-3 3 -11 3q-5 3 -12 0q-8 0 -10 -3q-5 -2 -10 -6q-4 -2 -6 -7q-5 -5 -5 -10q-2 -1 -2.5 -4t-2.5 -6v-10z" />
<glyph unicode="7" d="M140 712v6.5v4.5q3 9 3 14q2 3 3.5 5.5t4.5 6.5q2 2 3.5 5t3.5 5l3 -5q3 0 4 -1l1 -1q2 -3 2 -9v-3t-2 -3q-5 -5 -5 -11v-13t3 -18q2 -4 4.5 -7t5.5 -6q5 -5 14 -7q7 -4 18 -3q6 0 11 3q3 1 5 1.5t4 3.5q1 2 3.5 3t6.5 4q1 2 2.5 3.5t3.5 4.5q0 4 0.5 7t2.5 6q1 4 1 10 q-1 4 -2 7t-2 8q0 3 -5 10l-20 -1v-5v-5q0 -2 -2 -5q-1 -1 -2 -2.5t-2 -1.5q-2 -1 -6 -1h-6l-3 37l51 4q1 -2 3.5 -4t4.5 -5q2 -1 3.5 -4.5t1.5 -6.5q1 -6 3 -11q0 -4 1 -6.5t1 -4.5q0 -8 -1 -14.5t-3 -11.5q-1 -8 -4.5 -13t-6.5 -10q-7 -8 -20 -13q-11 -8 -23 -8h-18 q-4 3 -7.5 4t-7.5 4q-4 1 -6.5 3.5t-6.5 4.5q-2 3 -5 6t-5 7q-2 2 -4 5.5t-4 6.5l-2 10t-1 10zM140 786l8 77l20 -2l-7 -56l30 -5l6 48l20 -2l-5 -46l33 -3l5 58l20 -4l-9 -77zM151 877l22 92l18 -5l-10 -38l101 -24l-4 -18l-100 23l-10 -36zM191 1020l43 85l17 -8l-15 -33 l91 -46l-9 -19l-92 47l-16 -34zM220 440l46 -81l23 16l-26 46l85 -10h6q1 0 2 1t3 1l12 8l-46 79l-24 -15l27 -45l-85 10q-1 0 -5 -0.5t-8 -4.5zM245 1124l11 16l41 -30l36 48l-41 31l11 15l98 -71l-11 -17l-41 31l-36 -48l42 -31l-11 -15zM286 334l52 -60l19 19l-32 38 l17 11l24 -32l22 19l-28 30l15 13l32 -40l20 17l-49 62zM313 752q0 -105 40.5 -200.5t111 -168t167.5 -115.5t210 -43q36 0 71.5 6t69.5 16q79 24 149.5 69.5t123 111t82.5 147t30 177.5q0 103 -39.5 198.5t-109.5 169t-167 117.5t-210 44q-108 0 -203 -41t-167.5 -111.5 t-115.5 -167.5t-43 -209zM327 1230l54 54l14 -15l-40 -40l21 -22l34 32l12 -14l-32 -31l22 -24l41 39l14 -15l-55 -52zM359 752q0 96 36 183.5t100.5 154.5t153 106t193.5 39q69 0 127 -16q73 -19 137.5 -61.5t113.5 -103t77 -137t28 -165.5q0 -100 -38 -189t-104 -155 t-154 -104t-187 -38q-102 0 -190.5 39t-154 105.5t-102 155t-36.5 186.5zM384 230l20 -19l62 72l22 -22l19 21l-71 60l-20 -21l26 -23zM406 752q0 -85 28.5 -159.5t79.5 -133.5l568 569h-578q-46 -56 -72 -125t-26 -151zM427 190l15 -10h2h3q3 0 4 -0.5t2 0.5h5h5l10 10 l41 -22l-2 -15v-6q0 -3 1 -3q0 -1 1 -1v-4q0 -1 2 -1l3 -4l18 -10l17 128l-23 14zM442 1327l65 41l9 -15l-48 -31l18 -27l40 26l11 -17l-40 -25l24 -44l-14 -10zM499 206l17 15h2h1v2v1h2q1 1 2 1l-4 -2v-2v-3l-1 -22zM526 1380l19 9l30 -68q0 -7 6 -10q2 -4 10 -7 q2 -2 5 -2h5q5 0 10 2q8 3 11 7q5 5 7 10q1 1 1 10q0 6 -1 11l-28 69l17 8l29 -69q2 -5 2.5 -9.5t0.5 -9.5q0 -10 -3 -19q-2 -5 -4.5 -8.5t-7.5 -7.5q-3 -5 -6 -6.5t-8 -3.5t-10 -3.5t-10 -1.5q-8 0 -18 5q-5 2 -9 3.5t-7 6.5q-7 7 -10 16zM549 1076h579q-56 51 -129 82 t-157 31q-85 0 -159.5 -30t-133.5 -83zM550 426q59 -49 133 -80t159 -31q84 0 158.5 31t133.5 80h-584zM554 119l27 -11l15 42l39 -16l10 26l-39 15l7 19l50 -19l8 26l-75 25zM600 474h578q46 56 71.5 127t25.5 151q0 82 -27 153.5t-84 142.5zM647 1426l21 6l23 -100l50 10 l3 -20l-66 -15zM654 124l3 -15l6 -13l12 -11q3 -4 7 -5.5t6 -3.5q7 -4 15 -4q5 -1 9 -1h7q5 0 14 2q4 2 8.5 3t7.5 4q6 2 11 10l9 11q4 7 6 18v15q0 3 -0.5 6.5t-2.5 9.5l-3 7.5t-4 6.5l-8 11q-3 3 -7 5l-8 4q-4 1 -7 2t-8 3q-5 1 -9 1h-7q-10 0 -15 -5q-4 0 -7.5 -1 t-7.5 -4l-11 -10q-4 -8 -11 -11q-2 -5 -3.5 -9t-1.5 -7v-19zM685 124q-3 5 0 14q0 6 5 12l6 9l13 5h12l12 -5l9 -9q2 -3 4 -5.5t2 -6.5q2 -9 0 -14q0 -3 -2 -6.5t-4 -5.5q-3 -4 -4.5 -6.5t-4.5 -4.5q-4 -1 -6.5 -2t-5.5 -1q-7 -3 -12 0q-3 0 -7 1t-6 2l-8 11q-2 2 -2.5 5.5 t-0.5 6.5zM736 1445l21 2l10 -100l52 5v-21l-70 -9zM784 178l3 -122l28 1v81l52 -81h26v121h-31l4 -77q-1 0 -1 4q0 1 -1.5 1t-1.5 2q0 4 -1 4l-42 61q0 1 -3 2q-1 3 -8 3h-9h-15zM865 1331l13 121l45 -5q6 0 14 -4q9 -5 11 -10q4 -3 6 -14q4 -7 3 -15q-3 -3 -3 -6.5 t-2 -8.5l-9 -12q-4 -4 -14 -7q-3 -2 -14 -2l-25 4l-5 -45zM891 1391l25 -2h8q3 0 7 5q3 0 3 5q2 2 4 8q0 5 -1 7l-2 4l-1 1q-2 3 -3.5 4t-2.5 1q-2 2 -3.5 2t-2.5 1l-26 3zM903 179l4 -26l35 6l16 -91l27 5l-16 91l31 6l-5 26zM954 1321l31 116l45 -13q6 0 11 -5t11 -10 q4 -5 4 -13q1 -5 0.5 -9t-0.5 -7q-2 -5 -5 -10q-4 -5 -7 -7q-8 -5 -10 -5q-3 -2 -5.5 -2.5t-3.5 -2.5l22 -58l-16 1q-1 2 -3 4t-3 2q-4 2 -5 9l-20 47l-15 4l-11 -46zM990 1380l26 -7h3h2q3 0 4 1t4 1q2 0 2 1v2q5 5 5 7v8v3t-1 3q-1 2 -2.5 2.5t-1.5 2.5q-3 3 -6 3l-25 5z M1011 176q0 -3 3 -7q2 -9 10 -14q1 0 3.5 -1.5t3.5 -3.5q4 0 7 -1.5t6 -1.5h13h10h2q2 0 3 -3q4 0 4 -1h3v-5q0 -2 -1 -3t-1 -2v-1q-1 0 -2 -2.5t-3 -2.5q-1 -3 -5 -3h-3h-2h-3.5h-2.5h-6h-9l-5 -1v-2t-1 -2l-5 -7q1 -4 3 -6.5t3 -4.5q4 -1 7.5 -2t7.5 -1q8 -3 11 -2 q4 0 8 1t7 1l7 3.5l9 4.5q4 4 5.5 6t4.5 7q0 5 2.5 7.5t2.5 7.5t-0.5 8.5t-4.5 7.5q0 8 -5 10q-1 7 -8 9l-13 5h-15h-6h-9h-3v1q-3 3 -3 4l-2 1q2 0 2 4v1h3h6v4h1h5h3q3 0 3 1h9q0 3 1 4v2l5 10l-6 4q-9 4 -12 4q-2 0 -4.5 1t-4.5 1q-4 0 -6.5 -1t-4.5 -1l-13 -8 q-2 -1 -4 -3.5t-3 -6.5q-8 -6 -8 -16v-4zM1056 1319v12q0 12 6 22q0 5 2.5 8.5t6.5 6.5q1 3 4.5 5.5t6.5 4.5q3 3 7 4t9 3q4 3 14 4h15q9 -1 17 -7q8 -4 15 -9q3 -3 5.5 -6.5t4.5 -4.5q2 -4 4 -7t4 -7q1 -5 2 -8.5t1 -7.5v-8t-2 -8q-1 -4 -2 -7.5t-4 -8.5q-3 -4 -4 -7t-4 -7 q-3 -3 -6.5 -5t-4.5 -6q-4 -2 -7 -4t-7 -5q-6 0 -17 -1q-12 0 -17 1q-5 0 -15 5q-12 5 -19 15q-9 9 -14 21q-1 7 -1 12zM1074 1324q0 -2 1 -5t2 -5q0 -7 4 -10q1 -2 3 -5t3 -3q4 -5 11 -6q7 -4 10 -4h12h13q4 5 8 5q3 2 5 3.5t3 3.5q3 3 4 6t3 5q2 3 2.5 7.5t0.5 9.5v7.5 v7.5q-2 4 -4.5 8t-5.5 6q-6 7 -13 10q-2 2 -5.5 2.5t-7.5 0.5h-10q-6 0 -10 -1q-3 -2 -5 -3t-5 -1q-1 -2 -3.5 -4t-3.5 -4l-7 -8q-2 -4 -2.5 -7t-2.5 -6v-10zM1122 143q0 -4 1 -4v-1q0 -6 4 -6q1 -5 7 -5h7q5 0 7 2q1 2 3 2.5t2 2.5v2q0 2 1 2l4 3v2q0 6 -5 7l-4 5 q-1 4 -3 4t-3.5 0.5t-3.5 0.5q-1 -1 -6 -1l-8 -4q-2 -1 -2 -3v-2q-1 -2 -1 -6v-1zM1134 221q0 -5 2 -7.5t2 -7.5l6 -16q3 -3 6 -5t4 -5l15 -10l13 -2q5 -3 16 -3q4 0 7 1.5t7 2.5q5 1 9 3.5t7 5.5l5 2.5t5 4.5q3 0 5 4t5 7l3 14q5 4 5 13l-12 2h-6l-7 -4q-2 0 -3.5 -2.5 t-1.5 -4.5l-5 -9l-9 -6q-4 -3 -6 -4t-6 -1q-6 -3 -12 0q-3 2 -5.5 2t-5.5 3q-7 4 -8 11q-5 1 -5 11q-5 3 0 15v3.5t2 7.5q2 2 4 3.5t5 3.5q8 3 10 3q3 2 10 2q2 0 10 3q2 4 5 5l2 7v9q-3 5 -12 5h-13l-15 -5l-11 -5q-2 -2 -5.5 -5t-6.5 -7q-2 -2 -4 -5.5t-4 -8.5l-7 -15v-16 zM1210 1194l41 127l11 -9q0 -1 1.5 -3t3.5 -3q0 -5 -2 -10l-29 -87l85 39q1 1 7 1q5 0 7 -4l11 -7l-120 -55zM1221 292q0 -4 3 -9l4 -14l10 -12l13 -10q5 -1 8 -3.5t8 -2.5t8.5 -2t6.5 -2t6.5 2t8.5 2q3 0 7 2.5t8 3.5q6 3 13 10l10 12q1 2 3 5.5t2 8.5q1 5 1 15v15l-6 14 q-2 4 -3 7l-5 7l-14 13l-16 3q-3 2 -15 2h-6.5t-8.5 -2l-13 -3q-4 -3 -8.5 -6.5t-6.5 -6.5q-3 -3 -4.5 -6t-3.5 -6q-3 -3 -4 -7t-3 -9q0 -3 -1.5 -6.5t-1.5 -8.5v-6zM1251 288v10v12q4 8 9 13l11 8q3 0 6 0.5t5 0.5q5 0 13 -3q2 -1 5 -3t6 -5q2 -2 4 -5t3 -6q3 -3 3 -12 q0 -2 -1 -4l-2 -7q-3 -9 -7 -11q-8 -7 -11 -9q-3 -1 -6.5 -1h-6.5t-6.5 0.5t-4.5 0.5l-11 9q-4 4 -9 12zM1262 1147l92 78l50 -58l-14 -14l-38 45l-24 -19l30 -37l-17 -12l-28 36l-24 -21l36 -43l-15 -12zM1282 380l99 -67l17 24l-47 33l61 -13l11 21l-33 51l48 -31l15 25 l-100 64l-13 -16q-2 -2 -3 -4t-1 -6q0 -2 1 -4t3 -5l41 -59l-70 10h-11l-9 -6zM1316 1080l103 63l24 -38q2 -3 2.5 -6t2.5 -8q2 -7 -2 -13q-2 -9 -5 -13l-4.5 -4.5t-6.5 -5.5l-6 -1.5t-5 -2.5q-4 0 -5.5 -0.5t-4.5 0.5q-4 0 -10 3q-4 1 -5.5 1.5t-3.5 3.5l-24 -61l-9 14 q-4 2 -4 7q0 6 3 9l20 48l-8 14l-43 -26zM1369 984q0 4 3 14q0 3 2 6l3 4q0 4 2 4q4 2 3 2l4 -2q3 -5 6 -7q0 -1 0.5 -2.5t0.5 -3.5q0 -3 -3 -6v-1v-8q0 -5 2 -8q0 -2 1 -3t2 -4q2 0 3.5 -1.5l3.5 -3.5h2t4 -2h4.5t4.5 2q2 0 5 3q2 4 2 5q1 2 1 7v8v4v13q0 8 2 13 q1 2 2.5 4.5t4.5 5.5q2 2 4.5 3.5t6.5 3.5q8 3 14 1q6 0 12 -3q3 -2 7 -3.5t6 -5.5q3 -3 6 -11q2 -7 2 -11q0 -7 -1 -10q0 -4 -4 -10v-4.5t-2 -3.5l-6 4q-3 1 -4 2.5t-4 3.5q-1 3 -1 5v4q1 1 1 7q0 4 -1 6q-2 3 -2 7q-3 0 -5 3q-2 2 -5 2q-3 1 -5 0l-2.5 -2.5l-1.5 -1.5 l-2 -2l-2 -2v-8v-10v-3v-2v-10q0 -2 -0.5 -4.5t-0.5 -4.5q-4 -14 -20 -22q-4 -2 -7.5 -3t-8.5 1q-6 0 -14 2q-4 3 -7.5 5t-5.5 6q-3 2 -5 6t-4 7q-3 10 -3 15zM1384 1099l14 -20q2 -5 4 -6q1 0 6 -3h6q1 0 5 3q1 0 6 3q0 3 1 4t1 3q1 1 1 7q-1 1 -1 2.5t-2 3.5l-11 19z M1392 921l115 34l5 -19l-115 -34zM1409 833q-1 13 1 23q5 13 10 21q7 10 19 17q5 3 11 5.5t11 2.5h20q6 0 14 -5q4 0 7.5 -2.5t4.5 -4.5q4 -3 7.5 -5.5t6.5 -5.5q4 -8 7 -13q3 -8 5 -18v-15q-2 -10 -5 -16q-1 -5 -3 -8.5t-4 -6.5l-11 -10q-4 -4 -7.5 -6t-6.5 -3 q-7 -4 -15 -4q-10 -1 -20 0q-8 0 -15 4q-2 1 -6 2.5t-7 4.5t-6 6.5t-5 5.5q-7 5 -8 15q-2 3 -3.5 6.5t-1.5 9.5zM1410 660l2 17l98 61l-93 5l1 21l120 -10v-12q0 -5 -1 -9q-4 -2 -4 -5l-83 -51l83 -6l-1 -20zM1428 836q2 -8 5 -12q0 -6 5 -9q1 -3 3 -5t3 -5q2 0 4.5 -1.5 t5.5 -3.5q2 -1 4.5 -1h5.5q5 -4 12 0q11 0 16 5q5 1 13 11q6 8 6 15q3 7 1 16q0 7 -2 10q-3 4 -3.5 6t-1.5 4q-3 2 -4.5 3.5l-3.5 3.5l-10 6q-3 3 -11 3q-5 3 -12 0q-8 0 -10 -3q-5 -2 -10 -6q-4 -2 -6 -7q-5 -5 -5 -10q-2 -1 -2.5 -4t-2.5 -6v-10z" />
<glyph unicode="8" d="M140 712v6.5v4.5q3 9 3 14q2 3 3.5 5.5t4.5 6.5q2 2 3.5 5t3.5 5l3 -5q3 0 4 -1l1 -1q2 -3 2 -9v-3t-2 -3q-5 -5 -5 -11v-13t3 -18q2 -4 4.5 -7t5.5 -6q5 -5 14 -7q7 -4 18 -3q6 0 11 3q3 1 5 1.5t4 3.5q1 2 3.5 3t6.5 4q1 2 2.5 3.5t3.5 4.5q0 4 0.5 7t2.5 6q1 4 1 10 q-1 4 -2 7t-2 8q0 3 -5 10l-20 -1v-5v-5q0 -2 -2 -5q-1 -1 -2 -2.5t-2 -1.5q-2 -1 -6 -1h-6l-3 37l51 4q1 -2 3.5 -4t4.5 -5q2 -1 3.5 -4.5t1.5 -6.5q1 -6 3 -11q0 -4 1 -6.5t1 -4.5q0 -8 -1 -14.5t-3 -11.5q-1 -8 -4.5 -13t-6.5 -10q-7 -8 -20 -13q-11 -8 -23 -8h-18 q-4 3 -7.5 4t-7.5 4q-4 1 -6.5 3.5t-6.5 4.5q-2 3 -5 6t-5 7q-2 2 -4 5.5t-4 6.5l-2 10t-1 10zM140 786l8 77l20 -2l-7 -56l30 -5l6 48l20 -2l-5 -46l33 -3l5 58l20 -4l-9 -77zM151 877l22 92l18 -5l-10 -38l101 -24l-4 -18l-100 23l-10 -36zM191 1020l43 85l17 -8l-15 -33 l91 -46l-9 -19l-92 47l-16 -34zM220 440l46 -81l23 16l-26 46l85 -10h6q1 0 2 1t3 1l12 8l-46 79l-24 -15l27 -45l-85 10q-1 0 -5 -0.5t-8 -4.5zM245 1124l11 16l41 -30l36 48l-41 31l11 15l98 -71l-11 -17l-41 31l-36 -48l42 -31l-11 -15zM286 334l52 -60l19 19l-32 38 l17 11l24 -32l22 19l-28 30l15 13l32 -40l20 17l-49 62zM313 752q0 -105 40.5 -200.5t111 -168t167.5 -115.5t210 -43q36 0 71.5 6t69.5 16q79 24 149.5 69.5t123 111t82.5 147t30 177.5q0 103 -39.5 198.5t-109.5 169t-167 117.5t-210 44q-108 0 -203 -41t-167.5 -111.5 t-115.5 -167.5t-43 -209zM327 1230l54 54l14 -15l-40 -40l21 -22l34 32l12 -14l-32 -31l22 -24l41 39l14 -15l-55 -52zM359 752q0 96 36 183.5t100.5 154.5t153 106t193.5 39q69 0 127 -16q73 -19 137.5 -61.5t113.5 -103t77 -137t28 -165.5q0 -100 -38 -189t-104 -155 t-154 -104t-187 -38q-102 0 -190.5 39t-154 105.5t-102 155t-36.5 186.5zM384 230l20 -19l62 72l22 -22l19 21l-71 60l-20 -21l26 -23zM406 752q0 -85 28.5 -159.5t79.5 -133.5l568 569h-578q-46 -56 -72 -125t-26 -151zM427 190l15 -10h2h3q3 0 4 -0.5t2 0.5h5h5l10 10 l41 -22l-2 -15v-6q0 -3 1 -3q0 -1 1 -1v-4q0 -1 2 -1l3 -4l18 -10l17 128l-23 14zM442 1327l65 41l9 -15l-48 -31l18 -27l40 26l11 -17l-40 -25l24 -44l-14 -10zM499 206l17 15h2h1v2v1h2q1 1 2 1l-4 -2v-2v-3l-1 -22zM526 1380l19 9l30 -68q0 -7 6 -10q2 -4 10 -7 q2 -2 5 -2h5q5 0 10 2q8 3 11 7q5 5 7 10q1 1 1 10q0 6 -1 11l-28 69l17 8l29 -69q2 -5 2.5 -9.5t0.5 -9.5q0 -10 -3 -19q-2 -5 -4.5 -8.5t-7.5 -7.5q-3 -5 -6 -6.5t-8 -3.5t-10 -3.5t-10 -1.5q-8 0 -18 5q-5 2 -9 3.5t-7 6.5q-7 7 -10 16zM549 1076h579q-56 51 -129 82 t-157 31q-85 0 -159.5 -30t-133.5 -83zM550 426q59 -49 133 -80t159 -31q84 0 158.5 31t133.5 80h-584zM554 119l27 -11l15 42l39 -16l10 26l-39 15l7 19l50 -19l8 26l-75 25zM600 474h578q46 56 71.5 127t25.5 151q0 82 -27 153.5t-84 142.5zM647 1426l21 6l23 -100l50 10 l3 -20l-66 -15zM654 124l3 -15l6 -13l12 -11q3 -4 7 -5.5t6 -3.5q7 -4 15 -4q5 -1 9 -1h7q5 0 14 2q4 2 8.5 3t7.5 4q6 2 11 10l9 11q4 7 6 18v15q0 3 -0.5 6.5t-2.5 9.5l-3 7.5t-4 6.5l-8 11q-3 3 -7 5l-8 4q-4 1 -7 2t-8 3q-5 1 -9 1h-7q-10 0 -15 -5q-4 0 -7.5 -1 t-7.5 -4l-11 -10q-4 -8 -11 -11q-2 -5 -3.5 -9t-1.5 -7v-19zM685 124q-3 5 0 14q0 6 5 12l6 9l13 5h12l12 -5l9 -9q2 -3 4 -5.5t2 -6.5q2 -9 0 -14q0 -3 -2 -6.5t-4 -5.5q-3 -4 -4.5 -6.5t-4.5 -4.5q-4 -1 -6.5 -2t-5.5 -1q-7 -3 -12 0q-3 0 -7 1t-6 2l-8 11q-2 2 -2.5 5.5 t-0.5 6.5zM736 1445l21 2l10 -100l52 5v-21l-70 -9zM784 178l3 -122l28 1v81l52 -81h26v121h-31l4 -77q-1 0 -1 4q0 1 -1.5 1t-1.5 2q0 4 -1 4l-42 61q0 1 -3 2q-1 3 -8 3h-9h-15zM865 1331l13 121l45 -5q6 0 14 -4q9 -5 11 -10q4 -3 6 -14q4 -7 3 -15q-3 -3 -3 -6.5 t-2 -8.5l-9 -12q-4 -4 -14 -7q-3 -2 -14 -2l-25 4l-5 -45zM891 1391l25 -2h8q3 0 7 5q3 0 3 5q2 2 4 8q0 5 -1 7l-2 4l-1 1q-2 3 -3.5 4t-2.5 1q-2 2 -3.5 2t-2.5 1l-26 3zM903 179l4 -26l35 6l16 -91l27 5l-16 91l31 6l-5 26zM954 1321l31 116l45 -13q6 0 11 -5t11 -10 q4 -5 4 -13q1 -5 0.5 -9t-0.5 -7q-2 -5 -5 -10q-4 -5 -7 -7q-8 -5 -10 -5q-3 -2 -5.5 -2.5t-3.5 -2.5l22 -58l-16 1q-1 2 -3 4t-3 2q-4 2 -5 9l-20 47l-15 4l-11 -46zM990 1380l26 -7h3h2q3 0 4 1t4 1q2 0 2 1v2q5 5 5 7v8v3t-1 3q-1 2 -2.5 2.5t-1.5 2.5q-3 3 -6 3l-25 5z M1011 176q0 -3 3 -7q2 -9 10 -14q1 0 3.5 -1.5t3.5 -3.5q4 0 7 -1.5t6 -1.5h13h10h2q2 0 3 -3q4 0 4 -1h3v-5q0 -2 -1 -3t-1 -2v-1q-1 0 -2 -2.5t-3 -2.5q-1 -3 -5 -3h-3h-2h-3.5h-2.5h-6h-9l-5 -1v-2t-1 -2l-5 -7q1 -4 3 -6.5t3 -4.5q4 -1 7.5 -2t7.5 -1q8 -3 11 -2 q4 0 8 1t7 1l7 3.5l9 4.5q4 4 5.5 6t4.5 7q0 5 2.5 7.5t2.5 7.5t-0.5 8.5t-4.5 7.5q0 8 -5 10q-1 7 -8 9l-13 5h-15h-6h-9h-3v1q-3 3 -3 4l-2 1q2 0 2 4v1h3h6v4h1h5h3q3 0 3 1h9q0 3 1 4v2l5 10l-6 4q-9 4 -12 4q-2 0 -4.5 1t-4.5 1q-4 0 -6.5 -1t-4.5 -1l-13 -8 q-2 -1 -4 -3.5t-3 -6.5q-8 -6 -8 -16v-4zM1056 1319v12q0 12 6 22q0 5 2.5 8.5t6.5 6.5q1 3 4.5 5.5t6.5 4.5q3 3 7 4t9 3q4 3 14 4h15q9 -1 17 -7q8 -4 15 -9q3 -3 5.5 -6.5t4.5 -4.5q2 -4 4 -7t4 -7q1 -5 2 -8.5t1 -7.5v-8t-2 -8q-1 -4 -2 -7.5t-4 -8.5q-3 -4 -4 -7t-4 -7 q-3 -3 -6.5 -5t-4.5 -6q-4 -2 -7 -4t-7 -5q-6 0 -17 -1q-12 0 -17 1q-5 0 -15 5q-12 5 -19 15q-9 9 -14 21q-1 7 -1 12zM1074 1324q0 -2 1 -5t2 -5q0 -7 4 -10q1 -2 3 -5t3 -3q4 -5 11 -6q7 -4 10 -4h12h13q4 5 8 5q3 2 5 3.5t3 3.5q3 3 4 6t3 5q2 3 2.5 7.5t0.5 9.5v7.5 v7.5q-2 4 -4.5 8t-5.5 6q-6 7 -13 10q-2 2 -5.5 2.5t-7.5 0.5h-10q-6 0 -10 -1q-3 -2 -5 -3t-5 -1q-1 -2 -3.5 -4t-3.5 -4l-7 -8q-2 -4 -2.5 -7t-2.5 -6v-10zM1122 143q0 -4 1 -4v-1q0 -6 4 -6q1 -5 7 -5h7q5 0 7 2q1 2 3 2.5t2 2.5v2q0 2 1 2l4 3v2q0 6 -5 7l-4 5 q-1 4 -3 4t-3.5 0.5t-3.5 0.5q-1 -1 -6 -1l-8 -4q-2 -1 -2 -3v-2q-1 -2 -1 -6v-1zM1134 221q0 -5 2 -7.5t2 -7.5l6 -16q3 -3 6 -5t4 -5l15 -10l13 -2q5 -3 16 -3q4 0 7 1.5t7 2.5q5 1 9 3.5t7 5.5l5 2.5t5 4.5q3 0 5 4t5 7l3 14q5 4 5 13l-12 2h-6l-7 -4q-2 0 -3.5 -2.5 t-1.5 -4.5l-5 -9l-9 -6q-4 -3 -6 -4t-6 -1q-6 -3 -12 0q-3 2 -5.5 2t-5.5 3q-7 4 -8 11q-5 1 -5 11q-5 3 0 15v3.5t2 7.5q2 2 4 3.5t5 3.5q8 3 10 3q3 2 10 2q2 0 10 3q2 4 5 5l2 7v9q-3 5 -12 5h-13l-15 -5l-11 -5q-2 -2 -5.5 -5t-6.5 -7q-2 -2 -4 -5.5t-4 -8.5l-7 -15v-16 zM1210 1194l41 127l11 -9q0 -1 1.5 -3t3.5 -3q0 -5 -2 -10l-29 -87l85 39q1 1 7 1q5 0 7 -4l11 -7l-120 -55zM1221 292q0 -4 3 -9l4 -14l10 -12l13 -10q5 -1 8 -3.5t8 -2.5t8.5 -2t6.5 -2t6.5 2t8.5 2q3 0 7 2.5t8 3.5q6 3 13 10l10 12q1 2 3 5.5t2 8.5q1 5 1 15v15l-6 14 q-2 4 -3 7l-5 7l-14 13l-16 3q-3 2 -15 2h-6.5t-8.5 -2l-13 -3q-4 -3 -8.5 -6.5t-6.5 -6.5q-3 -3 -4.5 -6t-3.5 -6q-3 -3 -4 -7t-3 -9q0 -3 -1.5 -6.5t-1.5 -8.5v-6zM1251 288v10v12q4 8 9 13l11 8q3 0 6 0.5t5 0.5q5 0 13 -3q2 -1 5 -3t6 -5q2 -2 4 -5t3 -6q3 -3 3 -12 q0 -2 -1 -4l-2 -7q-3 -9 -7 -11q-8 -7 -11 -9q-3 -1 -6.5 -1h-6.5t-6.5 0.5t-4.5 0.5l-11 9q-4 4 -9 12zM1262 1147l92 78l50 -58l-14 -14l-38 45l-24 -19l30 -37l-17 -12l-28 36l-24 -21l36 -43l-15 -12zM1282 380l99 -67l17 24l-47 33l61 -13l11 21l-33 51l48 -31l15 25 l-100 64l-13 -16q-2 -2 -3 -4t-1 -6q0 -2 1 -4t3 -5l41 -59l-70 10h-11l-9 -6zM1316 1080l103 63l24 -38q2 -3 2.5 -6t2.5 -8q2 -7 -2 -13q-2 -9 -5 -13l-4.5 -4.5t-6.5 -5.5l-6 -1.5t-5 -2.5q-4 0 -5.5 -0.5t-4.5 0.5q-4 0 -10 3q-4 1 -5.5 1.5t-3.5 3.5l-24 -61l-9 14 q-4 2 -4 7q0 6 3 9l20 48l-8 14l-43 -26zM1369 984q0 4 3 14q0 3 2 6l3 4q0 4 2 4q4 2 3 2l4 -2q3 -5 6 -7q0 -1 0.5 -2.5t0.5 -3.5q0 -3 -3 -6v-1v-8q0 -5 2 -8q0 -2 1 -3t2 -4q2 0 3.5 -1.5l3.5 -3.5h2t4 -2h4.5t4.5 2q2 0 5 3q2 4 2 5q1 2 1 7v8v4v13q0 8 2 13 q1 2 2.5 4.5t4.5 5.5q2 2 4.5 3.5t6.5 3.5q8 3 14 1q6 0 12 -3q3 -2 7 -3.5t6 -5.5q3 -3 6 -11q2 -7 2 -11q0 -7 -1 -10q0 -4 -4 -10v-4.5t-2 -3.5l-6 4q-3 1 -4 2.5t-4 3.5q-1 3 -1 5v4q1 1 1 7q0 4 -1 6q-2 3 -2 7q-3 0 -5 3q-2 2 -5 2q-3 1 -5 0l-2.5 -2.5l-1.5 -1.5 l-2 -2l-2 -2v-8v-10v-3v-2v-10q0 -2 -0.5 -4.5t-0.5 -4.5q-4 -14 -20 -22q-4 -2 -7.5 -3t-8.5 1q-6 0 -14 2q-4 3 -7.5 5t-5.5 6q-3 2 -5 6t-4 7q-3 10 -3 15zM1384 1099l14 -20q2 -5 4 -6q1 0 6 -3h6q1 0 5 3q1 0 6 3q0 3 1 4t1 3q1 1 1 7q-1 1 -1 2.5t-2 3.5l-11 19z M1392 921l115 34l5 -19l-115 -34zM1409 833q-1 13 1 23q5 13 10 21q7 10 19 17q5 3 11 5.5t11 2.5h20q6 0 14 -5q4 0 7.5 -2.5t4.5 -4.5q4 -3 7.5 -5.5t6.5 -5.5q4 -8 7 -13q3 -8 5 -18v-15q-2 -10 -5 -16q-1 -5 -3 -8.5t-4 -6.5l-11 -10q-4 -4 -7.5 -6t-6.5 -3 q-7 -4 -15 -4q-10 -1 -20 0q-8 0 -15 4q-2 1 -6 2.5t-7 4.5t-6 6.5t-5 5.5q-7 5 -8 15q-2 3 -3.5 6.5t-1.5 9.5zM1410 660l2 17l98 61l-93 5l1 21l120 -10v-12q0 -5 -1 -9q-4 -2 -4 -5l-83 -51l83 -6l-1 -20zM1428 836q2 -8 5 -12q0 -6 5 -9q1 -3 3 -5t3 -5q2 0 4.5 -1.5 t5.5 -3.5q2 -1 4.5 -1h5.5q5 -4 12 0q11 0 16 5q5 1 13 11q6 8 6 15q3 7 1 16q0 7 -2 10q-3 4 -3.5 6t-1.5 4q-3 2 -4.5 3.5l-3.5 3.5l-10 6q-3 3 -11 3q-5 3 -12 0q-8 0 -10 -3q-5 -2 -10 -6q-4 -2 -6 -7q-5 -5 -5 -10q-2 -1 -2.5 -4t-2.5 -6v-10z" />
<glyph unicode="9" d="M140 712v6.5v4.5q3 9 3 14q2 3 3.5 5.5t4.5 6.5q2 2 3.5 5t3.5 5l3 -5q3 0 4 -1l1 -1q2 -3 2 -9v-3t-2 -3q-5 -5 -5 -11v-13t3 -18q2 -4 4.5 -7t5.5 -6q5 -5 14 -7q7 -4 18 -3q6 0 11 3q3 1 5 1.5t4 3.5q1 2 3.5 3t6.5 4q1 2 2.5 3.5t3.5 4.5q0 4 0.5 7t2.5 6q1 4 1 10 q-1 4 -2 7t-2 8q0 3 -5 10l-20 -1v-5v-5q0 -2 -2 -5q-1 -1 -2 -2.5t-2 -1.5q-2 -1 -6 -1h-6l-3 37l51 4q1 -2 3.5 -4t4.5 -5q2 -1 3.5 -4.5t1.5 -6.5q1 -6 3 -11q0 -4 1 -6.5t1 -4.5q0 -8 -1 -14.5t-3 -11.5q-1 -8 -4.5 -13t-6.5 -10q-7 -8 -20 -13q-11 -8 -23 -8h-18 q-4 3 -7.5 4t-7.5 4q-4 1 -6.5 3.5t-6.5 4.5q-2 3 -5 6t-5 7q-2 2 -4 5.5t-4 6.5l-2 10t-1 10zM140 786l8 77l20 -2l-7 -56l30 -5l6 48l20 -2l-5 -46l33 -3l5 58l20 -4l-9 -77zM151 877l22 92l18 -5l-10 -38l101 -24l-4 -18l-100 23l-10 -36zM191 1020l43 85l17 -8l-15 -33 l91 -46l-9 -19l-92 47l-16 -34zM220 440l46 -81l23 16l-26 46l85 -10h6q1 0 2 1t3 1l12 8l-46 79l-24 -15l27 -45l-85 10q-1 0 -5 -0.5t-8 -4.5zM245 1124l11 16l41 -30l36 48l-41 31l11 15l98 -71l-11 -17l-41 31l-36 -48l42 -31l-11 -15zM286 334l52 -60l19 19l-32 38 l17 11l24 -32l22 19l-28 30l15 13l32 -40l20 17l-49 62zM313 752q0 -105 40.5 -200.5t111 -168t167.5 -115.5t210 -43q36 0 71.5 6t69.5 16q79 24 149.5 69.5t123 111t82.5 147t30 177.5q0 103 -39.5 198.5t-109.5 169t-167 117.5t-210 44q-108 0 -203 -41t-167.5 -111.5 t-115.5 -167.5t-43 -209zM327 1230l54 54l14 -15l-40 -40l21 -22l34 32l12 -14l-32 -31l22 -24l41 39l14 -15l-55 -52zM359 752q0 96 36 183.5t100.5 154.5t153 106t193.5 39q69 0 127 -16q73 -19 137.5 -61.5t113.5 -103t77 -137t28 -165.5q0 -100 -38 -189t-104 -155 t-154 -104t-187 -38q-102 0 -190.5 39t-154 105.5t-102 155t-36.5 186.5zM384 230l20 -19l62 72l22 -22l19 21l-71 60l-20 -21l26 -23zM406 752q0 -85 28.5 -159.5t79.5 -133.5l568 569h-578q-46 -56 -72 -125t-26 -151zM427 190l15 -10h2h3q3 0 4 -0.5t2 0.5h5h5l10 10 l41 -22l-2 -15v-6q0 -3 1 -3q0 -1 1 -1v-4q0 -1 2 -1l3 -4l18 -10l17 128l-23 14zM442 1327l65 41l9 -15l-48 -31l18 -27l40 26l11 -17l-40 -25l24 -44l-14 -10zM499 206l17 15h2h1v2v1h2q1 1 2 1l-4 -2v-2v-3l-1 -22zM526 1380l19 9l30 -68q0 -7 6 -10q2 -4 10 -7 q2 -2 5 -2h5q5 0 10 2q8 3 11 7q5 5 7 10q1 1 1 10q0 6 -1 11l-28 69l17 8l29 -69q2 -5 2.5 -9.5t0.5 -9.5q0 -10 -3 -19q-2 -5 -4.5 -8.5t-7.5 -7.5q-3 -5 -6 -6.5t-8 -3.5t-10 -3.5t-10 -1.5q-8 0 -18 5q-5 2 -9 3.5t-7 6.5q-7 7 -10 16zM549 1076h579q-56 51 -129 82 t-157 31q-85 0 -159.5 -30t-133.5 -83zM550 426q59 -49 133 -80t159 -31q84 0 158.5 31t133.5 80h-584zM554 119l27 -11l15 42l39 -16l10 26l-39 15l7 19l50 -19l8 26l-75 25zM600 474h578q46 56 71.5 127t25.5 151q0 82 -27 153.5t-84 142.5zM647 1426l21 6l23 -100l50 10 l3 -20l-66 -15zM654 124l3 -15l6 -13l12 -11q3 -4 7 -5.5t6 -3.5q7 -4 15 -4q5 -1 9 -1h7q5 0 14 2q4 2 8.5 3t7.5 4q6 2 11 10l9 11q4 7 6 18v15q0 3 -0.5 6.5t-2.5 9.5l-3 7.5t-4 6.5l-8 11q-3 3 -7 5l-8 4q-4 1 -7 2t-8 3q-5 1 -9 1h-7q-10 0 -15 -5q-4 0 -7.5 -1 t-7.5 -4l-11 -10q-4 -8 -11 -11q-2 -5 -3.5 -9t-1.5 -7v-19zM685 124q-3 5 0 14q0 6 5 12l6 9l13 5h12l12 -5l9 -9q2 -3 4 -5.5t2 -6.5q2 -9 0 -14q0 -3 -2 -6.5t-4 -5.5q-3 -4 -4.5 -6.5t-4.5 -4.5q-4 -1 -6.5 -2t-5.5 -1q-7 -3 -12 0q-3 0 -7 1t-6 2l-8 11q-2 2 -2.5 5.5 t-0.5 6.5zM736 1445l21 2l10 -100l52 5v-21l-70 -9zM784 178l3 -122l28 1v81l52 -81h26v121h-31l4 -77q-1 0 -1 4q0 1 -1.5 1t-1.5 2q0 4 -1 4l-42 61q0 1 -3 2q-1 3 -8 3h-9h-15zM865 1331l13 121l45 -5q6 0 14 -4q9 -5 11 -10q4 -3 6 -14q4 -7 3 -15q-3 -3 -3 -6.5 t-2 -8.5l-9 -12q-4 -4 -14 -7q-3 -2 -14 -2l-25 4l-5 -45zM891 1391l25 -2h8q3 0 7 5q3 0 3 5q2 2 4 8q0 5 -1 7l-2 4l-1 1q-2 3 -3.5 4t-2.5 1q-2 2 -3.5 2t-2.5 1l-26 3zM903 179l4 -26l35 6l16 -91l27 5l-16 91l31 6l-5 26zM954 1321l31 116l45 -13q6 0 11 -5t11 -10 q4 -5 4 -13q1 -5 0.5 -9t-0.5 -7q-2 -5 -5 -10q-4 -5 -7 -7q-8 -5 -10 -5q-3 -2 -5.5 -2.5t-3.5 -2.5l22 -58l-16 1q-1 2 -3 4t-3 2q-4 2 -5 9l-20 47l-15 4l-11 -46zM990 1380l26 -7h3h2q3 0 4 1t4 1q2 0 2 1v2q5 5 5 7v8v3t-1 3q-1 2 -2.5 2.5t-1.5 2.5q-3 3 -6 3l-25 5z M1011 176q0 -3 3 -7q2 -9 10 -14q1 0 3.5 -1.5t3.5 -3.5q4 0 7 -1.5t6 -1.5h13h10h2q2 0 3 -3q4 0 4 -1h3v-5q0 -2 -1 -3t-1 -2v-1q-1 0 -2 -2.5t-3 -2.5q-1 -3 -5 -3h-3h-2h-3.5h-2.5h-6h-9l-5 -1v-2t-1 -2l-5 -7q1 -4 3 -6.5t3 -4.5q4 -1 7.5 -2t7.5 -1q8 -3 11 -2 q4 0 8 1t7 1l7 3.5l9 4.5q4 4 5.5 6t4.5 7q0 5 2.5 7.5t2.5 7.5t-0.5 8.5t-4.5 7.5q0 8 -5 10q-1 7 -8 9l-13 5h-15h-6h-9h-3v1q-3 3 -3 4l-2 1q2 0 2 4v1h3h6v4h1h5h3q3 0 3 1h9q0 3 1 4v2l5 10l-6 4q-9 4 -12 4q-2 0 -4.5 1t-4.5 1q-4 0 -6.5 -1t-4.5 -1l-13 -8 q-2 -1 -4 -3.5t-3 -6.5q-8 -6 -8 -16v-4zM1056 1319v12q0 12 6 22q0 5 2.5 8.5t6.5 6.5q1 3 4.5 5.5t6.5 4.5q3 3 7 4t9 3q4 3 14 4h15q9 -1 17 -7q8 -4 15 -9q3 -3 5.5 -6.5t4.5 -4.5q2 -4 4 -7t4 -7q1 -5 2 -8.5t1 -7.5v-8t-2 -8q-1 -4 -2 -7.5t-4 -8.5q-3 -4 -4 -7t-4 -7 q-3 -3 -6.5 -5t-4.5 -6q-4 -2 -7 -4t-7 -5q-6 0 -17 -1q-12 0 -17 1q-5 0 -15 5q-12 5 -19 15q-9 9 -14 21q-1 7 -1 12zM1074 1324q0 -2 1 -5t2 -5q0 -7 4 -10q1 -2 3 -5t3 -3q4 -5 11 -6q7 -4 10 -4h12h13q4 5 8 5q3 2 5 3.5t3 3.5q3 3 4 6t3 5q2 3 2.5 7.5t0.5 9.5v7.5 v7.5q-2 4 -4.5 8t-5.5 6q-6 7 -13 10q-2 2 -5.5 2.5t-7.5 0.5h-10q-6 0 -10 -1q-3 -2 -5 -3t-5 -1q-1 -2 -3.5 -4t-3.5 -4l-7 -8q-2 -4 -2.5 -7t-2.5 -6v-10zM1122 143q0 -4 1 -4v-1q0 -6 4 -6q1 -5 7 -5h7q5 0 7 2q1 2 3 2.5t2 2.5v2q0 2 1 2l4 3v2q0 6 -5 7l-4 5 q-1 4 -3 4t-3.5 0.5t-3.5 0.5q-1 -1 -6 -1l-8 -4q-2 -1 -2 -3v-2q-1 -2 -1 -6v-1zM1134 221q0 -5 2 -7.5t2 -7.5l6 -16q3 -3 6 -5t4 -5l15 -10l13 -2q5 -3 16 -3q4 0 7 1.5t7 2.5q5 1 9 3.5t7 5.5l5 2.5t5 4.5q3 0 5 4t5 7l3 14q5 4 5 13l-12 2h-6l-7 -4q-2 0 -3.5 -2.5 t-1.5 -4.5l-5 -9l-9 -6q-4 -3 -6 -4t-6 -1q-6 -3 -12 0q-3 2 -5.5 2t-5.5 3q-7 4 -8 11q-5 1 -5 11q-5 3 0 15v3.5t2 7.5q2 2 4 3.5t5 3.5q8 3 10 3q3 2 10 2q2 0 10 3q2 4 5 5l2 7v9q-3 5 -12 5h-13l-15 -5l-11 -5q-2 -2 -5.5 -5t-6.5 -7q-2 -2 -4 -5.5t-4 -8.5l-7 -15v-16 zM1210 1194l41 127l11 -9q0 -1 1.5 -3t3.5 -3q0 -5 -2 -10l-29 -87l85 39q1 1 7 1q5 0 7 -4l11 -7l-120 -55zM1221 292q0 -4 3 -9l4 -14l10 -12l13 -10q5 -1 8 -3.5t8 -2.5t8.5 -2t6.5 -2t6.5 2t8.5 2q3 0 7 2.5t8 3.5q6 3 13 10l10 12q1 2 3 5.5t2 8.5q1 5 1 15v15l-6 14 q-2 4 -3 7l-5 7l-14 13l-16 3q-3 2 -15 2h-6.5t-8.5 -2l-13 -3q-4 -3 -8.5 -6.5t-6.5 -6.5q-3 -3 -4.5 -6t-3.5 -6q-3 -3 -4 -7t-3 -9q0 -3 -1.5 -6.5t-1.5 -8.5v-6zM1251 288v10v12q4 8 9 13l11 8q3 0 6 0.5t5 0.5q5 0 13 -3q2 -1 5 -3t6 -5q2 -2 4 -5t3 -6q3 -3 3 -12 q0 -2 -1 -4l-2 -7q-3 -9 -7 -11q-8 -7 -11 -9q-3 -1 -6.5 -1h-6.5t-6.5 0.5t-4.5 0.5l-11 9q-4 4 -9 12zM1262 1147l92 78l50 -58l-14 -14l-38 45l-24 -19l30 -37l-17 -12l-28 36l-24 -21l36 -43l-15 -12zM1282 380l99 -67l17 24l-47 33l61 -13l11 21l-33 51l48 -31l15 25 l-100 64l-13 -16q-2 -2 -3 -4t-1 -6q0 -2 1 -4t3 -5l41 -59l-70 10h-11l-9 -6zM1316 1080l103 63l24 -38q2 -3 2.5 -6t2.5 -8q2 -7 -2 -13q-2 -9 -5 -13l-4.5 -4.5t-6.5 -5.5l-6 -1.5t-5 -2.5q-4 0 -5.5 -0.5t-4.5 0.5q-4 0 -10 3q-4 1 -5.5 1.5t-3.5 3.5l-24 -61l-9 14 q-4 2 -4 7q0 6 3 9l20 48l-8 14l-43 -26zM1369 984q0 4 3 14q0 3 2 6l3 4q0 4 2 4q4 2 3 2l4 -2q3 -5 6 -7q0 -1 0.5 -2.5t0.5 -3.5q0 -3 -3 -6v-1v-8q0 -5 2 -8q0 -2 1 -3t2 -4q2 0 3.5 -1.5l3.5 -3.5h2t4 -2h4.5t4.5 2q2 0 5 3q2 4 2 5q1 2 1 7v8v4v13q0 8 2 13 q1 2 2.5 4.5t4.5 5.5q2 2 4.5 3.5t6.5 3.5q8 3 14 1q6 0 12 -3q3 -2 7 -3.5t6 -5.5q3 -3 6 -11q2 -7 2 -11q0 -7 -1 -10q0 -4 -4 -10v-4.5t-2 -3.5l-6 4q-3 1 -4 2.5t-4 3.5q-1 3 -1 5v4q1 1 1 7q0 4 -1 6q-2 3 -2 7q-3 0 -5 3q-2 2 -5 2q-3 1 -5 0l-2.5 -2.5l-1.5 -1.5 l-2 -2l-2 -2v-8v-10v-3v-2v-10q0 -2 -0.5 -4.5t-0.5 -4.5q-4 -14 -20 -22q-4 -2 -7.5 -3t-8.5 1q-6 0 -14 2q-4 3 -7.5 5t-5.5 6q-3 2 -5 6t-4 7q-3 10 -3 15zM1384 1099l14 -20q2 -5 4 -6q1 0 6 -3h6q1 0 5 3q1 0 6 3q0 3 1 4t1 3q1 1 1 7q-1 1 -1 2.5t-2 3.5l-11 19z M1392 921l115 34l5 -19l-115 -34zM1409 833q-1 13 1 23q5 13 10 21q7 10 19 17q5 3 11 5.5t11 2.5h20q6 0 14 -5q4 0 7.5 -2.5t4.5 -4.5q4 -3 7.5 -5.5t6.5 -5.5q4 -8 7 -13q3 -8 5 -18v-15q-2 -10 -5 -16q-1 -5 -3 -8.5t-4 -6.5l-11 -10q-4 -4 -7.5 -6t-6.5 -3 q-7 -4 -15 -4q-10 -1 -20 0q-8 0 -15 4q-2 1 -6 2.5t-7 4.5t-6 6.5t-5 5.5q-7 5 -8 15q-2 3 -3.5 6.5t-1.5 9.5zM1410 660l2 17l98 61l-93 5l1 21l120 -10v-12q0 -5 -1 -9q-4 -2 -4 -5l-83 -51l83 -6l-1 -20zM1428 836q2 -8 5 -12q0 -6 5 -9q1 -3 3 -5t3 -5q2 0 4.5 -1.5 t5.5 -3.5q2 -1 4.5 -1h5.5q5 -4 12 0q11 0 16 5q5 1 13 11q6 8 6 15q3 7 1 16q0 7 -2 10q-3 4 -3.5 6t-1.5 4q-3 2 -4.5 3.5l-3.5 3.5l-10 6q-3 3 -11 3q-5 3 -12 0q-8 0 -10 -3q-5 -2 -10 -6q-4 -2 -6 -7q-5 -5 -5 -10q-2 -1 -2.5 -4t-2.5 -6v-10z" />
<glyph unicode=":" horiz-adv-x="540" d="M175 49q0 26 18 44t44 18t43.5 -18t17.5 -44t-18 -43.5t-43 -17.5q-26 0 -44 17.5t-18 43.5zM175 954q0 26 18 44t44 18t43.5 -18t17.5 -44t-18 -43.5t-43 -17.5q-26 0 -44 17.5t-18 43.5z" />
<glyph unicode=";" horiz-adv-x="491" d="M175 954q0 26 18 44t44 18t43.5 -18t17.5 -44t-18 -43.5t-43 -17.5q-26 0 -44 17.5t-18 43.5zM176 51q0 26 18 44t44 18q25 0 42 -17.5t19 -41.5v-43q0 -32 -6 -56.5t-15.5 -41.5t-20 -26.5t-19.5 -9.5q-5 0 -11 5l-12 10q-3 4 -3 10t4.5 12t10 15t10.5 20t5 26v15h-4 q-26 0 -44 17.5t-18 43.5z" />
<glyph unicode="&#x3c;" horiz-adv-x="737" d="M121 573l442 440q1 2 6.5 6t14.5 4q11 0 18.5 -7.5t7.5 -19.5q0 -11 -7 -18l-406 -407l402 -402q3 -3 7 -8t4 -14q0 -11 -7.5 -18t-18.5 -7q-9 0 -18 6l-443 444q-1 0 -2 1z" />
<glyph unicode="=" horiz-adv-x="1004" d="M151 418q0 30 29 29h660q32 0 31 -29q0 -30 -31 -30h-660q-30 0 -29 30zM151 692q0 29 29 29h660q32 0 31 -29q0 -30 -31 -29h-660q-30 0 -29 29z" />
<glyph unicode="&#x3e;" horiz-adv-x="743" d="M157 141q0 8 4 13.5t7 8.5l402 402l-406 407q-7 7 -7 18t7.5 19t18.5 8q8 0 14 -4t7 -6l442 -440q-1 -1 -2 -1l-443 -444q-8 -6 -18 -6q-11 0 -18.5 7t-7.5 18z" />
<glyph unicode="?" horiz-adv-x="1164" d="M60 1149q0 102 39.5 188t107.5 148.5t159 97.5t193 35q110 0 199.5 -36t153.5 -95t99 -133.5t35 -152.5q0 -39 -6.5 -87.5t-33 -102.5t-81.5 -110t-152 -110l-199 -126v-338q0 -23 -29 -23t-29 23v369l225 138q90 51 140 101.5t73.5 97.5t28 90t4.5 80q0 72 -33.5 136.5 t-91.5 113t-135.5 77.5t-165.5 29q-91 0 -170.5 -29.5t-138.5 -83t-93.5 -129t-34.5 -166.5q0 -17 -10.5 -26.5t-21.5 -9.5t-21 8.5t-11 25.5zM483 47q0 -26 18 -43.5t44 -17.5t43.5 18t17.5 43q0 26 -18 44t-43 18q-26 0 -44 -18t-18 -44z" />
<glyph unicode="@" d="M140 712v6.5v4.5q3 9 3 14q2 3 3.5 5.5t4.5 6.5q2 2 3.5 5t3.5 5l3 -5q3 0 4 -1l1 -1q2 -3 2 -9v-3t-2 -3q-5 -5 -5 -11v-13t3 -18q2 -4 4.5 -7t5.5 -6q5 -5 14 -7q7 -4 18 -3q6 0 11 3q3 1 5 1.5t4 3.5q1 2 3.5 3t6.5 4q1 2 2.5 3.5t3.5 4.5q0 4 0.5 7t2.5 6q1 4 1 10 q-1 4 -2 7t-2 8q0 3 -5 10l-20 -1v-5v-5q0 -2 -2 -5q-1 -1 -2 -2.5t-2 -1.5q-2 -1 -6 -1h-6l-3 37l51 4q1 -2 3.5 -4t4.5 -5q2 -1 3.5 -4.5t1.5 -6.5q1 -6 3 -11q0 -4 1 -6.5t1 -4.5q0 -8 -1 -14.5t-3 -11.5q-1 -8 -4.5 -13t-6.5 -10q-7 -8 -20 -13q-11 -8 -23 -8h-18 q-4 3 -7.5 4t-7.5 4q-4 1 -6.5 3.5t-6.5 4.5q-2 3 -5 6t-5 7q-2 2 -4 5.5t-4 6.5l-2 10t-1 10zM140 786l8 77l20 -2l-7 -56l30 -5l6 48l20 -2l-5 -46l33 -3l5 58l20 -4l-9 -77zM151 877l22 92l18 -5l-10 -38l101 -24l-4 -18l-100 23l-10 -36zM191 1020l43 85l17 -8l-15 -33 l91 -46l-9 -19l-92 47l-16 -34zM220 440l46 -81l23 16l-26 46l85 -10h6q1 0 2 1t3 1l12 8l-46 79l-24 -15l27 -45l-85 10q-1 0 -5 -0.5t-8 -4.5zM245 1124l11 16l41 -30l36 48l-41 31l11 15l98 -71l-11 -17l-41 31l-36 -48l42 -31l-11 -15zM286 334l52 -60l19 19l-32 38 l17 11l24 -32l22 19l-28 30l15 13l32 -40l20 17l-49 62zM313 752q0 -105 40.5 -200.5t111 -168t167.5 -115.5t210 -43q36 0 71.5 6t69.5 16q79 24 149.5 69.5t123 111t82.5 147t30 177.5q0 103 -39.5 198.5t-109.5 169t-167 117.5t-210 44q-108 0 -203 -41t-167.5 -111.5 t-115.5 -167.5t-43 -209zM327 1230l54 54l14 -15l-40 -40l21 -22l34 32l12 -14l-32 -31l22 -24l41 39l14 -15l-55 -52zM359 752q0 96 36 183.5t100.5 154.5t153 106t193.5 39q69 0 127 -16q73 -19 137.5 -61.5t113.5 -103t77 -137t28 -165.5q0 -100 -38 -189t-104 -155 t-154 -104t-187 -38q-102 0 -190.5 39t-154 105.5t-102 155t-36.5 186.5zM384 230l20 -19l62 72l22 -22l19 21l-71 60l-20 -21l26 -23zM406 752q0 -85 28.5 -159.5t79.5 -133.5l568 569h-578q-46 -56 -72 -125t-26 -151zM427 190l15 -10h2h3q3 0 4 -0.5t2 0.5h5h5l10 10 l41 -22l-2 -15v-6q0 -3 1 -3q0 -1 1 -1v-4q0 -1 2 -1l3 -4l18 -10l17 128l-23 14zM442 1327l65 41l9 -15l-48 -31l18 -27l40 26l11 -17l-40 -25l24 -44l-14 -10zM499 206l17 15h2h1v2v1h2q1 1 2 1l-4 -2v-2v-3l-1 -22zM526 1380l19 9l30 -68q0 -7 6 -10q2 -4 10 -7 q2 -2 5 -2h5q5 0 10 2q8 3 11 7q5 5 7 10q1 1 1 10q0 6 -1 11l-28 69l17 8l29 -69q2 -5 2.5 -9.5t0.5 -9.5q0 -10 -3 -19q-2 -5 -4.5 -8.5t-7.5 -7.5q-3 -5 -6 -6.5t-8 -3.5t-10 -3.5t-10 -1.5q-8 0 -18 5q-5 2 -9 3.5t-7 6.5q-7 7 -10 16zM549 1076h579q-56 51 -129 82 t-157 31q-85 0 -159.5 -30t-133.5 -83zM550 426q59 -49 133 -80t159 -31q84 0 158.5 31t133.5 80h-584zM554 119l27 -11l15 42l39 -16l10 26l-39 15l7 19l50 -19l8 26l-75 25zM600 474h578q46 56 71.5 127t25.5 151q0 82 -27 153.5t-84 142.5zM647 1426l21 6l23 -100l50 10 l3 -20l-66 -15zM654 124l3 -15l6 -13l12 -11q3 -4 7 -5.5t6 -3.5q7 -4 15 -4q5 -1 9 -1h7q5 0 14 2q4 2 8.5 3t7.5 4q6 2 11 10l9 11q4 7 6 18v15q0 3 -0.5 6.5t-2.5 9.5l-3 7.5t-4 6.5l-8 11q-3 3 -7 5l-8 4q-4 1 -7 2t-8 3q-5 1 -9 1h-7q-10 0 -15 -5q-4 0 -7.5 -1 t-7.5 -4l-11 -10q-4 -8 -11 -11q-2 -5 -3.5 -9t-1.5 -7v-19zM685 124q-3 5 0 14q0 6 5 12l6 9l13 5h12l12 -5l9 -9q2 -3 4 -5.5t2 -6.5q2 -9 0 -14q0 -3 -2 -6.5t-4 -5.5q-3 -4 -4.5 -6.5t-4.5 -4.5q-4 -1 -6.5 -2t-5.5 -1q-7 -3 -12 0q-3 0 -7 1t-6 2l-8 11q-2 2 -2.5 5.5 t-0.5 6.5zM736 1445l21 2l10 -100l52 5v-21l-70 -9zM784 178l3 -122l28 1v81l52 -81h26v121h-31l4 -77q-1 0 -1 4q0 1 -1.5 1t-1.5 2q0 4 -1 4l-42 61q0 1 -3 2q-1 3 -8 3h-9h-15zM865 1331l13 121l45 -5q6 0 14 -4q9 -5 11 -10q4 -3 6 -14q4 -7 3 -15q-3 -3 -3 -6.5 t-2 -8.5l-9 -12q-4 -4 -14 -7q-3 -2 -14 -2l-25 4l-5 -45zM891 1391l25 -2h8q3 0 7 5q3 0 3 5q2 2 4 8q0 5 -1 7l-2 4l-1 1q-2 3 -3.5 4t-2.5 1q-2 2 -3.5 2t-2.5 1l-26 3zM903 179l4 -26l35 6l16 -91l27 5l-16 91l31 6l-5 26zM954 1321l31 116l45 -13q6 0 11 -5t11 -10 q4 -5 4 -13q1 -5 0.5 -9t-0.5 -7q-2 -5 -5 -10q-4 -5 -7 -7q-8 -5 -10 -5q-3 -2 -5.5 -2.5t-3.5 -2.5l22 -58l-16 1q-1 2 -3 4t-3 2q-4 2 -5 9l-20 47l-15 4l-11 -46zM990 1380l26 -7h3h2q3 0 4 1t4 1q2 0 2 1v2q5 5 5 7v8v3t-1 3q-1 2 -2.5 2.5t-1.5 2.5q-3 3 -6 3l-25 5z M1011 176q0 -3 3 -7q2 -9 10 -14q1 0 3.5 -1.5t3.5 -3.5q4 0 7 -1.5t6 -1.5h13h10h2q2 0 3 -3q4 0 4 -1h3v-5q0 -2 -1 -3t-1 -2v-1q-1 0 -2 -2.5t-3 -2.5q-1 -3 -5 -3h-3h-2h-3.5h-2.5h-6h-9l-5 -1v-2t-1 -2l-5 -7q1 -4 3 -6.5t3 -4.5q4 -1 7.5 -2t7.5 -1q8 -3 11 -2 q4 0 8 1t7 1l7 3.5l9 4.5q4 4 5.5 6t4.5 7q0 5 2.5 7.5t2.5 7.5t-0.5 8.5t-4.5 7.5q0 8 -5 10q-1 7 -8 9l-13 5h-15h-6h-9h-3v1q-3 3 -3 4l-2 1q2 0 2 4v1h3h6v4h1h5h3q3 0 3 1h9q0 3 1 4v2l5 10l-6 4q-9 4 -12 4q-2 0 -4.5 1t-4.5 1q-4 0 -6.5 -1t-4.5 -1l-13 -8 q-2 -1 -4 -3.5t-3 -6.5q-8 -6 -8 -16v-4zM1056 1319v12q0 12 6 22q0 5 2.5 8.5t6.5 6.5q1 3 4.5 5.5t6.5 4.5q3 3 7 4t9 3q4 3 14 4h15q9 -1 17 -7q8 -4 15 -9q3 -3 5.5 -6.5t4.5 -4.5q2 -4 4 -7t4 -7q1 -5 2 -8.5t1 -7.5v-8t-2 -8q-1 -4 -2 -7.5t-4 -8.5q-3 -4 -4 -7t-4 -7 q-3 -3 -6.5 -5t-4.5 -6q-4 -2 -7 -4t-7 -5q-6 0 -17 -1q-12 0 -17 1q-5 0 -15 5q-12 5 -19 15q-9 9 -14 21q-1 7 -1 12zM1074 1324q0 -2 1 -5t2 -5q0 -7 4 -10q1 -2 3 -5t3 -3q4 -5 11 -6q7 -4 10 -4h12h13q4 5 8 5q3 2 5 3.5t3 3.5q3 3 4 6t3 5q2 3 2.5 7.5t0.5 9.5v7.5 v7.5q-2 4 -4.5 8t-5.5 6q-6 7 -13 10q-2 2 -5.5 2.5t-7.5 0.5h-10q-6 0 -10 -1q-3 -2 -5 -3t-5 -1q-1 -2 -3.5 -4t-3.5 -4l-7 -8q-2 -4 -2.5 -7t-2.5 -6v-10zM1122 143q0 -4 1 -4v-1q0 -6 4 -6q1 -5 7 -5h7q5 0 7 2q1 2 3 2.5t2 2.5v2q0 2 1 2l4 3v2q0 6 -5 7l-4 5 q-1 4 -3 4t-3.5 0.5t-3.5 0.5q-1 -1 -6 -1l-8 -4q-2 -1 -2 -3v-2q-1 -2 -1 -6v-1zM1134 221q0 -5 2 -7.5t2 -7.5l6 -16q3 -3 6 -5t4 -5l15 -10l13 -2q5 -3 16 -3q4 0 7 1.5t7 2.5q5 1 9 3.5t7 5.5l5 2.5t5 4.5q3 0 5 4t5 7l3 14q5 4 5 13l-12 2h-6l-7 -4q-2 0 -3.5 -2.5 t-1.5 -4.5l-5 -9l-9 -6q-4 -3 -6 -4t-6 -1q-6 -3 -12 0q-3 2 -5.5 2t-5.5 3q-7 4 -8 11q-5 1 -5 11q-5 3 0 15v3.5t2 7.5q2 2 4 3.5t5 3.5q8 3 10 3q3 2 10 2q2 0 10 3q2 4 5 5l2 7v9q-3 5 -12 5h-13l-15 -5l-11 -5q-2 -2 -5.5 -5t-6.5 -7q-2 -2 -4 -5.5t-4 -8.5l-7 -15v-16 zM1210 1194l41 127l11 -9q0 -1 1.5 -3t3.5 -3q0 -5 -2 -10l-29 -87l85 39q1 1 7 1q5 0 7 -4l11 -7l-120 -55zM1221 292q0 -4 3 -9l4 -14l10 -12l13 -10q5 -1 8 -3.5t8 -2.5t8.5 -2t6.5 -2t6.5 2t8.5 2q3 0 7 2.5t8 3.5q6 3 13 10l10 12q1 2 3 5.5t2 8.5q1 5 1 15v15l-6 14 q-2 4 -3 7l-5 7l-14 13l-16 3q-3 2 -15 2h-6.5t-8.5 -2l-13 -3q-4 -3 -8.5 -6.5t-6.5 -6.5q-3 -3 -4.5 -6t-3.5 -6q-3 -3 -4 -7t-3 -9q0 -3 -1.5 -6.5t-1.5 -8.5v-6zM1251 288v10v12q4 8 9 13l11 8q3 0 6 0.5t5 0.5q5 0 13 -3q2 -1 5 -3t6 -5q2 -2 4 -5t3 -6q3 -3 3 -12 q0 -2 -1 -4l-2 -7q-3 -9 -7 -11q-8 -7 -11 -9q-3 -1 -6.5 -1h-6.5t-6.5 0.5t-4.5 0.5l-11 9q-4 4 -9 12zM1262 1147l92 78l50 -58l-14 -14l-38 45l-24 -19l30 -37l-17 -12l-28 36l-24 -21l36 -43l-15 -12zM1282 380l99 -67l17 24l-47 33l61 -13l11 21l-33 51l48 -31l15 25 l-100 64l-13 -16q-2 -2 -3 -4t-1 -6q0 -2 1 -4t3 -5l41 -59l-70 10h-11l-9 -6zM1316 1080l103 63l24 -38q2 -3 2.5 -6t2.5 -8q2 -7 -2 -13q-2 -9 -5 -13l-4.5 -4.5t-6.5 -5.5l-6 -1.5t-5 -2.5q-4 0 -5.5 -0.5t-4.5 0.5q-4 0 -10 3q-4 1 -5.5 1.5t-3.5 3.5l-24 -61l-9 14 q-4 2 -4 7q0 6 3 9l20 48l-8 14l-43 -26zM1369 984q0 4 3 14q0 3 2 6l3 4q0 4 2 4q4 2 3 2l4 -2q3 -5 6 -7q0 -1 0.5 -2.5t0.5 -3.5q0 -3 -3 -6v-1v-8q0 -5 2 -8q0 -2 1 -3t2 -4q2 0 3.5 -1.5l3.5 -3.5h2t4 -2h4.5t4.5 2q2 0 5 3q2 4 2 5q1 2 1 7v8v4v13q0 8 2 13 q1 2 2.5 4.5t4.5 5.5q2 2 4.5 3.5t6.5 3.5q8 3 14 1q6 0 12 -3q3 -2 7 -3.5t6 -5.5q3 -3 6 -11q2 -7 2 -11q0 -7 -1 -10q0 -4 -4 -10v-4.5t-2 -3.5l-6 4q-3 1 -4 2.5t-4 3.5q-1 3 -1 5v4q1 1 1 7q0 4 -1 6q-2 3 -2 7q-3 0 -5 3q-2 2 -5 2q-3 1 -5 0l-2.5 -2.5l-1.5 -1.5 l-2 -2l-2 -2v-8v-10v-3v-2v-10q0 -2 -0.5 -4.5t-0.5 -4.5q-4 -14 -20 -22q-4 -2 -7.5 -3t-8.5 1q-6 0 -14 2q-4 3 -7.5 5t-5.5 6q-3 2 -5 6t-4 7q-3 10 -3 15zM1384 1099l14 -20q2 -5 4 -6q1 0 6 -3h6q1 0 5 3q1 0 6 3q0 3 1 4t1 3q1 1 1 7q-1 1 -1 2.5t-2 3.5l-11 19z M1392 921l115 34l5 -19l-115 -34zM1409 833q-1 13 1 23q5 13 10 21q7 10 19 17q5 3 11 5.5t11 2.5h20q6 0 14 -5q4 0 7.5 -2.5t4.5 -4.5q4 -3 7.5 -5.5t6.5 -5.5q4 -8 7 -13q3 -8 5 -18v-15q-2 -10 -5 -16q-1 -5 -3 -8.5t-4 -6.5l-11 -10q-4 -4 -7.5 -6t-6.5 -3 q-7 -4 -15 -4q-10 -1 -20 0q-8 0 -15 4q-2 1 -6 2.5t-7 4.5t-6 6.5t-5 5.5q-7 5 -8 15q-2 3 -3.5 6.5t-1.5 9.5zM1410 660l2 17l98 61l-93 5l1 21l120 -10v-12q0 -5 -1 -9q-4 -2 -4 -5l-83 -51l83 -6l-1 -20zM1428 836q2 -8 5 -12q0 -6 5 -9q1 -3 3 -5t3 -5q2 0 4.5 -1.5 t5.5 -3.5q2 -1 4.5 -1h5.5q5 -4 12 0q11 0 16 5q5 1 13 11q6 8 6 15q3 7 1 16q0 7 -2 10q-3 4 -3.5 6t-1.5 4q-3 2 -4.5 3.5l-3.5 3.5l-10 6q-3 3 -11 3q-5 3 -12 0q-8 0 -10 -3q-5 -2 -10 -6q-4 -2 -6 -7q-5 -5 -5 -10q-2 -1 -2.5 -4t-2.5 -6v-10z" />
<glyph unicode="A" horiz-adv-x="1438" d="M69 25q0 6 3 14l617 1475q7 15 21 16h12q8 0 14 -4.5t9 -16.5l615 -1468q4 -8 4 -16t-11.5 -16.5t-25.5 -8.5q-12 0 -18 16l-97 231h-992l-94 -227q-5 -11 -9 -16q-3 -4 -10 -4h-3q-17 0 -26 8t-9 17zM245 305h943l-472 1126z" />
<glyph unicode="B" horiz-adv-x="1366" d="M166 14v1479q0 12 3 18.5t6.5 8.5t6.5 2h4h619q81 0 152 -29.5t124.5 -80t84 -120.5t30.5 -151q0 -57 -16 -108.5t-44 -94.5t-67 -78t-86 -59q61 -17 114 -57.5t92 -94.5t61 -119t22 -133q0 -79 -30 -150t-81.5 -124.5t-120.5 -86.5t-147 -36h-711q-8 2 -11 6t-5 8z M223 57h672l-2 -1v-1q66 4 124.5 32t102 74t69 105.5t25.5 128.5t-27.5 134.5t-73.5 116.5t-106.5 82.5t-125.5 31.5h-658v-703zM223 817h582q69 0 130 24t106.5 67t72.5 102t27 129q0 69 -27 128.5t-72.5 103t-107 68.5t-129.5 25h-582v-647z" />
<glyph unicode="C" horiz-adv-x="1471" d="M109 758q0 106 27.5 206t77.5 186.5t121.5 157.5t157.5 122.5t185 79.5t207 28q143 0 267.5 -48.5t227.5 -131.5q15 -11 16 -24q0 -11 -11 -23.5t-22 -12.5t-22 11q-96 80 -211 123t-245 43q-99 0 -190.5 -26t-171 -72.5t-144.5 -112t-111.5 -145.5t-72 -171.5 t-25.5 -189.5t25.5 -189.5t72 -170.5t111.5 -144.5t144.5 -111.5t170.5 -71.5t191 -25.5q130 0 245 43.5t211 120.5q10 9 22 9t22.5 -12t10.5 -24t-16 -22q-103 -83 -227.5 -130.5t-267.5 -47.5q-108 0 -207 27.5t-185 78t-157.5 121.5t-121.5 157.5t-77.5 185.5t-27.5 206z " />
<glyph unicode="D" horiz-adv-x="1566" d="M170 20v1473q0 26 20 29h506q103 -2 200 -30.5t181 -78t153 -118.5t118.5 -153t76.5 -181.5t27 -202.5q0 -106 -27.5 -203.5t-78 -181.5t-120.5 -152.5t-156 -118t-184.5 -76t-203.5 -26.5h-481q-8 0 -13 1t-8 3l-4 4q-6 3 -6 12zM229 57h453q97 0 188 25.5t169.5 71 t143.5 109.5t111.5 141.5t72.5 166.5t26 187q0 97 -26 187.5t-72.5 169t-111.5 143t-143.5 110.5t-169.5 71t-188 25h-453v-1407z" />
<glyph unicode="E" horiz-adv-x="1330" d="M168 29v1464q0 12 4 19q4 6 8 8t8 3q1 -1 2 -1h9h991q31 0 31 -29t-31 -29h-963v-841h789q33 0 33 -31q0 -29 -33 -29h-789v-506h985q31 0 31 -28q0 -29 -31 -29h-1024q-11 0 -15.5 9t-4.5 20z" />
<glyph unicode="F" horiz-adv-x="1284" d="M170 29v1464q0 19 10 25q8 4 19 4h981q32 0 32 -27q0 -31 -32 -31h-953v-843h781q31 0 30 -31q0 -29 -30 -29h-781v-532q0 -29 -28 -29q-29 0 -29 29z" />
<glyph unicode="G" horiz-adv-x="1544" d="M115 758q0 106 27.5 206t77.5 186.5t121.5 157.5t157.5 122.5t185 79.5t207 28q143 0 268 -48.5t227 -131.5q15 -11 16 -24q0 -11 -11 -23.5t-22 -12.5t-21 11q-96 80 -211.5 123t-245.5 43q-98 0 -189.5 -26t-170.5 -72.5t-144.5 -112t-112.5 -145.5t-72.5 -171.5 t-25.5 -189.5t25.5 -189.5t72.5 -171.5t112.5 -145.5t144.5 -112.5t170.5 -72.5t189.5 -25.5q127 0 241.5 42.5t210.5 115.5v376h-450q-30 0 -30 29q0 30 30 30h481q26 0 29 -26v-428q-2 -8 -5.5 -13.5t-13.5 -8.5q-102 -82 -226.5 -129t-266.5 -47q-108 0 -207 27.5 t-185 78t-157.5 121.5t-121.5 157.5t-77.5 185t-27.5 206.5z" />
<glyph unicode="H" horiz-adv-x="1550" d="M166 29v1464q0 29 29 29t28 -29v-870h1098v870q0 29 29 29q31 0 30 -29v-1464q0 -29 -30 -29q-29 0 -29 29v534h-1098v-534q0 -29 -28 -29q-29 0 -29 29z" />
<glyph unicode="I" horiz-adv-x="381" d="M167 29v1464q0 29 31 29q29 0 28 -29v-1464q0 -29 -28 -29q-31 0 -31 29z" />
<glyph unicode="J" horiz-adv-x="796" d="M27 109q0 6 6 12q16 16 26 16q11 0 21 -12q13 -14 32 -28t45 -25t59 -18t75 -7q66 0 118 24t89.5 63.5t59 88.5t24.5 101v1169q0 29 28 29q29 0 29 -29v-1174v-6t-2 -8q-4 -73 -32 -131t-74.5 -99.5t-106.5 -64t-129 -22.5q-73 0 -141.5 21t-110.5 67q-16 19 -16 33z" />
<glyph unicode="K" horiz-adv-x="1378" d="M166 29v1464q0 29 29 29t28 -29v-733l877 756q10 8 19 8q10 0 20.5 -12t10.5 -21q0 -11 -11 -21l-445 -383l621 -1046q5 -12 5 -17q0 -9 -11.5 -19.5t-23.5 -10.5q-11 0 -21 16l-617 1039l-424 -365v-655q0 -29 -28 -29q-29 0 -29 29z" />
<glyph unicode="L" horiz-adv-x="1150" d="M160 29v1464q0 29 30 29q29 0 29 -29v-1436h819q31 0 31 -28q0 -29 -31 -29h-848q-19 0 -24 8q-6 6 -6 21z" />
<glyph unicode="M" horiz-adv-x="1837" d="M80 35l123 1495q6 35 33 35q14 0 20 -15l664 -1458l1 -3l1 3l663 1458q6 14 21 15q27 0 32 -35l123 -1495q0 -12 -6 -24.5t-20 -12.5t-22.5 8.5t-8.5 24.5l-115 1388l-641 -1413q-9 -22 -26 -22h-2q-17 0 -27 22l-641 1413l-115 -1388q0 -15 -8 -24t-23 -9 q-14 0 -20 12.5t-6 24.5z" />
<glyph unicode="N" horiz-adv-x="1581" d="M166 29v1495q0 28 21 28h1q9 0 14 -2t11 -8l1141 -1464v1415q0 29 28 29q29 0 29 -29v-1511q-3 -23 -27 -23q-12 0 -17.5 3.5t-10.5 8.5l-1131 1463v-1405q0 -29 -28 -29q-31 0 -31 29z" />
<glyph unicode="O" horiz-adv-x="1761" d="M83 760q0 106 27.5 205.5t78 186t121.5 157.5t157 122t185.5 79t206.5 28q161 0 302.5 -61.5t247 -167.5t167 -247t61.5 -302q0 -108 -28 -207t-78.5 -185t-122 -157.5t-158 -121.5t-185.5 -77.5t-206 -27.5q-108 0 -207 27.5t-185 77.5t-157 121.5t-121.5 157.5t-78 185 t-27.5 207zM144 760q0 -147 56.5 -277.5t154 -227.5t227.5 -153.5t277 -56.5q98 0 189.5 25.5t171 72t145.5 112.5t113 145t72.5 170.5t25.5 189.5t-25.5 189t-72.5 171t-113 145.5t-145.5 112.5t-171 73t-189.5 26t-189 -26t-170.5 -73t-145 -112.5t-112 -145.5t-72.5 -171 t-26 -189z" />
<glyph unicode="P" horiz-adv-x="1267" d="M166 29v1464q0 17 8 23l12 6h383q98 0 181 -25.5t148 -69t113.5 -100.5t81 -122t48.5 -134t16 -135t-16 -134t-48.5 -133t-81 -123t-113.5 -101t-147 -68t-182 -25h-346v-323q0 -29 -28 -29q-29 0 -29 29zM223 412h346q90 0 165 22.5t134.5 62t103.5 91t72.5 110t43 120 t14.5 118.5q0 58 -14.5 120t-43 120.5t-72.5 111t-103.5 91.5t-134.5 62t-165 23h-346v-1052z" />
<glyph unicode="Q" horiz-adv-x="1761" d="M83 760q0 106 27.5 205.5t78 186t121.5 157.5t157 122t185.5 79t206.5 28q161 0 302.5 -61.5t247 -167.5t167 -247t61.5 -302q0 -105 -26.5 -202.5t-75.5 -182.5t-117 -155t-151.5 -121t-179.5 -80t-199 -33v-213q0 -31 -29 -31t-29 31v213q-104 3 -199.5 32.5t-179 80.5 t-151.5 121t-116.5 155t-74.5 182.5t-26 202.5zM144 760q0 -147 56.5 -277.5t154 -227.5t227.5 -153.5t277 -56.5q98 0 189.5 25.5t171 72t145.5 112.5t113 145t72.5 170.5t25.5 189.5t-25.5 189t-72.5 171t-113 145.5t-145.5 112.5t-171 73t-189.5 26t-189 -26t-170.5 -73 t-145 -112.5t-112 -145.5t-72.5 -171t-26 -189z" />
<glyph unicode="R" horiz-adv-x="1355" d="M164 29v1464q0 17 8 23l12 6h486q148 0 256.5 -50t180 -129.5t106 -178.5t34.5 -197q0 -69 -17 -138t-51.5 -132.5t-87 -118.5t-122.5 -93l209 -440q9 -15 2.5 -29t-27.5 -16q-15 0 -27 9.5t-20 33.5l-197 414q-104 -43 -239 -43h-449v-385q0 -29 -28 -29q-29 0 -29 29z M221 473h449q90 0 163.5 20.5t131.5 56t100 83.5t69 103t40.5 114t13.5 117t-13.5 117.5t-40.5 114.5t-69 104t-100 84.5t-131.5 56t-163.5 20.5h-449v-991z" />
<glyph unicode="S" horiz-adv-x="1234" d="M115 252q0 14 6 23.5t20 9.5q7 0 13 -6.5t12 -15.5q35 -53 80.5 -96t100 -74t118 -47t135.5 -16q89 0 172.5 20.5t148 66.5t103.5 119t39 180q0 76 -38 128t-100 90t-141 65.5t-161.5 55t-162 59.5t-141.5 77t-100 108.5t-38 154.5q0 97 34 172t93 126t138 77t170 26 q111 0 214.5 -44t186.5 -140q7 -8 8 -12.5t1 -10.5q0 -10 -6.5 -18t-14.5 -8t-14.5 5t-17.5 16q-39 38 -77.5 67t-81 48.5t-91 29t-107.5 9.5q-85 0 -155.5 -25t-121 -70.5t-79 -108.5t-28.5 -139q0 -79 38 -134t100.5 -95t142 -69.5t163 -57t163 -58.5t141.5 -74 t100 -103.5t38 -146.5q0 -116 -42.5 -200t-113.5 -138.5t-165.5 -81.5t-196.5 -27q-67 0 -132.5 14t-126.5 44.5t-116 79t-98 117.5q-5 8 -8.5 13.5t-3.5 14.5z" />
<glyph unicode="T" horiz-adv-x="1150" d="M37 1493q0 29 29 29h997q33 0 33 -29t-33 -29h-463v-1435q0 -29 -29 -29t-28 29v1435h-477q-29 0 -29 29z" />
<glyph unicode="U" horiz-adv-x="1527" d="M115 596v897q0 29 28 29q29 0 29 -29v-897q0 -118 44 -220.5t120.5 -178.5t178.5 -120t220 -44t220.5 44t178.5 120t120 178.5t44 220.5v897q0 29 31 29q29 0 29 -29v-905q-1 -85 -23.5 -163.5t-63 -146.5t-97.5 -124t-125.5 -96t-148 -61.5t-165.5 -21.5q-129 0 -242 49 t-197 133t-132.5 197t-48.5 242z" />
<glyph unicode="V" horiz-adv-x="1404" d="M35 1502q0 8 12 16.5t26 8.5q11 0 17 -16l594 -1456l590 1452q6 20 20 21q15 0 25.5 -9t10.5 -17q0 -6 -3 -13l-616 -1518q-8 -15 -22 -15q-1 0 -2 0.5t-3 0.5t-3 -0.5t-3 -0.5q-17 0 -25 21l-614 1510q-4 8 -4 15z" />
<glyph unicode="W" horiz-adv-x="2119" d="M36 1503q0 8 12 16t25 8t19 -16l592 -1456l338 848l33 74l200 530q6 20 21 21q15 0 25.5 -9t10.5 -17q0 -6 -3 -13l-226 -584l340 -850l590 1452q6 20 22 21q17 0 26.5 -9t9.5 -17t-3 -13l-618 -1518q-4 -8 -8 -11.5t-12 -3.5q-2 0 -3.5 0.5t-3.5 0.5t-3 -0.5t-3 -0.5 q-18 0 -22 21l-344 854l-340 -860q-4 -8 -8.5 -11.5t-12.5 -3.5q-2 0 -3 0.5t-3 0.5t-3 -0.5t-3 -0.5q-8 0 -14.5 5t-8.5 16l-614 1510q-5 7 -5 16z" />
<glyph unicode="X" horiz-adv-x="1175" d="M56 28q0 9 7 19l484 715l-484 715q-7 10 -7 19q0 11 13 20.5t22 9.5q10 0 22 -15l471 -696l473 696q9 14 22 15q11 0 22 -9.5t11 -20.5q0 -9 -6 -19l-488 -715l488 -715q6 -11 6 -18q0 -10 -9 -19.5t-24 -9.5q-13 0 -22 12l-473 697l-471 -697q-11 -12 -23 -12 q-10 0 -22 8t-12 20z" />
<glyph unicode="Y" horiz-adv-x="1220" d="M65 1495q0 12 12.5 21.5t21.5 9.5q12 0 22 -15l483 -811l483 811q11 14 23 15q11 0 23 -9.5t12 -20.5q0 -8 -8 -19l-502 -840v-608q0 -29 -29 -29q-31 0 -31 29v606l-503 842q-7 10 -7 18z" />
<glyph unicode="Z" horiz-adv-x="1220" d="M46 24q0 7 4 14.5t8 12.5l983 1413h-898q-31 0 -30 29q0 29 30 29h949q26 0 28 -27v-2q0 -6 -4 -12.5t-8 -12.5l-981 -1411h985q29 0 29 -28q0 -29 -29 -29h-1035q-31 0 -31 24z" />
<glyph unicode="[" horiz-adv-x="496" d="M171 -263v2016q0 23 23 23h270q10 0 17 -6.5t7 -16.5v-11q0 -26 -24 -26h-235v-1943h235q10 0 17 -6.5t7 -16.5v-13q-2 -12 -7 -17.5t-17 -5.5h-270q-23 0 -23 23z" />
<glyph unicode="\" horiz-adv-x="727" d="M32 1502q0 8 11 17t26 9q11 0 19 -17l577 -1475q3 -8 3 -13q0 -8 -9.5 -17t-25.5 -9q-15 0 -23 21l-574 1469q-4 8 -4 15z" />
<glyph unicode="]" horiz-adv-x="517" d="M7 -250q0 10 7.5 16.5t17.5 6.5h234v1943h-234q-25 0 -25 26v11q0 10 7.5 16.5t17.5 6.5h270q23 0 23 -23v-2016q0 -23 -23 -23h-270q-12 0 -17.5 5.5t-7.5 17.5v13z" />
<glyph unicode="^" horiz-adv-x="842" d="M179 1324q0 8 6 17l301 309q6 6 14 6t16 -8l306 -307q6 -6 6 -14q0 -9 -8 -17l-9 -10q-6 -8 -15 -8q-8 0 -17 8l-276 280l-276 -282q-7 -7 -15 -7q-11 0 -18 9l-9 8q-6 9 -6 16z" />
<glyph unicode="_" horiz-adv-x="946" d="M-28 -154q0 29 30 29h952q32 0 32 -29q0 -30 -32 -29h-952q-30 0 -30 29z" />
<glyph unicode="`" horiz-adv-x="539" d="M160 1492q0 10 9 19t22 9q8 1 14 -4.5t11 -13.5l144 -255q4 -8 5 -16q0 -11 -11 -20t-24 -9q-14 0 -24 19l-141 254q-5 10 -5 17z" />
<glyph unicode="a" horiz-adv-x="1229" d="M95 503q0 109 39 205t106 167.5t157 113t192 41.5q73 0 141.5 -21.5t126 -61.5t101.5 -96t68 -126v249q0 32 32 32q29 0 28 -32v-944q0 -30 -28 -30q-32 0 -32 30v261q-20 -70 -64 -128t-103 -99t-129 -64t-141 -23q-101 0 -191.5 41.5t-157.5 113t-106 167t-39 204.5z M156 503q0 -95 33.5 -180t92 -149t137.5 -101t170 -37q89 0 168.5 37t138 101t93 149t34.5 180q0 96 -34.5 181.5t-93 149t-138 101t-168.5 37.5q-91 0 -170 -37.5t-137.5 -101t-92 -149t-33.5 -181.5z" />
<glyph unicode="b" horiz-adv-x="1241" d="M157 34v1456q0 30 28 30q32 0 32 -30v-776q6 15 14.5 34.5t17.5 39t19.5 37.5t21.5 30q34 38 75.5 69.5t88.5 54.5t97.5 35.5t102.5 12.5q101 0 191.5 -41.5t157.5 -113t106 -167t39 -203.5q0 -110 -39 -205.5t-106 -167.5t-157 -113.5t-192 -41.5q-112 0 -206.5 48 t-164.5 132h2q-24 29 -39.5 67t-28.5 69v-256q0 -32 -32 -32q-29 0 -28 32zM220 502q0 -96 34.5 -182t93.5 -149t138 -100.5t168 -37.5q91 0 170 37.5t137.5 100.5t92 149t33.5 182q0 95 -33.5 180t-92 149t-137.5 101t-170 37q-89 0 -168 -37t-138 -101t-93.5 -149 t-34.5 -180z" />
<glyph unicode="c" horiz-adv-x="1090" d="M97 500q0 109 41 204t112 166t166 112t204 41q102 0 186.5 -36t155.5 -95q16 -13 16 -26q0 -10 -10 -20.5t-18 -10.5q-9 0 -19 10q-63 56 -143 88t-171 32q-95 0 -179.5 -37t-147.5 -100t-99.5 -148t-36.5 -180t36.5 -179.5t99.5 -147.5t147.5 -100t179.5 -37 q93 0 174 31.5t144 90.5q10 8 19 8q11 0 21 -10t10 -21q0 -12 -16 -24v2q-74 -67 -161.5 -101.5t-187.5 -34.5q-109 0 -204 41t-166 112.5t-112 166.5t-41 203z" />
<glyph unicode="d" horiz-adv-x="1229" d="M96 502q0 109 39 204t106 166.5t157 113t192 41.5q52 0 102.5 -12.5t98 -35.5t89 -54.5t74.5 -69.5q11 -12 21.5 -30t20 -37.5t17.5 -39t14 -34.5v776q0 30 32 30q29 0 28 -30v-1456q0 -32 -28 -32q-32 0 -32 32v256q-13 -31 -28.5 -69.5t-39.5 -66.5h3 q-71 -84 -166 -132t-206 -48q-101 0 -191.5 41.5t-157.5 113.5t-106 167.5t-39 205.5zM157 502q0 -96 33.5 -182t92 -149t137.5 -100.5t170 -37.5q89 0 168.5 37.5t138 100.5t93 149t34.5 182q0 95 -34.5 180t-93 149t-138 101t-168.5 37q-91 0 -170 -37t-137.5 -101 t-92 -149t-33.5 -180z" />
<glyph unicode="e" horiz-adv-x="1171" d="M103 500q0 109 38.5 204t104.5 166t154 112t188 41q94 0 178 -38.5t148.5 -105t105 -156t47.5 -192.5q2 -4 2 -6.5v-4.5q0 -30 -29 -30h-878q0 -95 37 -178t99.5 -144.5t146.5 -96.5t179 -35q96 0 176.5 31.5t143.5 90.5q9 9 20 9q8 0 18 -8.5t10 -21.5t-16 -26v2 q-72 -67 -159.5 -101.5t-189.5 -34.5q-109 0 -204 41t-166.5 112t-112.5 166t-41 204zM162 552h847q-8 86 -45 161t-94.5 131t-130 88t-153.5 32t-153.5 -32t-129 -87t-94 -130.5t-47.5 -162.5z" />
<glyph unicode="f" horiz-adv-x="630" d="M49 975q0 30 30 30h148v216q0 87 24.5 144.5t66.5 92.5t97.5 50t115.5 15q18 0 27 -10t9 -24q0 -15 -11 -22t-22 -7h-7q-51 0 -94 -13q-46 -14 -77.5 -44.5t-49 -77.5t-17.5 -112v-208h216q13 0 22.5 -7.5t9.5 -22.5t-9.5 -23.5t-22.5 -8.5h-216v-918q0 -29 -32 -29 q-30 0 -30 29v918h-148q-30 0 -30 32z" />
<glyph unicode="g" horiz-adv-x="1225" d="M95 503q0 109 39 205t106 167.5t157 113t192 41.5q73 0 141.5 -21.5t126 -61.5t101.5 -96t68 -126v249q0 32 32 32q29 0 28 -32v-821v-6q-1 -106 -31.5 -202t-91 -168t-150.5 -114t-210 -42q-66 0 -129 14.5t-125 39.5q-14 8 -21 17t-3 24q6 13 14.5 18t27.5 -2 q61 -24 115.5 -39.5t108.5 -15.5q87 0 166 27t138.5 85.5t95 152t35.5 226.5v123q-20 -70 -64 -128t-103 -99t-129 -64t-141 -23q-101 0 -191.5 41.5t-157.5 113t-106 167t-39 204.5zM156 503q0 -95 33.5 -180t92 -149t137.5 -101t170 -37q89 0 168.5 37t138 101t93 149 t34.5 180q0 96 -34.5 181.5t-93 149t-138 101t-168.5 37.5q-91 0 -170 -37.5t-137.5 -101t-92 -149t-33.5 -181.5z" />
<glyph unicode="h" horiz-adv-x="1115" d="M146 27v1462q0 32 30 32q31 0 31 -32v-667q55 93 149.5 148t210.5 55q87 0 164 -33.5t134 -90.5t89.5 -133.5t32.5 -163.5v-577q0 -29 -30 -29t-29 29v583q-2 75 -30.5 140t-77 112.5t-113.5 75t-140 27.5q-74 0 -138.5 -27t-113 -74t-77 -110t-31.5 -137v-590 q0 -29 -31 -29q-30 0 -30 29z" />
<glyph unicode="i" horiz-adv-x="388" d="M131 1303q0 26 18 43.5t44 17.5t43.5 -18t17.5 -43q0 -26 -18 -44t-43 -18q-26 0 -44 18t-18 44zM164 30v945q0 30 32 30q29 0 28 -30v-945q0 -30 -28 -30q-32 0 -32 30z" />
<glyph unicode="j" horiz-adv-x="437" d="M-81 -289q0 9 4 15t10 9t12.5 3.5t11.5 0.5q55 0 99.5 19t76.5 52t49 78t17 99v988q0 30 28 30q32 0 32 -30v-995q-2 -60 -24 -115t-60.5 -96t-90.5 -65.5t-114 -24.5q-27 0 -39 7.5t-12 24.5zM166 1303q0 26 18 43.5t43 17.5q26 0 44 -18t18 -43q0 -26 -18 -44t-44 -18 t-43.5 18t-17.5 44z" />
<glyph unicode="k" horiz-adv-x="1051" d="M146 30v1459q0 32 30 32q31 0 31 -32v-993l536 495h-2q15 15 25 16q8 0 14 -6t10 -13t6 -13l2 -6q0 -5 -2 -7l-336 -309l540 -601q9 -14 10 -22q0 -11 -11.5 -20t-22.5 -9t-21 10h2l-536 604l-214 -194v-391q0 -30 -31 -30q-30 0 -30 30z" />
<glyph unicode="l" horiz-adv-x="385" d="M163 30v1463q0 30 32 30q29 0 28 -30v-1463q0 -30 -28 -30q-32 0 -32 30z" />
<glyph unicode="m" horiz-adv-x="1680" d="M146 30v945q0 30 30 30q31 0 31 -30v-115q24 35 56 63.5t70.5 48.5t82 31t89.5 11q55 0 105 -15t92 -42t75 -66.5t54 -88.5q20 49 53.5 88.5t75 66.5t92.5 42t106 15q74 0 138 -26.5t112.5 -74t77 -111t31.5 -137.5v-635q0 -30 -32 -30q-30 0 -30 30v635 q-2 60 -25.5 112.5t-63.5 91.5t-93.5 61.5t-114.5 22.5q-60 0 -113 -22t-93.5 -59.5t-64.5 -89t-27 -110.5v-642q0 -30 -29 -30q-32 0 -31 30v642q-3 59 -26.5 110.5t-63.5 89t-93 59.5t-112 22q-61 0 -115.5 -23t-95 -63t-64 -94t-23.5 -116v-627q0 -30 -31 -30 q-30 0 -30 30z" />
<glyph unicode="n" horiz-adv-x="1115" d="M146 30v945q0 30 30 30q31 0 31 -30v-149q55 93 149.5 147t210.5 54q87 0 164 -32.5t134 -89.5t89.5 -133.5t32.5 -163.5v-578q0 -30 -30 -30t-29 30v582q-2 75 -30.5 140t-77 112.5t-113.5 75t-140 27.5q-74 0 -138.5 -26.5t-113 -73t-77 -109.5t-31.5 -136v-592 q0 -30 -31 -30q-30 0 -30 30z" />
<glyph unicode="o" horiz-adv-x="1250" d="M103 500q0 109 41 204t112 166t165.5 112t202.5 41q109 0 204 -41t166 -112t112 -166.5t41 -203.5t-41 -203t-112 -166.5t-166.5 -112.5t-203.5 -41t-202.5 41t-165.5 112.5t-112 166.5t-41 203zM162 500q0 -95 37 -179.5t100 -147.5t147.5 -100t180.5 -37q95 0 179.5 37 t147.5 100t100 147t37 180q0 95 -37 180t-100 148t-147.5 100t-179.5 37t-180 -37t-148 -100t-100 -148t-37 -180z" />
<glyph unicode="p" horiz-adv-x="1206" d="M134 -367v1341q0 32 29 32q32 0 32 -32v-253q13 31 28.5 69t38.5 67h-2q71 84 165.5 131.5t206.5 47.5q101 0 191 -41.5t157.5 -113t106 -168t38.5 -204.5q0 -109 -38.5 -204.5t-106 -166.5t-157.5 -112.5t-191 -41.5q-52 0 -103 12t-98 35t-88.5 54.5t-75.5 70.5 q-11 12 -21 30t-19.5 37.5t-17.5 39t-14 34.5v-664q0 -29 -30 -29h-2q-29 0 -29 29zM198 509q0 -95 34 -180t93 -149t138.5 -101t168.5 -37q91 0 170 37t137 101t92 149t34 180q0 96 -34 181.5t-92 149t-137 101t-170 37.5q-89 0 -168.5 -37.5t-138.5 -101t-93 -149 t-34 -181.5z" />
<glyph unicode="q" horiz-adv-x="1232" d="M93 509q0 109 39 205t106 167.5t157 113t192 41.5q112 0 206.5 -47.5t164.5 -131.5h-2q24 -29 39.5 -67t28.5 -69v253q0 32 32 32q29 0 28 -32v-1341q0 -29 -26 -29h-2q-32 0 -32 29v664q-6 -15 -14.5 -34.5t-17.5 -39t-19 -37.5t-22 -30q-34 -39 -75 -70.5t-88.5 -54.5 t-98 -35t-102.5 -12q-101 0 -191.5 41.5t-157.5 112.5t-106 166.5t-39 204.5zM154 509q0 -95 33.5 -180t92 -149t137.5 -101t170 -37q89 0 168.5 37t138 101t93 149t34.5 180q0 96 -34.5 181.5t-93 149t-138 101t-168.5 37.5q-91 0 -170 -37.5t-137.5 -101t-92 -149 t-33.5 -181.5z" />
<glyph unicode="r" horiz-adv-x="851" d="M146 30v941q0 30 30 29q31 0 31 -29v-158q16 50 46.5 88t70.5 63.5t87.5 38.5t97.5 13q67 0 129 -20t113 -56q5 -4 9.5 -9.5t4.5 -15.5q0 -13 -8 -21.5t-21 -8.5q-6 0 -12 1.5t-10 5.5q-42 28 -94.5 45.5t-105.5 17.5q-66 0 -121 -27t-95.5 -74.5t-63 -111t-22.5 -135.5 l-5 -577q0 -30 -31 -30q-30 0 -30 30z" />
<glyph unicode="s" horiz-adv-x="825" d="M69 197q0 8 7.5 16t25.5 8q9 0 16.5 -8t11.5 -22q12 -38 41 -67.5t66 -50t78.5 -31t77.5 -10.5q38 0 87.5 11.5t93 38t74 69.5t30.5 105q0 54 -29 95.5t-73.5 71.5t-96 48t-95.5 27q-48 9 -99 29.5t-92.5 52.5t-69 75.5t-27.5 98.5q0 62 21 112t60 85.5t94 54.5t122 19 q47 0 92 -9t85 -29t73 -53.5t57 -80.5q7 -14 8 -22q0 -6 -7.5 -16t-24.5 -10q-8 0 -14.5 5.5t-11.5 13.5q-36 68 -104.5 105t-152.5 37q-51 0 -93.5 -14t-73.5 -40.5t-48.5 -65t-17.5 -88.5q0 -36 15 -63.5t40 -49.5t55.5 -38.5t60 -28t57 -18.5t43.5 -10q151 -38 229 -113 t78 -177q0 -71 -30.5 -124.5t-79.5 -89t-110.5 -53.5t-124.5 -18q-121 0 -203 52t-115 144q0 8 -3 14t-3 12z" />
<glyph unicode="t" horiz-adv-x="618" d="M63 973q0 32 29 32h160v313q0 32 32 32q30 0 29 -32v-313h224q14 0 23.5 -8.5t9.5 -23.5q0 -14 -9.5 -21.5t-23.5 -7.5h-224v-651q0 -73 14.5 -118.5t42 -71t69.5 -35.5t96 -10q10 0 21.5 -7t11.5 -21q0 -22 -16.5 -26.5t-52.5 -4.5q-58 0 -104.5 14.5t-78 49t-48 93.5 t-16.5 148v640h-160q-29 0 -29 29z" />
<glyph unicode="u" horiz-adv-x="1137" d="M124 392v582q0 30 32 30q29 0 28 -30v-589q2 -76 30.5 -140t77 -111t113.5 -73.5t140 -26.5q76 0 142 27.5t114.5 76t76 113.5t27.5 141v582q0 30 30 30q32 0 32 -30v-944q0 -30 -32 -30q-30 0 -30 30v146q-57 -93 -151 -148t-209 -55q-87 0 -163.5 33t-134 90t-90.5 133 t-33 163z" />
<glyph unicode="v" horiz-adv-x="984" d="M36 972q0 11 9.5 21.5t24.5 10.5t24 -15l370 -886l367 879q5 9 12 15.5t15 6.5q16 0 24 -11.5t8 -18.5q0 -8 -2 -12q-97 -234 -198.5 -474t-197.5 -475q-4 -6 -10.5 -10.5t-14.5 -4.5h-6q-8 0 -16 6t-13 14l-394 944q-2 6 -2 10z" />
<glyph unicode="w" horiz-adv-x="1473" d="M22 975q0 8 8.5 19t24.5 11q18 0 24 -16l372 -886l247 588q0 7 4 11h-2l118 280q4 9 11.5 15.5t15.5 6.5q15 0 24 -11t9 -17q0 -7 -4 -14l-115 -273l246 -586l369 879v-2q7 23 26 22q16 0 25 -8.5t9 -16.5q0 -6 -3 -15l-397 -949q-9 -16 -22 -16q-4 0 -7 1h-6 q-8 0 -14.5 4.5t-8.5 15.5l-248 592l-251 -597q-3 -6 -9 -10.5t-14 -4.5h-7q-9 0 -17 6t-11 14l-394 944q-3 6 -3 13z" />
<glyph unicode="x" horiz-adv-x="801" d="M41 973q0 14 10.5 22.5t23.5 8.5q15 0 23 -12q74 -109 150 -218t148 -218q74 109 150 219t148 218q9 11 25 12q14 0 24.5 -9.5t10.5 -22.5q0 -7 -5 -16l-314 -457l310 -453q3 -6 4 -12q0 -14 -9 -24t-22 -10q-17 0 -27 12l-295 433l-295 -433q-9 -10 -25 -10 q-14 0 -23 10t-9 21q0 8 5 13l309 453q-77 111 -156 228.5t-156 227.5q-5 6 -5 17z" />
<glyph unicode="y" horiz-adv-x="950" d="M36 972q0 11 9.5 21.5t24.5 10.5t24 -15l370 -886l367 879q5 9 12 15.5t15 6.5q16 0 24 -11.5t8 -18.5q0 -8 -2 -12l-565 -1360q-8 -14 -25 -15q-13 0 -24 9.5t-11 20.5q0 5 3 11l164 395l-392 939q-2 6 -2 10z" />
<glyph unicode="z" horiz-adv-x="919" d="M34 31q0 5 3 11t8 14l716 885h-665q-32 0 -31 33q0 14 8 22.5t23 8.5h723q11 0 24.5 -6t13.5 -20q0 -7 -4 -14.5t-9 -16.5l-718 -888h704q30 0 30 -30t-30 -30h-767q-17 0 -23 9.5t-6 21.5z" />
<glyph unicode="{" horiz-adv-x="671" d="M56 741q0 24 17.5 28t48.5 4q55 5 90.5 28.5t56.5 61.5t29 88t8 108v374q0 80 27.5 142.5t74.5 106t108.5 66t129.5 22.5q19 0 28 -9.5t9 -23.5q0 -15 -9 -21t-28 -6q-65 0 -117 -21.5t-89 -59.5t-56 -90.5t-19 -115.5v-375q0 -112 -34.5 -190t-101.5 -115 q65 -36 100.5 -107t35.5 -181v-389q0 -62 19.5 -115t56.5 -91t90 -59.5t118 -21.5q10 0 22 -5.5t12 -21.5q0 -14 -8.5 -24t-28.5 -10q-70 0 -131 24.5t-108 69t-74 108.5t-27 143v383q0 53 -9.5 100t-31 82.5t-57 57.5t-86.5 26q-34 0 -50 3.5t-16 25.5z" />
<glyph unicode="|" horiz-adv-x="491" d="M223 -395v1921q0 39 23 39h11q11 0 18.5 -9.5t7.5 -29.5v-1921q0 -24 -7 -32t-19 -8h-11q-11 0 -17 8t-6 32z" />
<glyph unicode="}" horiz-adv-x="688" d="M-9 -248q0 15 11.5 21t22.5 6q66 0 118 21.5t88.5 59.5t56.5 90.5t20 115.5v389q0 111 35.5 182t99.5 106q-66 37 -100.5 115t-34.5 190v375q0 62 -19.5 115t-55.5 91t-88 59.5t-118 21.5q-18 0 -27 5.5t-9 21.5q0 14 8.5 23.5t27.5 9.5q69 0 130.5 -22.5t108 -66 t74.5 -106.5t28 -142v-374q0 -57 8 -107.5t29 -88.5t56.5 -61.5t90.5 -28.5q31 0 48 -4t17 -28q0 -23 -15.5 -26t-49.5 -3q-51 -4 -86.5 -26t-57 -57.5t-31 -82t-9.5 -100.5v-383q0 -80 -27.5 -143.5t-74 -108t-108.5 -69t-131 -24.5q-18 0 -27 10t-9 24z" />
<glyph unicode="~" horiz-adv-x="754" d="M119 546q0 5 3 11q30 41 66 66.5t90 25.5q22 0 38.5 -5t34 -13.5t36.5 -21t45 -25.5q15 -11 34 -17t37 -6q29 0 54.5 14.5t48.5 47.5q8 11 18 11q6 0 14 -5l11 -6q4 -2 7 -7.5t3 -11.5q0 -8 -4 -13q-33 -48 -71.5 -69t-83.5 -21q-31 0 -58.5 13.5t-55 30t-54 30.5 t-54.5 14q-31 0 -57 -15t-50 -49q-7 -11 -18 -11q-5 0 -14 5l-8 6q-12 7 -12 21z" />
<glyph unicode="&#xa1;" horiz-adv-x="555" d="M189 956q0 26 18 44t44 18t43.5 -18t17.5 -44t-18 -43.5t-43 -17.5q-26 0 -44 18t-18 43zM225 -486v1070q0 30 29 29q30 0 30 -29v-1070q0 -30 -30 -30q-29 0 -29 30z" />
<glyph unicode="&#xa2;" horiz-adv-x="1042" d="M77 500q0 100 35 189.5t97 159t146.5 114.5t182.5 56v156q0 29 29 28q29 0 29 -28v-152h3q102 0 186.5 -36t155.5 -95q16 -13 16 -26q0 -10 -9.5 -20.5t-17.5 -10.5q-9 0 -20 10q-63 56 -143 88t-170 32h-1l-58 -4q-85 -11 -159.5 -52t-128.5 -102.5t-85.5 -140 t-31.5 -166.5t31.5 -167t85.5 -140.5t128.5 -101.5t159.5 -51l59 -4q93 0 174 31.5t143 90.5q10 8 20 8q11 0 21 -10t10 -21q0 -12 -17 -24v2q-74 -67 -161.5 -101.5t-187.5 -34.5h-3v-164q0 -30 -29 -30q-30 0 -29 30v169q-97 11 -182 55.5t-147 114t-97 158.5t-35 190z " />
<glyph unicode="&#xa3;" horiz-adv-x="1189" d="M71 736q0 29 29 29h71v236q0 109 41.5 204t112.5 166.5t166.5 112.5t203.5 41q102 0 187.5 -36t154.5 -95q12 -10 16 -20.5t-6 -22.5q-17 -27 -40 -4q-63 56 -143.5 87.5t-170.5 31.5q-95 0 -179.5 -36.5t-147.5 -99.5t-100 -148t-37 -181v-236h408q32 0 32 -29 q0 -30 -32 -29h-408v-649h882q31 0 31 -28q0 -30 -31 -30h-910q-19 0 -25 9q-5 7 -5 21v677h-71q-30 0 -29 29z" />
<glyph unicode="&#xa4;" horiz-adv-x="1103" d="M170.5 558q-0.5 64 21 126t64.5 116l-69 68q-22 20 0 42t43 1l68 -67q53 47 116.5 71t129.5 25t130.5 -21t119.5 -67l60 60q9 10 20.5 10t22.5 -12q20 -19 -1 -41l-59 -59q48 -54 71.5 -119t23.5 -133t-24 -133.5t-72 -118.5l60 -60q10 -9 9.5 -20.5t-11.5 -22.5 q-19 -20 -41 1l-60 60q-59 -50 -125 -71t-131.5 -18t-126 28.5t-109.5 69.5l-70 -69q-22 -22 -42 0q-23 22 -1 43l70 69q-43 52 -65 115t-22.5 127zM224.5 558.5q0.5 -62.5 24.5 -123t73 -107.5q47 -48 106.5 -72.5t122 -24.5t123 24.5t108.5 72.5q46 47 70.5 107 t24.5 122.5t-24 122.5t-71 108q-48 47 -108.5 71.5t-123.5 24.5t-123 -23.5t-106 -70.5q-48 -48 -72.5 -108.5t-24 -123z" />
<glyph unicode="&#xa5;" horiz-adv-x="1174" d="M31 1501q3 10 14 17q26 19 41 -7l483 -811l484 811q18 25 43 7q26 -15 6 -41l-502 -840v-25h291q32 0 32 -28q0 -30 -32 -30h-291v-215h291q32 0 32 -30t-32 -29h-291v-251q0 -29 -29 -29q-31 0 -30 29v251h-310q-30 0 -29 29q0 30 29 30h310v215h-310q-30 0 -29 30 q0 29 29 28h310v23l-504 842q-9 14 -6 24z" />
<glyph unicode="&#xa6;" horiz-adv-x="513" d="M221 398q0 30 32 30q29 0 29 -30v-818q0 -30 -29 -30q-32 0 -32 30v818zM221 710v808q0 30 32 29q29 0 29 -29v-808q0 -30 -29 -30q-32 0 -32 30z" />
<glyph unicode="&#xa7;" horiz-adv-x="961" d="M113 162q0 8 7 17t27 9t30 -30q10 -38 39 -68t66 -50t78 -30t77 -10q38 0 86.5 11.5t92 37.5t73.5 68.5t30 103.5q0 53 -29.5 93.5t-73 70.5t-94 48.5t-94.5 26.5q-48 9 -99 31.5t-93 57t-69.5 79.5t-27.5 99q0 53 17 101.5t47.5 86t74.5 64t96 37.5q-43 14 -81.5 32.5 t-67.5 45t-46 63.5t-17 89q0 62 21 113t60.5 86.5t94 54.5t122.5 19q47 0 92 -9t84.5 -29t72.5 -52t58 -79q3 -7 5.5 -13.5t2.5 -12.5q0 -7 -8 -18t-26 -11q-9 0 -15.5 6.5t-11.5 14.5q-35 67 -103 103t-151 36q-50 0 -92 -14t-73 -40t-48.5 -64t-17.5 -87q0 -36 15.5 -63.5 t40 -49t55.5 -37.5t60.5 -27t55.5 -17.5t42 -9.5q155 -37 231.5 -112.5t76.5 -178.5q0 -54 -18.5 -99t-50 -78.5t-73.5 -57t-89 -36.5q104 -43 156 -108.5t52 -150.5q0 -71 -30.5 -124.5t-79.5 -89.5t-111 -53.5t-125 -17.5q-122 0 -204 50.5t-114 144.5q-2 8 -4 15t-2 12z M207 731q0 -43 22.5 -76t55.5 -58t71 -41.5t70 -27.5q8 1 16.5 1h17.5q38 0 86.5 11.5t92 37.5t73 68.5t29.5 104.5q0 49 -17 83.5t-46.5 60.5t-68.5 42.5t-82 31.5q-90 -2 -151.5 -22t-98.5 -52.5t-53.5 -74.5t-16.5 -89z" />
<glyph unicode="&#xa8;" horiz-adv-x="808" d="M173 1261q0 20 15 35t35 15t35 -15t15 -35t-14.5 -35.5t-35.5 -15.5q-20 0 -35 15.5t-15 35.5zM537 1261q0 20 14.5 35t35.5 15q20 0 35 -15t15 -35t-15 -35.5t-35 -15.5t-35 15.5t-15 35.5z" />
<glyph unicode="&#xa9;" horiz-adv-x="1805" d="M124 760q0 106 27.5 205.5t78 186t121.5 157.5t157 122t185.5 79t206.5 28q161 0 302 -61.5t247 -167.5t167.5 -247t61.5 -302q0 -108 -28 -207t-78.5 -185t-122 -157.5t-158 -121.5t-185.5 -77.5t-206 -27.5q-108 0 -207 27.5t-185 77.5t-157 121.5t-121.5 157.5 t-78 185t-27.5 207zM185 760q0 -147 56.5 -277.5t154 -227.5t227.5 -153.5t277 -56.5q98 0 189.5 25.5t171 72t145 112.5t113 145t73 170.5t25.5 189.5t-25.5 189t-73 171t-113 145.5t-145 112.5t-171 73t-189.5 26t-189 -26t-170.5 -73t-145 -112.5t-112 -145.5t-72.5 -171 t-26 -189zM444 762q0 -95 36 -178.5t98 -145.5t144.5 -98t176.5 -36q93 0 178 35q28 12 53.5 27t48.5 32q11 7 12 18t-4 19l-9 15q-8 13 -18.5 14.5t-18.5 -4.5q-23 -19 -49 -32q-46 -30 -96.5 -43.5t-99.5 -13.5q-75 0 -144 32t-122 86t-85 124.5t-32 148.5q0 77 30 146.5 t82.5 122.5t123.5 85t153 32q63 0 121 -21.5t110 -59.5q17 -11 24.5 -10t16.5 10l15 14q6 8 5 19.5t-12 18.5q-24 18 -49.5 33t-55.5 29q-84 36 -176 36q-95 0 -178.5 -36t-145 -98t-97.5 -145t-36 -176z" />
<glyph unicode="&#xaa;" horiz-adv-x="1152" d="M108 1166q0 79 30 148.5t81.5 121.5t121.5 81.5t148 29.5q51 0 98.5 -12.5t89 -36t75.5 -57t60 -74.5v130q0 30 32 30q29 0 28 -30l9 -667q0 -14 -11.5 -25.5t-25.5 -11.5q-32 0 -32 29v137q-27 -42 -62.5 -73.5t-77 -54t-88 -34t-95.5 -11.5q-79 0 -148.5 30t-121 81 t-81.5 120.5t-30 148.5zM168 1166q0 -68 25.5 -126t69 -101t102 -67.5t124.5 -24.5q67 0 125.5 24.5t101.5 67.5t68 101.5t25 125.5q0 65 -25 123.5t-68 102t-101.5 69t-125.5 25.5t-125 -25.5t-101.5 -69t-69 -102t-25.5 -123.5z" />
<glyph unicode="&#xab;" horiz-adv-x="1355" d="M152 573l544 542q1 2 7 6t14 4q11 0 18.5 -7.5t7.5 -18.5t-7 -19l-509 -509l505 -504q3 -3 7 -8.5t4 -13.5q0 -11 -7.5 -18.5t-18.5 -7.5q-9 0 -18 7l-545 546q-1 0 -2 1zM633 573l545 542q1 2 6.5 6t13.5 4q11 0 19 -7.5t8 -18.5t-7 -19l-509 -509l504 -504 q3 -3 7.5 -8.5t4.5 -13.5q0 -11 -8 -18.5t-19 -7.5q-9 0 -17 7l-546 546q-1 0 -2 1z" />
<glyph unicode="&#xac;" horiz-adv-x="1061" d="M99 746q0 30 31 30h747q19 0 24 -9q5 -7 5 -21v-361q0 -29 -29 -29t-29 29v333h-718q-31 0 -31 28z" />
<glyph unicode="&#xad;" horiz-adv-x="1239" />
<glyph unicode="&#xae;" horiz-adv-x="1805" d="M124 760q0 106 27.5 205.5t78 186t121.5 157.5t157 122t185.5 79t206.5 28q161 0 302 -61.5t247 -167.5t167.5 -247t61.5 -302q0 -108 -28 -207t-78.5 -185t-122 -157.5t-158 -121.5t-185.5 -77.5t-206 -27.5q-108 0 -207 27.5t-185 77.5t-157 121.5t-121.5 157.5 t-78 185t-27.5 207zM185 760q0 -147 56.5 -277.5t154 -227.5t227.5 -153.5t277 -56.5q98 0 189.5 25.5t171 72t145 112.5t113 145t73 170.5t25.5 189.5t-25.5 189t-73 171t-113 145.5t-145 112.5t-171 73t-189.5 26t-189 -26t-170.5 -73t-145 -112.5t-112 -145.5t-72.5 -171 t-26 -189zM613 358q0 -25 10.5 -29t20.5 -4q8 0 18.5 6t10.5 26v260h291q37 0 70 10l128 -265v2q13 -37 42 -37q14 0 21 9.5t7 20.5q0 5 -2 14l-136 278q36 18 65.5 47t50.5 64t32.5 75.5t11.5 83.5q0 61 -22.5 116t-62.5 96t-94 66t-117 25h-301q-44 0 -44 -42v-822z M673 683v476h284q48 0 90.5 -19.5t74 -52.5t49.5 -77.5t18 -93.5q0 -46 -18.5 -88.5t-50 -74.5t-73.5 -51t-90 -19h-284z" />
<glyph unicode="&#xaf;" horiz-adv-x="1000" d="M142 1234q0 29 30 29h659q32 0 32 -29q0 -30 -32 -30h-659q-30 0 -30 30z" />
<glyph unicode="&#xb0;" horiz-adv-x="733" d="M73 1308q0 53 20.5 99.5t55 82t82 56t100.5 20.5q52 0 98.5 -20.5t81.5 -56t55.5 -82t20.5 -99.5q0 -55 -20.5 -102.5t-55.5 -81.5t-81.5 -54t-98.5 -20q-53 0 -100.5 20t-82 54t-55 81t-20.5 103zM131 1308q0 -42 15 -78.5t42 -63t63.5 -42t79.5 -15.5q41 0 77 15.5 t63 42t42.5 63t15.5 78.5q0 41 -15.5 77t-42.5 63.5t-63 43t-77 15.5q-43 0 -79.5 -15.5t-63.5 -43t-42 -63.5t-15 -77z" />
<glyph unicode="&#xb1;" horiz-adv-x="1046" d="M150 30q0 30 29 29h660q32 0 31 -29q0 -30 -31 -30h-660q-30 0 -29 30zM150 653q0 30 29 30h299v299q0 30 30 30q29 0 29 -30v-299h302q32 0 31 -30q0 -30 -31 -29h-302v-301q0 -32 -29 -32q-30 0 -30 32v301h-299q-30 0 -29 29z" />
<glyph unicode="&#xb2;" horiz-adv-x="727" d="M80 1256v8q1 56 22.5 103t58 82t85 54.5t103.5 19.5q56 0 106 -17.5t87 -49.5t58 -77.5t21 -101.5q0 -52 -18.5 -95t-49.5 -77l-376 -353h447q10 0 17 -6.5t7 -18.5v-14q0 -10 -6.5 -18t-17.5 -8h-513q-11 0 -19 7t-8 19v20q0 5 4 16l395 373q42 41 58 76.5t16 77.5 q0 43 -16.5 77.5t-44.5 57.5t-66 35t-81 12t-80.5 -14t-65 -40t-44 -61.5t-16.5 -78.5q0 -8 -6 -18q-1 -3 -6 -5l-7 -2h-19q-6 0 -8 1q-8 1 -11.5 5t-5.5 11z" />
<glyph unicode="&#xb3;" horiz-adv-x="674" d="M67 929v5q2 8 6.5 14t14.5 6h20q8 0 14 -3l3 -4q4 -3 6 -13v-4q0 -43 16.5 -79t44 -61.5t65 -40t80.5 -14.5t81 14.5t66 40t44.5 61.5t16.5 79t-16.5 79.5t-44.5 62.5t-66 40.5t-81 14.5q-11 0 -18 6t-7 20v12q0 12 7.5 18t17.5 6h6q31 1 56.5 10.5t45 26.5t30 41 t10.5 55q0 32 -11 57t-31 43t-47 27.5t-59 9.5q-63 0 -105 -37t-42 -100q0 -25 -25 -25h-15q-11 0 -17.5 7t-6.5 18q0 44 17 81t45.5 63t67 41t81.5 15t82 -15t67.5 -41t45.5 -63t17 -81q0 -53 -24 -94.5t-64 -66.5q68 -33 107.5 -93t39.5 -139q0 -56 -21 -103.5 t-57.5 -81.5t-86.5 -53t-106 -19t-105.5 19t-86 53t-57.5 81t-21 104z" />
<glyph unicode="&#xb4;" horiz-adv-x="565" d="M233 1247l145 255q14 27 40 14q25 -14 11 -41l-141 -254q-13 -27 -41 -14t-14 40z" />
<glyph unicode="&#xb5;" horiz-adv-x="1189" d="M174 -365v1336q0 30 32 29q30 0 30 -29v-579q0 -76 27.5 -141t76 -113.5t114.5 -76t142 -27.5t142 27.5t114.5 76t76 113.5t27.5 141v579q0 30 30 29q32 0 32 -29v-941q0 -30 -32 -30q-30 0 -30 30v146q-57 -93 -150.5 -148t-209.5 -55t-209.5 55t-150.5 148v-541 q0 -30 -30 -29q-32 0 -32 29z" />
<glyph unicode="&#xb6;" horiz-adv-x="1394" d="M62 1050q0 98 37.5 184t101.5 150t150 101.5t185 37.5h802q32 0 32 -29q0 -30 -32 -30h-278v-1434q0 -30 -29 -30q-30 0 -30 30v1434h-310v-1434q0 -30 -29 -30t-29 30v549h-97q-98 0 -184.5 36.5t-150.5 100.5t-101.5 149.5t-37.5 184.5z" />
<glyph unicode="&#xb7;" horiz-adv-x="513" d="M214 569q0 26 18 44t43 18q26 0 44 -18t18 -44t-18 -43.5t-44 -17.5t-43.5 17.5t-17.5 43.5z" />
<glyph unicode="&#xb8;" horiz-adv-x="570" d="M207 -466q0 12 8 21t22 9q26 0 47.5 9.5t38 26.5t26 39t9.5 48q0 25 -9 46.5t-25.5 38t-37.5 26t-45 11.5h-5q-28 1 -28 29v190q0 29 30 28q29 0 28 -28v-162q32 -5 60 -21.5t48 -40t32 -54t12 -63.5q0 -37 -14.5 -70.5t-39 -58.5t-58 -39.5t-69.5 -14.5q-13 0 -21.5 9.5 t-8.5 20.5z" />
<glyph unicode="&#xb9;" horiz-adv-x="384" d="M118 1449q-9 24 13 34l84 36q4 4 14 4h14q10 0 17.5 -7t7.5 -18v-786q0 -26 -25 -26h-14q-25 0 -24 26v731l-48 -20q-24 -9 -34 14z" />
<glyph unicode="&#xba;" horiz-adv-x="1007" d="M108 1166q0 79 30 148.5t81.5 121.5t121.5 81.5t148 29.5q79 0 148.5 -29.5t121 -81.5t81 -121.5t29.5 -148.5q0 -89 -32 -159t-85 -119t-121.5 -75.5t-141.5 -26.5q-79 0 -148.5 30t-121 81t-81.5 120.5t-30 148.5zM168 1166q0 -68 25.5 -126t69 -101t102 -67.5 t124.5 -24.5q67 0 125.5 24.5t101.5 67.5t68 101.5t25 125.5q0 65 -25 123.5t-68 102t-101.5 69t-125.5 25.5t-125 -25.5t-101.5 -69t-69 -102t-25.5 -123.5z" />
<glyph unicode="&#xbb;" horiz-adv-x="1367" d="M152 45q0 8 4 13t7 9l505 504l-509 509q-7 7 -7 19q0 11 7.5 18.5t18.5 7.5q8 0 14 -4t7 -6l544 -542q-1 -1 -2 -1l-545 -546q-8 -6 -18 -7q-11 0 -18.5 7.5t-7.5 18.5zM633 45q0 8 4 13t7 9l505 504l-509 509q-7 7 -7 19q0 11 7.5 18.5t18.5 7.5q8 0 14 -4t7 -6 l545 -542q-1 -1 -2 -1l-546 -546q-8 -6 -18 -7q-11 0 -18.5 7.5t-7.5 18.5z" />
<glyph unicode="&#xbc;" horiz-adv-x="1474" d="M217 1449l5 -12q10 -23 34 -14l48 20v-731q0 -26 25 -26h13q26 0 26 26v786q0 11 -8 18t-18 7h-13q-10 0 -15 -4l-84 -36q-23 -10 -13 -34zM260 44l804 1459q7 14 16 17.5t23 -3.5q27 -13 12 -38l-807 -1467q-15 -22 -37 -6q-28 13 -11 38zM801 188q0 -33 32 -32h391 v-122q0 -32 32 -32q31 0 31 32v122h54q33 0 33 32t-33 32h-54v573q8 17 -2 30q-6 15 -25 17q-10 2 -15 -1q-17 -2 -21 -20l-410 -602q-13 -6 -13 -29zM894 220l330 479v-479h-330z" />
<glyph unicode="&#xbd;" horiz-adv-x="1556" d="M211 44l804 1459q7 14 15.5 17.5t23.5 -3.5q27 -13 12 -38l-807 -1467q-15 -22 -37 -6q-28 13 -11 38zM217 1449l5 -12q10 -23 34 -14l48 20v-731q0 -26 25 -26h13q26 0 26 26v786q0 11 -8 18t-18 7h-13q-10 0 -15 -4l-84 -36q-23 -10 -13 -34zM836 568q2 -7 5.5 -11 t11.5 -5q2 -1 8 -1h19l7 2q5 2 6 5q6 9 6 17q0 43 16.5 79t44 61.5t65 40t80.5 14.5t81 -12.5t66 -35.5t44.5 -57t16.5 -77q0 -42 -16 -77.5t-58 -76.5l-395 -374q-4 -10 -4 -15v-20q0 -11 7.5 -18.5t18.5 -7.5h513q11 0 18 7.5t7 18.5v14q0 12 -7 18t-18 6h-446l376 354 q31 34 49 77t18 95q0 56 -21 101.5t-57.5 77.5t-86.5 49.5t-106 17.5q-55 0 -104 -19.5t-85 -54.5t-57.5 -82t-22.5 -104v-7z" />
<glyph unicode="&#xbe;" horiz-adv-x="1726" d="M56 953v5q3 19 22 21h19q8 0 15 -3l3 -3v-1q4 -3 6 -14v-4q0 -43 16.5 -78.5t44 -61.5t65 -40t80.5 -14t80.5 14t66 40t45 61.5t16.5 78.5t-16.5 79.5t-45 62.5t-66 41t-80.5 15q-11 0 -18 5.5t-7 20.5v12q0 12 7 17.5t18 5.5h6q31 1 56.5 11t45 27t30 41t10.5 55 q0 32 -11 56.5t-31 42.5t-47.5 28t-58.5 10q-63 0 -105 -37t-42 -100q0 -25 -25 -25h-16q-11 0 -17 6.5t-6 18.5q0 44 17 80.5t45.5 63t67 41t81.5 14.5t81.5 -14.5t67.5 -41t46 -63t17 -80.5q0 -53 -24.5 -95t-63.5 -66q68 -33 107.5 -93.5t39.5 -139.5q0 -56 -21 -103 t-58 -81.5t-86.5 -53.5t-105.5 -19t-105.5 19t-86.5 53.5t-58 81.5t-21 103zM400 44l804 1459q7 14 16 17.5t23 -3.5q27 -13 12 -38l-806 -1467q-15 -22 -37 -6q-28 13 -12 38zM725 133q0 23 13 29l410 602q4 17 21 19q4 3 15 1q19 -1 25 -16q10 -13 2 -31v-572h55 q33 0 32 -32q0 -33 -32 -33h-55v-122q0 -32 -30 -31q-33 0 -33 31v122h-391q-32 0 -32 33zM818 165h330v479z" />
<glyph unicode="&#xbf;" horiz-adv-x="1164" d="M76 -188q0 39 6 87.5t32.5 102t81.5 110t152 110.5l199 126v338q0 23 30 23q29 0 28 -23v-370l-225 -137q-90 -51 -140 -101.5t-73.5 -98t-28 -90.5t-4.5 -79q0 -72 34 -136.5t91.5 -113t135 -77.5t165.5 -29q90 0 170 29.5t139.5 83t93.5 129t34 166.5q0 17 10.5 26.5 t21.5 9.5t20.5 -8.5t11.5 -25.5q0 -102 -39.5 -188.5t-107.5 -149t-158.5 -97t-193.5 -34.5q-110 0 -200 35.5t-153.5 94.5t-98 134t-34.5 153zM515 966q0 26 18 43.5t44 17.5t43.5 -17.5t17.5 -43.5t-18 -44t-43 -18q-26 0 -44 18t-18 44z" />
<glyph unicode="&#xc0;" horiz-adv-x="1438" d="M72 39l617 1475q8 18 27 16q10 2 17.5 -2t11.5 -19l615 -1468q13 -28 -15 -36q-27 -13 -36 11l-97 231h-992l-94 -227q-5 -15 -14 -18.5t-22 1.5q-29 8 -18 36zM245 305h943l-472 1126zM493 1991q-13 27 11 41q26 13 40 -14l144 -255q14 -27 -13 -40q-28 -13 -41 14z" />
<glyph unicode="&#xc1;" horiz-adv-x="1438" d="M72 39l617 1475q8 18 27 16q10 2 17.5 -2t11.5 -19l615 -1468q13 -28 -15 -36q-27 -13 -36 11l-97 231h-992l-94 -227q-5 -15 -14 -18.5t-22 1.5q-29 8 -18 36zM245 305h943l-472 1126zM728 1763l144 255q14 27 40 14q25 -14 12 -41l-142 -254q-13 -27 -41 -14t-13 40z " />
<glyph unicode="&#xc2;" horiz-adv-x="1438" d="M72 39l617 1475q8 18 27 16q10 2 17.5 -2t11.5 -19l615 -1468q13 -28 -15 -36q-27 -13 -36 11l-97 231h-992l-94 -227q-5 -15 -14 -18.5t-22 1.5q-29 8 -18 36zM245 305h943l-472 1126zM445 1766.5q0 8.5 8 15.5l247 246q12 14 29 -3l248 -245q7 -7 7 -16t-7 -16l-9 -9 q-6 -7 -15.5 -7t-15.5 7l-223 219l-221 -217q-5 -6 -15 -6t-17 6l-8 9q-8 8 -8 16.5z" />
<glyph unicode="&#xc3;" horiz-adv-x="1438" d="M72 39l617 1475q8 18 27 16q10 2 17.5 -2t11.5 -19l615 -1468q13 -28 -15 -36q-27 -13 -36 11l-97 231h-992l-94 -227q-5 -15 -14 -18.5t-22 1.5q-29 8 -18 36zM245 305h943l-472 1126zM441 1782q0 11 12 20q33 48 71 69t84 21q31 0 59 -13.5t55 -30t53.5 -30.5t52.5 -14 h10q20 3 38.5 15.5t34.5 27t28.5 25.5t22.5 11t19.5 -10.5t9.5 -18.5q0 -10 -9 -20q-33 -48 -71.5 -69t-84.5 -21q-26 0 -51.5 10t-51.5 26l-58 34q-12 7 -24.5 11.5t-28.5 6.5q-36 0 -61 -15.5t-49 -46.5q-17 -17 -29 -17t-22 11.5t-10 17.5z" />
<glyph unicode="&#xc4;" horiz-adv-x="1438" d="M69 25q0 6 3 14l617 1475q5 12 13 14t20 2q8 0 14 -4.5t9 -16.5l615 -1468q4 -8 4 -16t-11.5 -16.5t-25.5 -8.5q-12 0 -18 16l-97 231h-992l-94 -227q-8 -20 -22 -20q-17 0 -26 8t-9 17zM245 305h943l-472 1126zM484 1777q0 20 15 35t36 15q20 0 35 -15t15 -35t-15 -35.5 t-35 -15.5t-35.5 15.5t-15.5 35.5zM848 1777q0 20 15 35t35 15t35 -15t15 -35t-14.5 -35.5t-35.5 -15.5q-20 0 -35 15.5t-15 35.5z" />
<glyph unicode="&#xc5;" horiz-adv-x="1438" d="M69 25q0 6 3 14l603 1442q-54 14 -89 57.5t-35 102.5q0 33 13 63t35 52.5t52 35.5t65 13t64.5 -13t52 -35.5t35.5 -52.5t13 -63q0 -30 -9.5 -55.5t-26 -46.5t-39.5 -36t-49 -21l603 -1441q4 -8 4 -16t-11.5 -16.5t-25.5 -8.5q-12 0 -18 16l-97 231h-992l-94 -227 q-8 -20 -22 -20q-17 0 -26 8t-9 17zM245 305h943l-472 1126zM603 1641q0 -46 29.5 -77t73.5 -35q5 1 16 1q3 0 4 -1q44 4 72 35t28 77q0 47 -31 79t-79 32q-24 0 -44.5 -8.5t-35.5 -23.5t-24 -35t-9 -44z" />
<glyph unicode="&#xc6;" horiz-adv-x="2452" d="M70 23q0 15 16 35l1180 1451q5 7 11 10.5t19 3.5h1011q32 0 32 -29q0 -30 -32 -30h-993v-969h820q32 0 32 -30q0 -29 -32 -29h-820v-378h1016q32 0 31 -28q0 -30 -31 -30h-1054q-10 2 -15.5 10.5t-5.5 19.5v402h-790l-336 -415q-6 -8 -15.5 -13t-19.5 -5t-17 6t-7 18z M515 492h740v912z" />
<glyph unicode="&#xc7;" horiz-adv-x="1471" d="M109 758q0 106 27.5 206t77.5 186.5t121.5 157.5t157.5 122.5t185 79.5t207 28q143 0 267.5 -48.5t227.5 -131.5q15 -11 16 -24q0 -11 -11 -23.5t-22 -12.5t-22 11q-96 80 -211 123t-245 43q-99 0 -190.5 -26t-171 -72.5t-144.5 -112t-111.5 -145.5t-72 -171.5 t-25.5 -189.5t25.5 -189.5t72 -170.5t111.5 -144.5t144.5 -111.5t170.5 -71.5t191 -25.5q130 0 245 43.5t211 120.5q10 9 22 9t22.5 -12t10.5 -24t-16 -22q-101 -81 -221 -128t-259 -50v-130q32 -5 60 -21.5t48 -40t32 -54t12 -64.5q0 -37 -14.5 -70t-39 -58t-58 -39.5 t-70.5 -14.5q-13 0 -21 9t-8 21t8 20.5t21 8.5q26 0 48 10t38.5 27t26 39t9.5 47t-9 47t-25.5 38.5t-37.5 26t-46 10.5h-5q-28 1 -27 30v159q-102 5 -196.5 35.5t-176 82.5t-148 122t-114 154.5t-73 180.5t-25.5 200z" />
<glyph unicode="&#xc8;" horiz-adv-x="1330" d="M168 29v1464v9t2 7q2 2 2 4q3 2 4.5 3.5t3.5 1.5q8 4 19 4h991q31 0 31 -29t-31 -29h-963v-841h789q33 0 33 -31q0 -29 -33 -29h-789v-506h985q31 0 31 -28q0 -29 -31 -29h-1024q-2 0 -4 1t-4 1l-1 2h-1q-6 3 -8 9.5t-2 15.5zM540 1991q-13 27 11 41q26 13 40 -14 l144 -255q14 -27 -13 -40q-28 -13 -41 14z" />
<glyph unicode="&#xc9;" horiz-adv-x="1330" d="M168 29v1464q0 12 3.5 18.5t8 9t10.5 2t9 -0.5h991q31 0 31 -29t-31 -29h-963v-841h789q33 0 33 -31q0 -29 -33 -29h-789v-506h985q31 0 31 -28q0 -29 -31 -29h-1024q-11 0 -15.5 9t-4.5 20zM624 1749q0 6 5 16l144 255q10 18 24 18q13 0 22.5 -9t9.5 -19q0 -7 -5 -17 l-141 -254q-5 -9 -10 -14t-14 -5q-14 0 -24.5 9t-10.5 20z" />
<glyph unicode="&#xca;" horiz-adv-x="1330" d="M168 29v1464v9t2 7q2 2 2 4q3 2 4.5 3.5t3.5 1.5q8 4 19 4h991q31 0 31 -29t-31 -29h-963v-841h789q33 0 33 -31q0 -29 -33 -29h-789v-506h985q31 0 31 -28q0 -29 -31 -29h-1024q-2 0 -4 1t-4 1l-1 2h-1q-6 3 -8 9.5t-2 15.5zM436.5 1772.5q0.5 8.5 7.5 15.5l248 246 q12 14 29 -2l248 -246q7 -7 7 -16t-7 -16l-10 -9q-6 -7 -15 -7t-15 7l-223 219l-222 -217q-5 -6 -14.5 -6t-16.5 6l-9 9q-8 8 -7.5 16.5z" />
<glyph unicode="&#xcb;" horiz-adv-x="1330" d="M168 29v1464v9t2 7q2 2 2 4q3 2 4.5 3.5t3.5 1.5q8 4 19 4h991q31 0 31 -29t-31 -29h-963v-841h789q33 0 33 -31q0 -29 -33 -29h-789v-506h985q31 0 31 -28q0 -29 -31 -29h-1024q-2 0 -4 1t-4 1l-1 2h-1q-6 3 -8 9.5t-2 15.5zM474 1817q0 20 15 35t35 15t35 -15t15 -35 t-14.5 -35.5t-35.5 -15.5q-20 0 -35 15.5t-15 35.5zM838 1817q0 20 14.5 35t35.5 15q20 0 35 -15t15 -35t-15 -35.5t-35 -15.5t-35 15.5t-15 35.5z" />
<glyph unicode="&#xcc;" horiz-adv-x="381" d="M5 1989q-13 27 11 41q26 13 40 -14l145 -255q14 -27 -14 -40t-41 14zM167 29v1464q0 29 31 29q29 0 28 -29v-1464q0 -29 -28 -29q-31 0 -31 29z" />
<glyph unicode="&#xcd;" horiz-adv-x="381" d="M162 1766l144 255q14 27 40 14q25 -14 11 -41l-141 -254q-13 -27 -41 -14t-13 40zM167 29v1464q0 29 31 29q29 0 28 -29v-1464q0 -29 -28 -29q-31 0 -31 29z" />
<glyph unicode="&#xce;" horiz-adv-x="381" d="M-81.5 1820.5q0.5 8.5 7.5 15.5l248 246q12 14 29 -2l248 -246q7 -7 7 -16t-7 -16l-10 -9q-6 -7 -15 -7t-15 7l-224 219l-221 -217q-5 -6 -14.5 -6t-17.5 6l-8 9q-8 8 -7.5 16.5zM167 29v1464q0 29 31 29q29 0 28 -29v-1464q0 -29 -28 -29q-31 0 -31 29z" />
<glyph unicode="&#xcf;" horiz-adv-x="381" d="M-37 1831q0 20 15 35t35 15t35 -15t15 -35t-14.5 -35t-35.5 -15q-20 0 -35 15t-15 35zM178 29v1464q0 29 31 29q29 0 29 -29v-1464q0 -29 -29 -29q-31 0 -31 29zM327 1831q0 20 14.5 35t35.5 15q20 0 35 -15t15 -35t-15 -35t-35 -15t-35 15t-15 35z" />
<glyph unicode="&#xd0;" horiz-adv-x="1557" d="M28 580q0 29 29 28h107v885q0 26 20 29h506q103 -2 200 -30.5t181 -78t153 -118.5t118.5 -153t76.5 -181.5t27 -202.5q0 -106 -27.5 -203.5t-78 -181.5t-120.5 -152.5t-156 -118t-184.5 -76t-203.5 -26.5h-481q-8 0 -13 1t-8 3l-4 4q-6 3 -6 12v530h-107q-30 0 -29 30z M223 57h453q97 0 187.5 25.5t169.5 71t144 109.5t111.5 141.5t72 166.5t25.5 187q0 97 -25.5 187.5t-72 169t-111.5 143t-144 110.5t-169.5 71t-187.5 25h-453v-856h291q32 0 32 -28q0 -30 -32 -30h-291v-493z" />
<glyph unicode="&#xd1;" horiz-adv-x="1581" d="M166 29v1495q0 29 22 28q9 0 14 -2t11 -8l1141 -1464v1415q0 29 28 29q29 0 29 -29v-1511q-3 -23 -27 -23q-12 0 -17.5 3.5t-10.5 8.5l-1131 1463v-1405q0 -29 -28 -29q-31 0 -31 29zM542 1796q0 11 11 21q33 48 71.5 69t84.5 21q31 0 59 -14t54.5 -30.5t53 -30 t53.5 -13.5h9q20 3 38.5 15t34.5 26.5t29 25.5t22 11q10 0 20 -10.5t10 -17.5q0 -10 -10 -21q-33 -48 -71 -69t-84 -21q-26 0 -52 10.5t-52 25.5l-58 34q-12 7 -24.5 11.5t-27.5 6.5q-36 0 -61.5 -15t-49.5 -46q-17 -17 -29 -18q-12 0 -21.5 11.5t-9.5 17.5z" />
<glyph unicode="&#xd2;" horiz-adv-x="1761" d="M83 760q0 106 27.5 205.5t78 186t121.5 157.5t157 122t185.5 79t206.5 28q161 0 302.5 -61.5t247 -167.5t167 -247t61.5 -302q0 -108 -28 -207t-78.5 -185t-122 -157.5t-158 -121.5t-185.5 -77.5t-206 -27.5q-108 0 -207 27.5t-185 77.5t-157 121.5t-121.5 157.5t-78 185 t-27.5 207zM144 760q0 -147 56.5 -277.5t154 -227.5t227.5 -153.5t277 -56.5q98 0 189.5 25.5t171 72t145.5 112.5t113 145t72.5 170.5t25.5 189.5t-25.5 189t-72.5 171t-113 145.5t-145.5 112.5t-171 73t-189.5 26t-189 -26t-170.5 -73t-145 -112.5t-112 -145.5t-72.5 -171 t-26 -189zM700 1992q-13 27 12 41q26 13 40 -14l144 -255q14 -27 -13 -40q-28 -13 -41 14z" />
<glyph unicode="&#xd3;" horiz-adv-x="1761" d="M83 760q0 106 27.5 205.5t78 186t121.5 157.5t157 122t185.5 79t206.5 28q161 0 302.5 -61.5t247 -167.5t167 -247t61.5 -302q0 -108 -28 -207t-78.5 -185t-122 -157.5t-158 -121.5t-185.5 -77.5t-206 -27.5q-108 0 -207 27.5t-185 77.5t-157 121.5t-121.5 157.5t-78 185 t-27.5 207zM144 760q0 -147 56.5 -277.5t154 -227.5t227.5 -153.5t277 -56.5q98 0 189.5 25.5t171 72t145.5 112.5t113 145t72.5 170.5t25.5 189.5t-25.5 189t-72.5 171t-113 145.5t-145.5 112.5t-171 73t-189.5 26t-189 -26t-170.5 -73t-145 -112.5t-112 -145.5t-72.5 -171 t-26 -189zM834 1752l144 255q14 27 40 13q25 -14 11 -41l-141 -254q-13 -27 -41 -13q-28 13 -13 40z" />
<glyph unicode="&#xd4;" horiz-adv-x="1761" d="M83 760q0 106 27.5 205.5t78 186t121.5 157.5t157 122t185.5 79t206.5 28q161 0 302.5 -61.5t247 -167.5t167 -247t61.5 -302q0 -108 -28 -207t-78.5 -185t-122 -157.5t-158 -121.5t-185.5 -77.5t-206 -27.5q-108 0 -207 27.5t-185 77.5t-157 121.5t-121.5 157.5t-78 185 t-27.5 207zM144 760q0 -147 56.5 -277.5t154 -227.5t227.5 -153.5t277 -56.5q98 0 189.5 25.5t171 72t145.5 112.5t113 145t72.5 170.5t25.5 189.5t-25.5 189t-72.5 171t-113 145.5t-145.5 112.5t-171 73t-189.5 26t-189 -26t-170.5 -73t-145 -112.5t-112 -145.5t-72.5 -171 t-26 -189zM604.5 1774.5q0.5 8.5 7.5 15.5l248 246q12 14 29 -2l248 -246q7 -7 7 -16t-7 -16l-10 -9q-6 -7 -15 -7t-15 7l-224 219l-221 -217q-5 -6 -14.5 -6t-16.5 6l-9 9q-8 8 -7.5 16.5z" />
<glyph unicode="&#xd5;" horiz-adv-x="1761" d="M83 760q0 106 27.5 205.5t78 186t121.5 157.5t157 122t185.5 79t206.5 28q161 0 302.5 -61.5t247 -167.5t167 -247t61.5 -302q0 -108 -28 -207t-78.5 -185t-122 -157.5t-158 -121.5t-185.5 -77.5t-206 -27.5q-108 0 -207 27.5t-185 77.5t-157 121.5t-121.5 157.5t-78 185 t-27.5 207zM144 760q0 -147 56.5 -277.5t154 -227.5t227.5 -153.5t277 -56.5q98 0 189.5 25.5t171 72t145.5 112.5t113 145t72.5 170.5t25.5 189.5t-25.5 189t-72.5 171t-113 145.5t-145.5 112.5t-171 73t-189.5 26t-189 -26t-170.5 -73t-145 -112.5t-112 -145.5t-72.5 -171 t-26 -189zM600 1787q0 11 11 20q33 48 71.5 69t84.5 21q31 0 59 -13.5t54.5 -30t53.5 -30.5t53 -14h9q20 3 39 15.5t34.5 27t28.5 25.5t22 11q10 0 20 -10.5t10 -17.5q0 -10 -9 -21q-33 -48 -71.5 -69t-84.5 -21q-26 0 -52 10t-51 26l-59 34q-12 7 -24.5 11.5t-27.5 6.5 q-36 0 -61.5 -15t-49.5 -46q-17 -17 -28 -18q-12 0 -22 11.5t-10 17.5z" />
<glyph unicode="&#xd6;" horiz-adv-x="1761" d="M83 760q0 106 27.5 205.5t78 186t121.5 157.5t157 122t185.5 79t206.5 28q161 0 302.5 -61.5t247 -167.5t167 -247t61.5 -302q0 -108 -28 -207t-78.5 -185t-122 -157.5t-158 -121.5t-185.5 -77.5t-206 -27.5q-108 0 -207 27.5t-185 77.5t-157 121.5t-121.5 157.5t-78 185 t-27.5 207zM144 760q0 -147 56.5 -277.5t154 -227.5t227.5 -153.5t277 -56.5q98 0 189.5 25.5t171 72t145.5 112.5t113 145t72.5 170.5t25.5 189.5t-25.5 189t-72.5 171t-113 145.5t-145.5 112.5t-171 73t-189.5 26t-189 -26t-170.5 -73t-145 -112.5t-112 -145.5t-72.5 -171 t-26 -189zM644 1790q0 20 15 35t35 15t35 -15t15 -35t-14.5 -35t-35.5 -15q-20 0 -35 15t-15 35zM1008 1790q0 20 14.5 35t35.5 15q20 0 35 -15t15 -35t-15 -35t-35 -15t-35 15t-15 35z" />
<glyph unicode="&#xd7;" horiz-adv-x="899" d="M208 401q-22 20 1 43l213 213l-211 211q-23 20 0 42q20 20 42 0l211 -211l211 211q22 20 42 0q22 -19 0 -41l-212 -211l214 -214q22 -23 1 -43q-20 -22 -43 1l-214 214l-213 -213q-22 -24 -42 -2z" />
<glyph unicode="&#xd8;" horiz-adv-x="1764" d="M88 760q0 106 27.5 206t78.5 186.5t121.5 157.5t157 122t186 79t206.5 28q69 0 133.5 -11.5t125.5 -33.5l93 227q5 12 10 18t14 6q17 0 28.5 -9t11.5 -20q0 -6 -3 -15l-93 -232q101 -46 185 -118.5t145 -164.5t95 -200t34 -226q0 -108 -28.5 -207t-79 -185t-122 -157 t-158 -121.5t-185.5 -78t-206 -27.5q-65 0 -126 10t-119 29l-93 -216q-8 -18 -23 -18q-17 0 -28.5 10t-11.5 19q0 5 5 17l90 211q-104 44 -190.5 116t-148.5 165t-97 203t-35 230zM151 760q0 -98 25.5 -189.5t72 -170.5t111.5 -144.5t144.5 -112t171 -72t189.5 -25.5 t189.5 25.5t171.5 72t145.5 112t112.5 144.5t72.5 170.5t25.5 189.5t-25.5 189.5t-72.5 171t-112.5 145t-145.5 112.5t-171 73t-190 26q-98 0 -189.5 -26t-171 -73t-144.5 -112.5t-111.5 -145t-72 -171t-25.5 -189.5z" />
<glyph unicode="&#xd9;" horiz-adv-x="1527" d="M115 596v897q0 29 28 29q29 0 29 -29v-897q0 -118 44 -220.5t120.5 -178.5t178.5 -120t220 -44t220.5 44t178.5 120t120 178.5t44 220.5v897q0 29 31 29q29 0 29 -29v-905q-1 -85 -23.5 -163.5t-63 -146.5t-97.5 -124t-125.5 -96t-148 -61.5t-165.5 -21.5q-129 0 -242 49 t-197 133t-132.5 197t-48.5 242zM604 1991q-13 27 11 41q26 13 40 -14l145 -255q14 -27 -14 -40t-41 14z" />
<glyph unicode="&#xda;" horiz-adv-x="1527" d="M115 596v897q0 29 28 29q29 0 29 -29v-897q0 -118 44 -220.5t120.5 -178.5t178.5 -120t220 -44t220.5 44t178.5 120t120 178.5t44 220.5v897q0 29 31 29q29 0 29 -29v-905q-1 -85 -23.5 -163.5t-63 -146.5t-97.5 -124t-125.5 -96t-148 -61.5t-165.5 -21.5q-129 0 -242 49 t-197 133t-132.5 197t-48.5 242zM711 1764l144 255q14 27 40 14q25 -14 11 -41l-141 -254q-13 -27 -41 -14t-13 40z" />
<glyph unicode="&#xdb;" horiz-adv-x="1527" d="M115 596v897q0 29 28 29q29 0 29 -29v-897q0 -118 44 -220.5t120.5 -178.5t178.5 -120t220 -44t220.5 44t178.5 120t120 178.5t44 220.5v897q0 29 31 29q29 0 29 -29v-905q-1 -85 -23.5 -163.5t-63 -146.5t-97.5 -124t-125.5 -96t-148 -61.5t-165.5 -21.5q-129 0 -242 49 t-197 133t-132.5 197t-48.5 242zM502.5 1772.5q0.5 8.5 7.5 15.5l248 246q12 14 28 -2l248 -246q7 -7 7 -16t-7 -16l-9 -9q-6 -7 -15.5 -7t-15.5 7l-223 219l-221 -217q-5 -6 -15 -6t-17 6l-8 9q-8 8 -7.5 16.5z" />
<glyph unicode="&#xdc;" horiz-adv-x="1527" d="M115 596v897q0 29 28 29q29 0 29 -29v-897q0 -118 44 -220.5t120.5 -178.5t178.5 -120t220 -44t220.5 44t178.5 120t120 178.5t44 220.5v897q0 29 31 29q29 0 29 -29v-905q-1 -85 -23.5 -163.5t-63 -146.5t-97.5 -124t-125.5 -96t-148 -61.5t-165.5 -21.5q-129 0 -242 49 t-197 133t-132.5 197t-48.5 242zM552 1792q0 20 15 35t35 15t35 -15t15 -35t-14.5 -35t-35.5 -15q-20 0 -35 15t-15 35zM915 1792q0 20 15 35t36 15q20 0 35 -15t15 -35t-15 -35t-35 -15t-35.5 15t-15.5 35z" />
<glyph unicode="&#xdd;" horiz-adv-x="1220" d="M65 1495q0 12 12.5 21.5t21.5 9.5q12 0 22 -15l483 -811l483 811q11 14 23 15q11 0 23 -9.5t12 -20.5q0 -8 -8 -19l-502 -840v-608q0 -29 -29 -29q-31 0 -31 29v606l-503 842q-7 10 -7 18zM658 1752q0 6 6 16l144 255q10 18 23 18t23 -9t10 -19q0 -7 -5 -17l-141 -254 q-5 -9 -10.5 -14t-13.5 -5q-14 0 -25 9t-11 20z" />
<glyph unicode="&#xde;" horiz-adv-x="1223" d="M164 30v1464q0 29 30 29q29 0 28 -29v-233h448q98 0 184 -37.5t150 -101.5t101.5 -150t37.5 -185q0 -98 -37.5 -183.5t-101.5 -149.5t-150 -101t-184 -37h-446v-286q0 -30 -28 -30h-2q-30 0 -30 30zM224 376h446q87 0 162 31.5t131 87t87.5 130.5t31.5 162t-31.5 163 t-87.5 132t-131 88t-162 32h-446v-826z" />
<glyph unicode="&#xdf;" horiz-adv-x="1142" d="M165 -351v1512q0 88 30.5 156.5t83.5 116.5t122.5 72.5t146.5 24.5q80 0 150 -28t123 -78t84 -118.5t31 -148.5q0 -54 -15 -103.5t-41 -89.5t-62 -68t-79 -37q78 -18 135 -56.5t94.5 -93t55 -122.5t17.5 -145q0 -102 -38.5 -188t-106 -148t-157 -97t-191.5 -35 q-17 0 -43 1.5t-49.5 7t-41 14.5t-17.5 25q0 11 9.5 20.5t25.5 9.5q6 0 9 -1q30 -8 55.5 -13t53.5 -5q78 0 155 28t139 81t100.5 128.5t38.5 169.5q0 90 -25.5 163t-79 124t-135 78.5t-193.5 27.5q-17 0 -26.5 8.5t-9.5 18.5t8 18.5t26 8.5h11q66 0 123 15.5t100 48t67.5 83 t24.5 121.5t-24.5 129t-68 99.5t-104 65t-131.5 23.5q-68 0 -127 -23t-102 -63.5t-67.5 -98t-24.5 -127.5v-1512q0 -30 -28 -30q-32 0 -32 30z" />
<glyph unicode="&#xe0;" horiz-adv-x="1229" d="M95 503q0 109 39 205t106 167.5t157 113t192 41.5q73 0 141.5 -21.5t126 -61.5t101.5 -96t68 -126v249q0 32 32 32q29 0 28 -32v-944q0 -30 -28 -30q-32 0 -32 30v261q-20 -70 -64 -128t-103 -99t-129 -64t-141 -23q-101 0 -191.5 41.5t-157.5 113t-106 167t-39 204.5z M156 503q0 -95 33.5 -180t92 -149t137.5 -101t170 -37q89 0 168.5 37t138 101t93 149t34.5 180q0 96 -34.5 181.5t-93 149t-138 101t-168.5 37.5q-91 0 -170 -37.5t-137.5 -101t-92 -149t-33.5 -181.5zM457 1492q0 10 9 19t22 9q8 1 14 -4.5t11 -13.5l144 -255q4 -8 5 -16 q0 -11 -11 -20t-24 -9q-14 0 -24 19l-141 254q-5 10 -5 17z" />
<glyph unicode="&#xe1;" horiz-adv-x="1229" d="M95 503q0 109 39 205t106 167.5t157 113t192 41.5q73 0 141.5 -21.5t126 -61.5t101.5 -96t68 -126v249q0 32 32 32q29 0 28 -32v-944q0 -30 -28 -30q-32 0 -32 30v261q-20 -70 -64 -128t-103 -99t-129 -64t-141 -23q-101 0 -191.5 41.5t-157.5 113t-106 167t-39 204.5z M156 503q0 -95 33.5 -180t92 -149t137.5 -101t170 -37q89 0 168.5 37t138 101t93 149t34.5 180q0 96 -34.5 181.5t-93 149t-138 101t-168.5 37.5q-91 0 -170 -37.5t-137.5 -101t-92 -149t-33.5 -181.5zM652 1247l145 255q14 27 40 14q25 -14 11 -41l-141 -254 q-13 -27 -41 -14t-14 40z" />
<glyph unicode="&#xe2;" horiz-adv-x="1229" d="M95 503q0 109 39 205t106 167.5t157 113t192 41.5q73 0 141.5 -21.5t126 -61.5t101.5 -96t68 -126v249q0 32 32 32q29 0 28 -32v-944q0 -30 -28 -30q-32 0 -32 30v261q-20 -70 -64 -128t-103 -99t-129 -64t-141 -23q-101 0 -191.5 41.5t-157.5 113t-106 167t-39 204.5z M156 503q0 -95 33.5 -180t92 -149t137.5 -101t170 -37q89 0 168.5 37t138 101t93 149t34.5 180q0 96 -34.5 181.5t-93 149t-138 101t-168.5 37.5q-91 0 -170 -37.5t-137.5 -101t-92 -149t-33.5 -181.5zM303.5 1250q0.5 8 7.5 16l248 245q12 14 28 -2l248 -245q7 -7 7 -16 t-7 -16l-9 -9q-6 -7 -15.5 -7.5t-15.5 7.5l-223 219l-221 -217q-5 -6 -15 -6t-17 6l-8 9q-8 8 -7.5 16z" />
<glyph unicode="&#xe3;" horiz-adv-x="1229" d="M95 503q0 109 39 205t106 167.5t157 113t192 41.5q73 0 141.5 -21.5t126 -61.5t101.5 -96t68 -126v249q0 32 32 32q29 0 28 -32v-944q0 -30 -28 -30q-32 0 -32 30v261q-20 -70 -64 -128t-103 -99t-129 -64t-141 -23q-101 0 -191.5 41.5t-157.5 113t-106 167t-39 204.5z M156 503q0 -95 33.5 -180t92 -149t137.5 -101t170 -37q89 0 168.5 37t138 101t93 149t34.5 180q0 96 -34.5 181.5t-93 149t-138 101t-168.5 37.5q-91 0 -170 -37.5t-137.5 -101t-92 -149t-33.5 -181.5zM298 1266q0 11 11 20q33 48 71 69t84 21q31 0 59.5 -13.5t55 -30 t53 -30.5t53.5 -14h9q20 3 38.5 15.5t34.5 27t29 25.5t22 11q10 0 19.5 -10.5t9.5 -18.5q0 -10 -9 -20q-33 -48 -71 -69t-84 -21q-26 0 -52 10t-52 26l-58 33q-12 7 -24.5 12t-27.5 7q-36 0 -61.5 -15.5t-49.5 -46.5q-17 -17 -29 -17t-21.5 11.5t-9.5 17.5z" />
<glyph unicode="&#xe4;" horiz-adv-x="1229" d="M95 503q0 109 39 205t106 167.5t157 113t192 41.5q73 0 141.5 -21.5t126 -61.5t101.5 -96t68 -126v249q0 32 32 32q29 0 28 -32v-944q0 -30 -28 -30q-32 0 -32 30v261q-20 -70 -64 -128t-103 -99t-129 -64t-141 -23q-101 0 -191.5 41.5t-157.5 113t-106 167t-39 204.5z M156 503q0 -95 33.5 -180t92 -149t137.5 -101t170 -37q89 0 168.5 37t138 101t93 149t34.5 180q0 96 -34.5 181.5t-93 149t-138 101t-168.5 37.5q-91 0 -170 -37.5t-137.5 -101t-92 -149t-33.5 -181.5zM340 1261q0 20 15 35t35 15t35 -15t15 -35t-14.5 -35.5t-35.5 -15.5 q-20 0 -35 15.5t-15 35.5zM704 1261q0 20 14.5 35t35.5 15q20 0 35 -15t15 -35t-15 -35.5t-35 -15.5t-35 15.5t-15 35.5z" />
<glyph unicode="&#xe5;" horiz-adv-x="1229" d="M95 503q0 109 39 205t106 167.5t157 113t192 41.5q73 0 141.5 -21.5t126 -61.5t101.5 -96t68 -126v249q0 32 32 32q29 0 28 -32v-944q0 -30 -28 -30q-32 0 -32 30v261q-20 -70 -64 -128t-103 -99t-129 -64t-141 -23q-101 0 -191.5 41.5t-157.5 113t-106 167t-39 204.5z M156 503q0 -95 33.5 -180t92 -149t137.5 -101t170 -37q89 0 168.5 37t138 101t93 149t34.5 180q0 96 -34.5 181.5t-93 149t-138 101t-168.5 37.5q-91 0 -170 -37.5t-137.5 -101t-92 -149t-33.5 -181.5zM417 1434q0 33 13 62.5t35 52t52 36t65 13.5t64.5 -13.5t52 -36 t35.5 -52t13 -62.5q0 -35 -13 -65t-35.5 -52t-52 -35t-64.5 -13t-65 13t-52 35t-35 52t-13 65zM469 1434q0 -48 32.5 -80.5t80.5 -32.5t79.5 32.5t31.5 80.5q0 47 -31.5 79t-79.5 32q-24 0 -44 -9t-35.5 -23.5t-24.5 -34.5t-9 -44z" />
<glyph unicode="&#xe6;" horiz-adv-x="2073" d="M94 503q0 109 39 205t106 167.5t157 113t192 41.5q73 0 141.5 -21.5t126 -61.5t101.5 -96t68 -126v249q0 32 32 32q29 0 28 -32v-944q0 -30 -28 -30q-32 0 -32 30v261q-20 -70 -64 -128t-103 -99t-129 -64t-141 -23q-101 0 -191.5 41.5t-157.5 113t-106 167t-39 204.5z M155 503q0 -95 33.5 -180t92 -149t137.5 -101t170 -37q89 0 168.5 37t138 101t93 149t34.5 180q0 96 -34.5 181.5t-93 149t-138 101t-168.5 37.5q-91 0 -170 -37.5t-137.5 -101t-92 -149t-33.5 -181.5zM1025 500q0 109 38.5 204t104.5 166t154 112t188 41q94 0 178 -38.5 t148.5 -105t105 -156t47.5 -192.5q2 -4 2 -6.5v-4.5q0 -30 -29 -30h-878q0 -95 37 -178t99.5 -144.5t146.5 -96.5t179 -35q96 0 176.5 31.5t143.5 90.5q9 9 20 9q8 0 18 -8.5t10 -21.5t-16 -26v2q-72 -67 -159.5 -101.5t-189.5 -34.5q-109 0 -204 41t-166.5 112t-112.5 166 t-41 204zM1084 552h847q-8 86 -45 161t-94.5 131t-130 88t-153.5 32t-153.5 -32t-129 -87t-94 -130.5t-47.5 -162.5z" />
<glyph unicode="&#xe7;" horiz-adv-x="1090" d="M97 500q0 109 41 204t112 166t166 112t204 41q102 0 186.5 -36t155.5 -95q16 -13 16 -26q0 -10 -10 -20.5t-18 -10.5q-9 0 -19 10q-63 56 -143 88t-171 32q-95 0 -179.5 -37t-147.5 -100t-99.5 -148t-36.5 -180t36.5 -179.5t99.5 -147.5t147.5 -100t179.5 -37 q93 0 174 31.5t144 90.5q10 8 19 8q11 0 21 -10t10 -21q0 -12 -16 -24v2q-69 -62 -150.5 -96t-174.5 -39v-143q32 -5 60 -21.5t48 -40t32 -53.5t12 -64q0 -37 -14.5 -70t-39 -58.5t-58 -39.5t-70.5 -14q-13 0 -21 9t-8 20q0 12 8 21t21 9q26 0 48 10t38.5 26.5t26 38.5 t9.5 48q0 25 -9 47t-25.5 38t-37.5 26t-46 11h-5q-28 1 -27 29v171q-102 6 -191.5 50t-155.5 114t-104 162t-38 196z" />
<glyph unicode="&#xe8;" horiz-adv-x="1171" d="M103 500q0 109 38.5 204t104.5 166t154 112t188 41q94 0 178 -38.5t148.5 -105t105 -156t47.5 -192.5q2 -4 2 -6.5v-4.5q0 -30 -29 -30h-878q0 -95 37 -178t99.5 -144.5t146.5 -96.5t179 -35q96 0 176.5 31.5t143.5 90.5q9 9 20 9q8 0 18 -8.5t10 -21.5t-16 -26v2 q-72 -67 -159.5 -101.5t-189.5 -34.5q-109 0 -204 41t-166.5 112t-112.5 166t-41 204zM162 552h847q-8 86 -45 161t-94.5 131t-130 88t-153.5 32t-153.5 -32t-129 -87t-94 -130.5t-47.5 -162.5zM442 1492q0 10 9.5 19t22.5 9q8 1 14 -4.5t11 -13.5l144 -255q4 -8 4 -16 q0 -11 -10.5 -20t-24.5 -9t-23 19l-142 254q-5 10 -5 17z" />
<glyph unicode="&#xe9;" horiz-adv-x="1171" d="M103 500q0 109 38.5 204t104.5 166t154 112t188 41q94 0 178 -38.5t148.5 -105t105 -156t47.5 -192.5q2 -4 2 -6.5v-4.5q0 -30 -29 -30h-878q0 -95 37 -178t99.5 -144.5t146.5 -96.5t179 -35q96 0 176.5 31.5t143.5 90.5q9 9 20 9q8 0 18 -8.5t10 -21.5t-16 -26v2 q-72 -67 -159.5 -101.5t-189.5 -34.5q-109 0 -204 41t-166.5 112t-112.5 166t-41 204zM162 552h847q-8 86 -45 161t-94.5 131t-130 88t-153.5 32t-153.5 -32t-129 -87t-94 -130.5t-47.5 -162.5zM513 1231q0 6 5 16l145 255q10 18 23 18t23 -9t10 -19q0 -7 -5 -17l-142 -254 q-5 -9 -10 -14t-13 -5q-14 0 -25 9t-11 20z" />
<glyph unicode="&#xea;" horiz-adv-x="1171" d="M103 500q0 109 38.5 204t104.5 166t154 112t188 41q94 0 178 -38.5t148.5 -105t105 -156t47.5 -192.5q2 -4 2 -6.5v-4.5q0 -30 -29 -30h-878q0 -95 37 -178t99.5 -144.5t146.5 -96.5t179 -35q96 0 176.5 31.5t143.5 90.5q9 9 20 9q8 0 18 -8.5t10 -21.5t-16 -26v2 q-72 -67 -159.5 -101.5t-189.5 -34.5q-109 0 -204 41t-166.5 112t-112.5 166t-41 204zM162 552h847q-8 86 -45 161t-94.5 131t-130 88t-153.5 32t-153.5 -32t-129 -87t-94 -130.5t-47.5 -162.5zM347 1249q0 8 8 17l248 245q6 6 12 7q8 0 17 -9l248 -245q7 -9 7 -17t-7 -15 l-10 -9q-6 -7 -15 -8q-9 0 -15 8l-224 219l-221 -217q-5 -6 -15 -6t-16 6l-9 9q-8 8 -8 15z" />
<glyph unicode="&#xeb;" horiz-adv-x="1171" d="M103 500q0 109 38.5 204t104.5 166t154 112t188 41q94 0 178 -38.5t148.5 -105t105 -156t47.5 -192.5q2 -4 2 -6.5v-4.5q0 -30 -29 -30h-878q0 -95 37 -178t99.5 -144.5t146.5 -96.5t179 -35q96 0 176.5 31.5t143.5 90.5q11 11 21.5 9t21.5 -13q8 -14 4 -23.5t-15 -19.5 v2q-72 -67 -159.5 -101.5t-189.5 -34.5q-109 0 -204 41t-166.5 112t-112.5 166t-41 204zM162 552h847q-8 86 -45 161t-94.5 131t-130 88t-153.5 32t-153.5 -32t-129 -87t-94 -130.5t-47.5 -162.5zM349 1261q0 20 15 35t35 15t35.5 -15t15.5 -35t-15 -35.5t-36 -15.5 q-20 0 -35 15.5t-15 35.5zM713 1261q0 20 14.5 35t35.5 15q20 0 35 -15t15 -35t-15 -35.5t-35 -15.5t-35 15.5t-15 35.5z" />
<glyph unicode="&#xec;" horiz-adv-x="388" d="M27 1492q0 10 9 19t22 9q8 1 14 -4.5t11 -13.5l144 -255q4 -8 4 -16q0 -11 -10.5 -20t-23.5 -9q-14 0 -24 19l-141 254q-5 10 -5 17zM170 30v941q0 30 32 29q29 0 28 -29v-941q0 -30 -28 -30q-32 0 -32 30z" />
<glyph unicode="&#xed;" horiz-adv-x="388" d="M170 30v941q0 30 32 29q29 0 28 -29v-941q0 -30 -28 -30q-32 0 -32 30zM172 1231q0 6 5 16l145 255q10 18 23 18t23 -9t10 -19q0 -7 -5 -17l-142 -254q-5 -9 -10 -14t-13 -5q-14 0 -25 9t-11 20z" />
<glyph unicode="&#xee;" horiz-adv-x="388" d="M-53.5 1250q0.5 8 7.5 16l248 245q12 14 28 -2l248 -245q7 -7 7 -16t-7 -16l-9 -9q-6 -7 -15.5 -7.5t-15.5 7.5l-223 219l-221 -217q-5 -6 -15 -6t-17 6l-8 9q-8 8 -7.5 16zM170 30v941q0 30 32 29q29 0 28 -29v-941q0 -30 -28 -30q-32 0 -32 30z" />
<glyph unicode="&#xef;" horiz-adv-x="388" d="M-23 1288q0 20 15 35t36 15q20 0 35 -14.5t15 -35.5q0 -20 -15 -35t-35 -15t-35.5 15t-15.5 35zM170 30v941q0 30 32 29q29 0 28 -29v-941q0 -30 -28 -30q-32 0 -32 30zM341 1288q0 20 15 35t35 15t35 -14.5t15 -35.5q0 -20 -14.5 -35t-35.5 -15q-20 0 -35 15t-15 35z " />
<glyph unicode="&#xf0;" horiz-adv-x="1256" d="M103 500q0 109 41 204t112.5 166t166.5 112t204 41q68 0 128.5 -16t115.5 -45l-235 338l-147 -101q-10 -7 -20 -7q-9 1 -19 10.5t-10 22.5q0 7 4.5 13t10.5 11l146 102l-85 124q-6 9 -6 17t10.5 18.5t22.5 10.5q11 0 22 -16l83 -122l155 108q8 7 19 7q8 -1 19.5 -11 t11.5 -23q0 -12 -14 -22l-156 -109l380 -549q40 -61 62 -133t22 -151q0 -108 -41 -203t-111.5 -166.5t-165.5 -112.5t-202 -41q-109 0 -204 41t-166.5 112.5t-112.5 166.5t-41 203zM160 500q0 -95 36.5 -179.5t99.5 -147.5t147.5 -100t180.5 -37q95 0 179.5 37t148 100 t100.5 147.5t37 179.5t-37 180t-100.5 148t-148 100t-179.5 37t-180 -37t-148 -100t-99.5 -148t-36.5 -180z" />
<glyph unicode="&#xf1;" horiz-adv-x="1115" d="M146 30v945q0 30 30 30q31 0 31 -30v-149q55 93 149.5 147t210.5 54q87 0 164 -32.5t134 -89.5t89.5 -133.5t32.5 -163.5v-578q0 -30 -30 -30t-29 30v582q-2 75 -30.5 140t-77 112.5t-113.5 75t-140 27.5q-74 0 -138.5 -26.5t-113 -73t-77 -109.5t-31.5 -136v-592 q0 -30 -31 -30q-30 0 -30 30zM301 1266q0 11 11 20q33 48 71.5 69t84.5 21q31 0 59 -13.5t54.5 -30t53.5 -30.5t53 -14h9q20 3 39 15.5t34.5 27t28.5 25.5t22 11q10 0 20 -10.5t10 -18.5q0 -10 -9 -20q-33 -48 -71.5 -69t-84.5 -21q-26 -1 -52 10t-51 26l-59 33 q-12 7 -24.5 12t-27.5 7q-36 0 -61.5 -15.5t-49.5 -46.5q-17 -17 -28 -17q-12 0 -22 11.5t-10 17.5z" />
<glyph unicode="&#xf2;" horiz-adv-x="1250" d="M103 500q0 109 41 204t112 166t165.5 112t202.5 41q109 0 204 -41t166 -112t112 -166.5t41 -203.5t-41 -203t-112 -166.5t-166.5 -112.5t-203.5 -41t-202.5 41t-165.5 112.5t-112 166.5t-41 203zM162 500q0 -95 37 -179.5t100 -147.5t147.5 -100t180.5 -37q95 0 179.5 37 t147.5 100t100 147t37 180q0 95 -37 180t-100 148t-147.5 100t-179.5 37t-180 -37t-148 -100t-100 -148t-37 -180zM453 1492q0 10 9 19t22 9q8 1 14 -4.5t11 -13.5l144 -255q4 -8 4 -16q0 -11 -10.5 -20t-23.5 -9q-14 0 -24 19l-141 254q-5 10 -5 17z" />
<glyph unicode="&#xf3;" horiz-adv-x="1250" d="M103 500q0 109 41 204t112 166t165.5 112t202.5 41q109 0 204 -41t166 -112t112 -166.5t41 -203.5t-41 -203t-112 -166.5t-166.5 -112.5t-203.5 -41t-202.5 41t-165.5 112.5t-112 166.5t-41 203zM162 500q0 -95 37 -179.5t100 -147.5t147.5 -100t180.5 -37q95 0 179.5 37 t147.5 100t100 147t37 180q0 95 -37 180t-100 148t-147.5 100t-179.5 37t-180 -37t-148 -100t-100 -148t-37 -180zM528 1247l145 255q14 27 40 14q25 -14 11 -41l-141 -254q-13 -27 -41 -14t-14 40z" />
<glyph unicode="&#xf4;" horiz-adv-x="1250" d="M103 500q0 109 41 204t112 166t165.5 112t202.5 41q109 0 204 -41t166 -112t112 -166.5t41 -203.5t-41 -203t-112 -166.5t-166.5 -112.5t-203.5 -41t-202.5 41t-165.5 112.5t-112 166.5t-41 203zM162 500q0 -95 37 -179.5t100 -147.5t147.5 -100t180.5 -37q95 0 179.5 37 t147.5 100t100 147t37 180q0 95 -37 180t-100 148t-147.5 100t-179.5 37t-180 -37t-148 -100t-100 -148t-37 -180zM356 1250q0 8 8 16l247 245q12 14 29 -2l248 -245q7 -7 7 -16t-7 -16l-9 -9q-6 -7 -15.5 -7.5t-15.5 7.5l-223 219l-222 -217q-5 -6 -14.5 -6t-16.5 6l-8 9 q-8 8 -8 16z" />
<glyph unicode="&#xf5;" horiz-adv-x="1250" d="M103 500q0 109 41 204t112 166t165.5 112t202.5 41q109 0 204 -41t166 -112t112 -166.5t41 -203.5t-41 -203t-112 -166.5t-166.5 -112.5t-203.5 -41t-202.5 41t-165.5 112.5t-112 166.5t-41 203zM162 500q0 -95 37 -179.5t100 -147.5t147.5 -100t180.5 -37q95 0 179.5 37 t147.5 100t100 147t37 180q0 95 -37 180t-100 148t-147.5 100t-179.5 37t-180 -37t-148 -100t-100 -148t-37 -180zM335 1266q0 11 11 20q33 48 71.5 69t84.5 21q31 0 59 -13.5t54.5 -30t53 -30.5t53.5 -14h9q20 3 38.5 15.5t34.5 27t29 25.5t22 11q10 0 20 -10.5t10 -18.5 q0 -10 -9 -20q-33 -48 -71.5 -69t-84.5 -21q-26 0 -52 10t-52 26l-58 33q-12 7 -24.5 12t-27.5 7q-36 0 -61.5 -15.5t-49.5 -46.5q-17 -17 -28 -17q-12 0 -22 11.5t-10 17.5z" />
<glyph unicode="&#xf6;" horiz-adv-x="1250" d="M103 500q0 109 41 204t112 166t165.5 112t202.5 41q109 0 204 -41t166 -112t112 -166.5t41 -203.5t-41 -203t-112 -166.5t-166.5 -112.5t-203.5 -41t-202.5 41t-165.5 112.5t-112 166.5t-41 203zM162 500q0 -95 37 -179.5t100 -147.5t147.5 -100t180.5 -37q95 0 179.5 37 t147.5 100t100 147t37 180q0 95 -37 180t-100 148t-147.5 100t-179.5 37t-180 -37t-148 -100t-100 -148t-37 -180zM355 1261q0 20 15 35t36 15q20 0 35 -15t15 -35t-15 -35.5t-35 -15.5t-35.5 15.5t-15.5 35.5zM719 1261q0 20 15 35t35 15t35 -15t15 -35t-14.5 -35.5 t-35.5 -15.5q-20 0 -35 15.5t-15 35.5z" />
<glyph unicode="&#xf7;" horiz-adv-x="961" d="M110 502q0 29 29 28h660q32 0 31 -28q0 -30 -31 -30h-660q-30 0 -29 30zM412 49q0 26 17.5 44t43.5 18t44 -18t18 -44t-18 -43.5t-44 -17.5t-43.5 17.5t-17.5 43.5zM412 954q0 26 17.5 44t43.5 18t44 -18t18 -44t-18 -43.5t-44 -17.5t-43.5 17.5t-17.5 43.5z" />
<glyph unicode="&#xf8;" horiz-adv-x="1250" d="M103 500q0 109 41 204t112 166t165.5 112t202.5 41q46 0 90 -8t86 -23l64 151q10 29 40 15q27 -10 16 -39l-65 -150q65 -33 118.5 -81t92 -108.5t60 -131.5t21.5 -148q0 -108 -41 -203t-112 -166.5t-166.5 -112.5t-203.5 -41q-45 0 -86.5 7.5t-81.5 20.5l-60 -142 q-11 -29 -38 -18q-30 12 -18 40l60 143q-67 32 -121 80t-93.5 109.5t-61 133t-21.5 149.5zM162 500q0 -95 37 -179.5t100 -147.5t147.5 -100t180.5 -37q95 0 179.5 37t147.5 100t100 147t37 180q0 95 -37 180t-100 148t-147.5 100t-179.5 37t-180 -37t-148 -100t-100 -148 t-37 -180z" />
<glyph unicode="&#xf9;" horiz-adv-x="1137" d="M124 392v582q0 30 32 30q29 0 28 -30v-589q2 -76 30.5 -140t77 -111t113.5 -73.5t140 -26.5q76 0 142 27.5t114.5 76t76 113.5t27.5 141v582q0 30 30 30q32 0 32 -30v-944q0 -30 -32 -30q-30 0 -30 30v146q-57 -93 -151 -148t-209 -55q-87 0 -163.5 33t-134 90t-90.5 133 t-33 163zM409 1475q-13 27 11 41q26 13 40 -14l144 -255q14 -27 -13 -40q-28 -13 -41 14z" />
<glyph unicode="&#xfa;" horiz-adv-x="1137" d="M124 392v582q0 30 32 30q29 0 28 -30v-589q2 -76 30.5 -140t77 -111t113.5 -73.5t140 -26.5q76 0 142 27.5t114.5 76t76 113.5t27.5 141v582q0 30 30 30q32 0 32 -30v-944q0 -30 -32 -30q-30 0 -30 30v146q-57 -93 -151 -148t-209 -55q-87 0 -163.5 33t-134 90t-90.5 133 t-33 163zM479 1247l145 255q14 27 40 14q25 -14 11 -41l-141 -254q-13 -27 -41 -14t-14 40z" />
<glyph unicode="&#xfb;" horiz-adv-x="1137" d="M124 392v582q0 30 32 30q29 0 28 -30v-589q2 -76 30.5 -140t77 -111t113.5 -73.5t140 -26.5q76 0 142 27.5t114.5 76t76 113.5t27.5 141v582q0 30 30 30q32 0 32 -30v-944q0 -30 -32 -30q-30 0 -30 30v146q-57 -93 -151 -148t-209 -55q-87 0 -163.5 33t-134 90t-90.5 133 t-33 163zM264 1249q0 8 8 17l248 245q6 6 12 7q8 0 17 -9l248 -245q7 -9 7 -17t-7 -15l-10 -9q-6 -7 -15 -8q-9 0 -15 8l-223 219l-222 -217q-5 -6 -15 -6t-16 6l-9 9q-8 8 -8 15z" />
<glyph unicode="&#xfc;" horiz-adv-x="1137" d="M124 392v582q0 30 32 30q29 0 28 -30v-589q2 -76 30.5 -140t77 -111t113.5 -73.5t140 -26.5q76 0 142 27.5t114.5 76t76 113.5t27.5 141v582q0 30 30 30q32 0 32 -30v-944q0 -30 -32 -30q-30 0 -30 30v146q-57 -93 -151 -148t-209 -55q-87 0 -163.5 33t-134 90t-90.5 133 t-33 163zM306 1261q0 20 15 35t35 15t35.5 -15t15.5 -35t-15 -35.5t-36 -15.5q-20 0 -35 15.5t-15 35.5zM670 1261q0 20 14.5 35t35.5 15q20 0 35 -15t15 -35t-15 -35.5t-35 -15.5t-35 15.5t-15 35.5z" />
<glyph unicode="&#xfd;" horiz-adv-x="950" d="M36 972q0 11 9.5 21.5t24.5 10.5t24 -15l370 -886l367 879q5 9 12 15.5t15 6.5q16 0 24 -11.5t8 -18.5q0 -8 -2 -12l-565 -1360q-8 -14 -25 -15q-13 0 -24 9.5t-11 20.5q0 5 3 11l164 395l-392 939q-2 6 -2 10zM513 1231q0 6 5 16l145 255q10 18 23 18t23 -9t10 -19 q0 -7 -5 -17l-142 -254q-5 -9 -10 -14t-13 -5q-14 0 -25 9t-11 20z" />
<glyph unicode="&#xfe;" horiz-adv-x="1265" d="M135 -382v1864q0 30 30 29q29 0 29 -29v-772q12 31 30.5 68.5t43.5 66.5h-2q73 83 172.5 130.5t216.5 47.5q109 0 204 -41t166.5 -112t112.5 -166.5t41 -203.5t-41 -203t-112.5 -166.5t-166.5 -112.5t-204 -41q-114 0 -212 46t-173 125q-12 13 -23 31t-20.5 36.5 t-17.5 37.5t-15 36v-671q0 -32 -29 -32q-30 0 -30 32zM194 480q7 -88 47 -168.5t102.5 -141.5t143 -97.5t170.5 -36.5q95 0 180.5 37t148.5 100t99.5 147t36.5 180q0 95 -36.5 180t-99.5 148t-148 100t-181 37q-94 0 -178.5 -37t-148 -100t-100 -148t-36.5 -180v-20z" />
<glyph unicode="&#xff;" horiz-adv-x="950" d="M38 962q-5 12 1 21.5t17 16.5q25 10 38 -11l370 -886l367 879q7 12 17 19t21 -1q29 -12 19 -38l-565 -1360q-14 -23 -39 -12q-11 6 -17 16.5t-1 21.5l164 395zM275 1287q0 20 15 35t36 15q20 0 35 -14.5t15 -35.5q0 -20 -15 -35t-35 -15t-35.5 15t-15.5 35zM639 1287 q0 20 15 35t35 15t35 -14.5t15 -35.5q0 -20 -14.5 -35t-35.5 -15q-20 0 -35 15t-15 35z" />
<glyph unicode="&#x152;" horiz-adv-x="2653" d="M38 760q0 106 27.5 205.5t78 186t121.5 157.5t157 122t185.5 79t206.5 28q126 0 241 -38.5t211.5 -107.5t168.5 -164t112 -209v474v9t2 7q2 2 2 4q3 2 5 3.5t4 1.5q8 4 18 4h991q31 0 31 -29t-31 -29h-962v-841h788q33 0 33 -31q0 -29 -33 -29h-788v-506h985q31 0 30 -28 q0 -29 -30 -29h-1024q-2 0 -4 1t-4 1l-1 2h-1q-6 3 -8.5 9.5t-2.5 15.5v471q-40 -113 -112 -207.5t-168.5 -163.5t-211.5 -107t-241 -38q-108 0 -207 27.5t-185 77.5t-157 121.5t-121.5 157.5t-78 185t-27.5 207zM99 760q0 -147 56.5 -277.5t154 -227.5t227.5 -153.5 t277 -56.5q98 0 189.5 25.5t171 72t145 112.5t113 145t73 170.5t25.5 189.5t-25.5 189t-73 171t-113 145.5t-145 112.5t-171 73t-189.5 26t-189 -26t-170.5 -73t-145 -112.5t-112 -145.5t-72.5 -171t-26 -189z" />
<glyph unicode="&#x153;" horiz-adv-x="2089" d="M69 500q0 109 41 204t111.5 166t165 112t202.5 41q86 0 164 -26.5t143.5 -74.5t113.5 -113t74 -142q25 78 70 142.5t105 112.5t132.5 74.5t151.5 26.5q94 0 178 -38.5t148.5 -105t105 -156t47.5 -192.5q2 -4 2 -6.5v-4.5q0 -30 -28 -30h-879q0 -95 37 -178t100 -144.5 t147 -96.5t178 -35q96 0 176.5 31.5t144.5 90.5q11 11 21 9t22 -13q8 -14 4 -23.5t-16 -19.5v2q-72 -67 -159.5 -101.5t-189.5 -34.5q-87 0 -166 27t-144 74t-113 112.5t-74 143.5q-27 -78 -74.5 -143t-112.5 -112.5t-144 -74.5t-165 -27q-108 0 -202.5 41t-165 112.5 t-111.5 166.5t-41 203zM127 500q0 -95 37 -179.5t100.5 -147.5t148 -100t179.5 -37t179.5 37t147.5 100t100 147t37 180q0 95 -37 180t-100 148t-147.5 100t-179.5 37t-179.5 -37t-148 -100t-100.5 -148t-37 -180zM1117 552h847q-8 86 -45 161t-94.5 131t-130 88t-153.5 32 t-153 -32t-129 -87t-94.5 -130.5t-47.5 -162.5z" />
<glyph unicode="&#x178;" horiz-adv-x="1220" d="M66 1501q3 10 14 17q26 19 41 -7l483 -811l483 811q18 25 43 7q26 -15 7 -41l-502 -840v-608q0 -29 -29 -29q-31 0 -31 29v606l-503 842q-9 14 -6 24zM449 1795q0 20 14.5 35t35.5 15q20 0 35 -14.5t15 -35.5q0 -20 -15 -35t-35 -15t-35 15t-15 35zM812 1795q0 20 15 35 t35 15t35 -14.5t15 -35.5q0 -20 -14.5 -35t-35.5 -15q-20 0 -35 15t-15 35z" />
<glyph unicode="&#x2c6;" horiz-adv-x="765" d="M112.5 1250q0.5 8 7.5 16l248 245q12 14 28 -2l248 -245q7 -7 7 -16t-7 -16l-9 -9q-6 -7 -15.5 -7.5t-15.5 7.5l-223 219l-221 -217q-5 -6 -15 -6t-17 6l-8 9q-8 8 -7.5 16z" />
<glyph unicode="&#x2dc;" horiz-adv-x="604" d="M24 1266q0 11 11 20q33 48 71 69t84 21q31 0 59.5 -13.5t55 -30t53 -30.5t53.5 -14h9q20 3 38.5 15.5t34.5 27t29 25.5t22 11q10 0 19.5 -10.5t9.5 -18.5q0 -10 -9 -20q-33 -48 -71 -69t-84 -21q-26 0 -52 10t-52 26l-58 33q-12 7 -24.5 12t-27.5 7q-36 0 -61.5 -15.5 t-49.5 -46.5q-17 -17 -29 -17t-21.5 11.5t-9.5 17.5z" />
<glyph unicode="&#x2000;" horiz-adv-x="1044" />
<glyph unicode="&#x2001;" horiz-adv-x="2088" />
<glyph unicode="&#x2002;" horiz-adv-x="1044" />
<glyph unicode="&#x2003;" horiz-adv-x="2088" />
<glyph unicode="&#x2004;" horiz-adv-x="696" />
<glyph unicode="&#x2005;" horiz-adv-x="522" />
<glyph unicode="&#x2006;" horiz-adv-x="348" />
<glyph unicode="&#x2007;" horiz-adv-x="348" />
<glyph unicode="&#x2008;" horiz-adv-x="261" />
<glyph unicode="&#x2009;" horiz-adv-x="417" />
<glyph unicode="&#x200a;" horiz-adv-x="116" />
<glyph unicode="&#x2010;" horiz-adv-x="1040" d="M171 563q0 29 30 29h659q32 0 32 -29q0 -30 -32 -29h-659q-30 0 -30 29z" />
<glyph unicode="&#x2011;" horiz-adv-x="1040" d="M171 563q0 29 30 29h659q32 0 32 -29q0 -30 -32 -29h-659q-30 0 -30 29z" />
<glyph unicode="&#x2012;" horiz-adv-x="1040" d="M171 563q0 29 30 29h659q32 0 32 -29q0 -30 -32 -29h-659q-30 0 -30 29z" />
<glyph unicode="&#x2013;" horiz-adv-x="1382" d="M170 564q0 29 30 29h980q32 0 31 -29q0 -30 -31 -29h-980q-30 0 -30 29z" />
<glyph unicode="&#x2014;" horiz-adv-x="1705" d="M171 565q0 29 30 29h1318q32 0 31 -29q0 -30 -31 -29h-1318q-30 0 -30 29z" />
<glyph unicode="&#x2018;" horiz-adv-x="380" d="M84 1349v43q0 32 6 56.5t15.5 41.5t20 26.5t19.5 9.5q5 0 11 -5l12 -11q3 -5 3 -9q0 -6 -4.5 -12t-10 -15t-10.5 -20t-5 -27v-14h4q26 0 44 -17.5t18 -43.5t-18 -44t-44 -18q-25 0 -42 17.5t-19 41.5z" />
<glyph unicode="&#x2019;" horiz-adv-x="384" d="M150 1470q0 26 17.5 44t43.5 18q25 0 42 -17.5t19 -40.5v-43q0 -32 -6 -56.5t-15 -42t-20 -27t-20 -9.5q-5 0 -10 6l-13 10q-3 4 -3 9q0 6 5 12t10.5 15t10 20t4.5 27v14h-4q-26 0 -43.5 17.5t-17.5 43.5z" />
<glyph unicode="&#x201a;" horiz-adv-x="380" d="M150 51q0 26 17.5 44t43.5 18q25 0 42 -17.5t19 -41.5v-43q0 -32 -6 -56.5t-15 -41.5t-20 -26.5t-20 -9.5q-5 0 -10 5l-13 10q-3 4 -3 10t5 12t10.5 15t10 20t4.5 26v15h-4q-26 0 -43.5 17.5t-17.5 43.5z" />
<glyph unicode="&#x201c;" horiz-adv-x="594" d="M84 1349v43q0 32 6 56.5t15.5 41.5t20 26.5t19.5 9.5q5 0 11 -5l12 -11q3 -5 3 -9q0 -6 -4.5 -12t-10 -15t-10.5 -20t-5 -27v-14h4q26 0 44 -17.5t18 -43.5t-18 -44t-44 -18q-25 0 -42 17.5t-19 41.5zM319 1349v43q0 32 6.5 56.5t15.5 41.5t20 26.5t20 9.5q5 0 10 -5 l12 -11q3 -5 4 -9q0 -6 -5 -12t-10.5 -15t-10 -20t-4.5 -27v-14h4q26 0 43.5 -17.5t17.5 -43.5t-17.5 -44t-43.5 -18q-25 0 -42 17.5t-20 41.5z" />
<glyph unicode="&#x201d;" horiz-adv-x="613" d="M132 1466q0 26 18 44t44 18q25 0 42 -17.5t19 -41.5v-43q0 -32 -6 -56t-15.5 -41.5t-20 -27t-19.5 -9.5q-5 0 -11 5l-12 11q-3 4 -3 9q0 6 4.5 12t10 15t10.5 20t5 27v14h-4q-26 0 -44 17.5t-18 43.5zM344 1466q0 26 18 44t44 18q25 0 42 -17.5t19 -41.5v-43 q0 -32 -6 -56t-15.5 -41.5t-20 -27t-19.5 -9.5q-5 0 -11 5l-12 11q-3 4 -3 9q0 6 4.5 12t10 15t10.5 20t5 27v14h-4q-26 0 -44 17.5t-18 43.5z" />
<glyph unicode="&#x201e;" horiz-adv-x="583" d="M122 51q0 26 18 44t43 18t42.5 -17.5t19.5 -41.5v-43q0 -32 -6.5 -56.5t-15.5 -41.5t-19.5 -26.5t-20.5 -9.5q-5 0 -10 5l-12 10q-3 4 -3 10t4.5 12t10 15t10 20t4.5 26v15h-4q-26 0 -43.5 17.5t-17.5 43.5zM334 51q0 26 18 44t43 18t42.5 -17.5t19.5 -41.5v-43 q0 -32 -6.5 -56.5t-15.5 -41.5t-20 -26.5t-20 -9.5q-5 0 -10 5l-12 10q-3 4 -3 10t4.5 12t10 15t10 20t4.5 26v15h-4q-26 0 -43.5 17.5t-17.5 43.5z" />
<glyph unicode="&#x2022;" horiz-adv-x="509" d="M168 572q0 27 19.5 46.5t46.5 19.5t46 -19.5t19 -46.5t-19 -46t-46 -19q-28 0 -47 19t-19 46z" />
<glyph unicode="&#x2026;" horiz-adv-x="1238" d="M158 51q0 26 18 44t43 18q26 0 44 -18t18 -44t-18 -43.5t-44 -17.5t-43.5 17.5t-17.5 43.5zM535 51q0 26 17.5 44t43.5 18t43.5 -18t17.5 -44t-17.5 -43.5t-43.5 -17.5t-43.5 17.5t-17.5 43.5zM901 51q0 26 18 44t44 18t43.5 -18t17.5 -44t-18 -43.5t-43 -17.5 q-26 0 -44 17.5t-18 43.5z" />
<glyph unicode="&#x202f;" horiz-adv-x="417" />
<glyph unicode="&#x2039;" horiz-adv-x="818" d="M128 573l545 542q1 2 6.5 6t13.5 4q11 0 19 -7.5t8 -18.5t-7 -19l-509 -509l505 -504q3 -3 7 -8.5t4 -13.5q0 -11 -7.5 -18.5t-19.5 -7.5q-9 0 -17 7l-546 546q-1 0 -2 1z" />
<glyph unicode="&#x203a;" horiz-adv-x="863" d="M159 45q0 8 4 13t7 9l505 504l-509 509q-7 7 -7 19q0 11 7.5 18.5t18.5 7.5q8 0 14 -4t7 -6l545 -542q-1 -1 -2 -1l-546 -546q-8 -6 -18 -7q-11 0 -18.5 7.5t-7.5 18.5z" />
<glyph unicode="&#x205f;" horiz-adv-x="522" />
<glyph unicode="&#x20ac;" horiz-adv-x="1525" d="M59 617q0 30 30 30h72q-4 27 -6 55t-2 57q0 27 1.5 52.5t5.5 50.5h-71q-30 0 -30 30q0 29 30 29h80q28 132 97.5 244.5t169.5 195.5t225.5 130t266.5 47q144 0 268.5 -48t226.5 -132q28 -17 8 -44q-10 -13 -22 -15t-24 11q-96 80 -211 123t-246 43q-127 0 -241.5 -42 t-206.5 -117t-156.5 -176.5t-92.5 -219.5h518q32 0 31 -29q0 -30 -31 -30h-529q-4 -26 -5.5 -51.5t-1.5 -51.5q0 -29 2 -57t6 -55h528q32 0 31 -30q0 -30 -31 -29h-516q29 -117 94 -216.5t156 -172t205 -113.5t240 -41q131 0 246 43.5t211 120.5q24 24 46 -4q20 -27 -8 -44 q-102 -84 -226.5 -131t-268.5 -47q-139 0 -264 45.5t-225 126.5t-169.5 192t-98.5 241h-82q-30 0 -30 29z" />
<glyph unicode="&#x2122;" horiz-adv-x="1323" d="M48 1492q0 29 29 29h416q32 0 31 -29q0 -30 -31 -30h-178v-539q0 -30 -28 -30q-30 0 -30 30v539h-180q-29 0 -29 30zM581 932l43 547q3 19 12 27t21 8q6 0 13.5 -3.5t11.5 -11.5l205 -471l228 480q12 17 23 18q14 0 24 -6t12 -17l45 -570q0 -14 -6 -24t-21 -10 q-16 0 -23 8t-9 24l-37 448l-207 -437q-5 -11 -11.5 -17t-15.5 -6q-19 0 -29 23l-186 426l-35 -439q-2 -15 -9 -24.5t-22 -9.5q-14 0 -20.5 12.5t-6.5 24.5z" />
<glyph unicode="&#x25fc;" horiz-adv-x="1003" d="M0 0v1004h1004v-1004h-1004z" />
</font>
</defs>
</svg>
